solid 
   facet normal 1.000000e+00 -0.000000e+00 0.000000e+00
      outer loop
         vertex 3.450824e+01 4.210000e+01 3.626648e+01
         vertex 3.450824e+01 -7.100000e+00 3.626648e+01
         vertex 3.450824e+01 4.210000e+01 4.732840e+00
      endloop
   endfacet
   facet normal 1.000000e+00 -0.000000e+00 0.000000e+00
      outer loop
         vertex 3.450824e+01 -7.100000e+00 3.626648e+01
         vertex 3.450824e+01 -7.100000e+00 1.496648e+01
         vertex 3.450824e+01 4.210000e+01 4.732840e+00
      endloop
   endfacet
   facet normal 1.000000e+00 0.000000e+00 0.000000e+00
      outer loop
         vertex 3.450824e+01 4.210000e+01 4.732840e+00
         vertex 3.450824e+01 9.100000e+00 6.032840e+00
         vertex 3.450824e+01 9.100000e+00 4.732840e+00
      endloop
   endfacet
   facet normal 1.000000e+00 0.000000e+00 0.000000e+00
      outer loop
         vertex 3.450824e+01 9.100000e+00 6.032840e+00
         vertex 3.450824e+01 4.210000e+01 4.732840e+00
         vertex 3.450824e+01 -7.100000e+00 1.496648e+01
      endloop
   endfacet
   facet normal 0.000000e+00 1.000000e+00 0.000000e+00
      outer loop
         vertex 3.490825e+01 4.210000e+01 -5.376716e+01
         vertex -3.839175e+01 4.210000e+01 -5.376716e+01
         vertex 3.490825e+01 4.210000e+01 -5.276716e+01
      endloop
   endfacet
   facet normal -0.000000e+00 1.000000e+00 0.000000e+00
      outer loop
         vertex -3.839175e+01 4.210000e+01 -5.376716e+01
         vertex 2.290825e+01 4.210000e+01 -5.276716e+01
         vertex 3.490825e+01 4.210000e+01 -5.276716e+01
      endloop
   endfacet
   facet normal 0.000000e+00 1.000000e+00 0.000000e+00
      outer loop
         vertex 2.290825e+01 4.210000e+01 -5.276716e+01
         vertex -2.639175e+01 4.210000e+01 -5.276716e+01
         vertex 2.290825e+01 4.210000e+01 4.732840e+00
      endloop
   endfacet
   facet normal -0.000000e+00 1.000000e+00 0.000000e+00
      outer loop
         vertex -2.639175e+01 4.210000e+01 -5.276716e+01
         vertex -2.639175e+01 4.210000e+01 4.732840e+00
         vertex 2.290825e+01 4.210000e+01 4.732840e+00
      endloop
   endfacet
   facet normal 0.000000e+00 1.000000e+00 0.000000e+00
      outer loop
         vertex -3.799176e+01 4.210000e+01 4.732840e+00
         vertex -3.799176e+01 4.210000e+01 3.626648e+01
         vertex -2.639175e+01 4.210000e+01 4.732840e+00
      endloop
   endfacet
   facet normal 0.000000e+00 1.000000e+00 0.000000e+00
      outer loop
         vertex -3.799176e+01 4.210000e+01 3.626648e+01
         vertex 3.450824e+01 4.210000e+01 3.626648e+01
         vertex -2.639175e+01 4.210000e+01 4.732840e+00
      endloop
   endfacet
   facet normal 0.000000e+00 1.000000e+00 0.000000e+00
      outer loop
         vertex -2.639175e+01 4.210000e+01 4.732840e+00
         vertex 3.450824e+01 4.210000e+01 3.626648e+01
         vertex 2.290825e+01 4.210000e+01 4.732840e+00
      endloop
   endfacet
   facet normal 0.000000e+00 1.000000e+00 -0.000000e+00
      outer loop
         vertex 3.450824e+01 4.210000e+01 3.626648e+01
         vertex 3.450824e+01 4.210000e+01 4.732840e+00
         vertex 2.290825e+01 4.210000e+01 4.732840e+00
      endloop
   endfacet
   facet normal 0.000000e+00 1.000000e+00 0.000000e+00
      outer loop
         vertex 2.290825e+01 4.210000e+01 -5.276716e+01
         vertex -3.839175e+01 4.210000e+01 -5.376716e+01
         vertex -2.639175e+01 4.210000e+01 -5.276716e+01
      endloop
   endfacet
   facet normal -0.000000e+00 1.000000e+00 0.000000e+00
      outer loop
         vertex -3.839175e+01 4.210000e+01 -5.376716e+01
         vertex -3.839175e+01 4.210000e+01 -5.276716e+01
         vertex -2.639175e+01 4.210000e+01 -5.276716e+01
      endloop
   endfacet
   facet normal 0.000000e+00 0.000000e+00 1.000000e+00
      outer loop
         vertex -3.799176e+01 4.210000e+01 3.626648e+01
         vertex -3.799176e+01 -7.100000e+00 3.626648e+01
         vertex 3.450824e+01 -7.100000e+00 3.626648e+01
      endloop
   endfacet
   facet normal 0.000000e+00 -0.000000e+00 1.000000e+00
      outer loop
         vertex -3.799176e+01 4.210000e+01 3.626648e+01
         vertex 3.450824e+01 -7.100000e+00 3.626648e+01
         vertex 3.450824e+01 4.210000e+01 3.626648e+01
      endloop
   endfacet
   facet normal 0.000000e+00 0.000000e+00 -1.000000e+00
      outer loop
         vertex 3.450824e+01 4.210000e+01 4.732840e+00
         vertex 3.450824e+01 9.100000e+00 4.732840e+00
         vertex 2.290825e+01 9.100000e+00 4.732840e+00
      endloop
   endfacet
   facet normal 0.000000e+00 0.000000e+00 -1.000000e+00
      outer loop
         vertex 3.450824e+01 4.210000e+01 4.732840e+00
         vertex 2.290825e+01 9.100000e+00 4.732840e+00
         vertex 2.290825e+01 4.210000e+01 4.732840e+00
      endloop
   endfacet
   facet normal 0.000000e+00 0.000000e+00 -1.000000e+00
      outer loop
         vertex -2.539175e+01 9.100000e+00 -5.376716e+01
         vertex -3.839175e+01 9.100000e+00 -5.376716e+01
         vertex -2.539175e+01 4.050000e+01 -5.376716e+01
      endloop
   endfacet
   facet normal 0.000000e+00 0.000000e+00 -1.000000e+00
      outer loop
         vertex -3.839175e+01 9.100000e+00 -5.376716e+01
         vertex -3.839175e+01 4.210000e+01 -5.376716e+01
         vertex -2.539175e+01 4.050000e+01 -5.376716e+01
      endloop
   endfacet
   facet normal 0.000000e+00 0.000000e+00 -1.000000e+00
      outer loop
         vertex -2.539175e+01 4.050000e+01 -5.376716e+01
         vertex -3.839175e+01 4.210000e+01 -5.376716e+01
         vertex 2.190825e+01 4.050000e+01 -5.376716e+01
      endloop
   endfacet
   facet normal -0.000000e+00 0.000000e+00 -1.000000e+00
      outer loop
         vertex -3.839175e+01 4.210000e+01 -5.376716e+01
         vertex 3.490825e+01 4.210000e+01 -5.376716e+01
         vertex 2.190825e+01 4.050000e+01 -5.376716e+01
      endloop
   endfacet
   facet normal 0.000000e+00 0.000000e+00 -1.000000e+00
      outer loop
         vertex 2.190825e+01 4.050000e+01 -5.376716e+01
         vertex 3.490825e+01 4.210000e+01 -5.376716e+01
         vertex 2.190825e+01 9.100000e+00 -5.376716e+01
      endloop
   endfacet
   facet normal 0.000000e+00 0.000000e+00 -1.000000e+00
      outer loop
         vertex 3.490825e+01 4.210000e+01 -5.376716e+01
         vertex 3.490825e+01 9.100000e+00 -5.376716e+01
         vertex 2.190825e+01 9.100000e+00 -5.376716e+01
      endloop
   endfacet
   facet normal 0.000000e+00 0.000000e+00 -1.000000e+00
      outer loop
         vertex -2.639175e+01 4.210000e+01 4.732840e+00
         vertex -2.639175e+01 9.100000e+00 4.732840e+00
         vertex -3.799176e+01 9.100000e+00 4.732840e+00
      endloop
   endfacet
   facet normal 0.000000e+00 0.000000e+00 -1.000000e+00
      outer loop
         vertex -2.639175e+01 4.210000e+01 4.732840e+00
         vertex -3.799176e+01 9.100000e+00 4.732840e+00
         vertex -3.799176e+01 4.210000e+01 4.732840e+00
      endloop
   endfacet
   facet normal -1.000000e+00 0.000000e+00 0.000000e+00
      outer loop
         vertex -3.799176e+01 9.100000e+00 4.732840e+00
         vertex -3.799176e+01 9.100000e+00 6.032840e+00
         vertex -3.799176e+01 4.210000e+01 4.732840e+00
      endloop
   endfacet
   facet normal -1.000000e+00 0.000000e+00 0.000000e+00
      outer loop
         vertex -3.799176e+01 9.100000e+00 6.032840e+00
         vertex -3.799176e+01 -7.100000e+00 1.496648e+01
         vertex -3.799176e+01 4.210000e+01 4.732840e+00
      endloop
   endfacet
   facet normal -1.000000e+00 0.000000e+00 0.000000e+00
      outer loop
         vertex -3.799176e+01 4.210000e+01 4.732840e+00
         vertex -3.799176e+01 -7.100000e+00 1.496648e+01
         vertex -3.799176e+01 4.210000e+01 3.626648e+01
      endloop
   endfacet
   facet normal -1.000000e+00 0.000000e+00 0.000000e+00
      outer loop
         vertex -3.799176e+01 -7.100000e+00 1.496648e+01
         vertex -3.799176e+01 -7.100000e+00 3.626648e+01
         vertex -3.799176e+01 4.210000e+01 3.626648e+01
      endloop
   endfacet
   facet normal 0.000000e+00 0.000000e+00 1.000000e+00
      outer loop
         vertex 3.350824e+01 9.100000e+00 5.732840e+00
         vertex 3.350824e+01 4.050000e+01 5.732840e+00
         vertex 2.190825e+01 4.050000e+01 5.732840e+00
      endloop
   endfacet
   facet normal 0.000000e+00 0.000000e+00 1.000000e+00
      outer loop
         vertex 3.350824e+01 9.100000e+00 5.732840e+00
         vertex 2.190825e+01 4.050000e+01 5.732840e+00
         vertex 2.190825e+01 9.100000e+00 5.732840e+00
      endloop
   endfacet
   facet normal -1.000000e+00 -0.000000e+00 -0.000000e+00
      outer loop
         vertex 2.190825e+01 9.100000e+00 5.732840e+00
         vertex 2.190825e+01 4.050000e+01 5.732840e+00
         vertex 2.190825e+01 4.050000e+01 -5.376716e+01
      endloop
   endfacet
   facet normal -1.000000e+00 0.000000e+00 0.000000e+00
      outer loop
         vertex 2.190825e+01 9.100000e+00 5.732840e+00
         vertex 2.190825e+01 4.050000e+01 -5.376716e+01
         vertex 2.190825e+01 9.100000e+00 -5.376716e+01
      endloop
   endfacet
   facet normal 1.000000e+00 0.000000e+00 -0.000000e+00
      outer loop
         vertex -2.539175e+01 9.100000e+00 -5.376716e+01
         vertex -2.539175e+01 4.050000e+01 -5.376716e+01
         vertex -2.539175e+01 4.050000e+01 5.732840e+00
      endloop
   endfacet
   facet normal 1.000000e+00 0.000000e+00 0.000000e+00
      outer loop
         vertex -2.539175e+01 9.100000e+00 -5.376716e+01
         vertex -2.539175e+01 4.050000e+01 5.732840e+00
         vertex -2.539175e+01 9.100000e+00 5.732840e+00
      endloop
   endfacet
   facet normal 0.000000e+00 0.000000e+00 1.000000e+00
      outer loop
         vertex -2.539175e+01 9.100000e+00 5.732840e+00
         vertex -2.539175e+01 4.050000e+01 5.732840e+00
         vertex -3.699176e+01 4.050000e+01 5.732840e+00
      endloop
   endfacet
   facet normal 0.000000e+00 0.000000e+00 1.000000e+00
      outer loop
         vertex -2.539175e+01 9.100000e+00 5.732840e+00
         vertex -3.699176e+01 4.050000e+01 5.732840e+00
         vertex -3.699176e+01 9.100000e+00 5.732840e+00
      endloop
   endfacet
   facet normal -1.000000e+00 -0.000000e+00 0.000000e+00
      outer loop
         vertex 3.350824e+01 -7.100000e+00 3.526648e+01
         vertex 3.350824e+01 -1.390983e-15 2.271648e+01
         vertex 3.350824e+01 -7.100000e+00 1.496648e+01
      endloop
   endfacet
   facet normal -1.000000e+00 -0.000000e+00 0.000000e+00
      outer loop
         vertex 3.350824e+01 -1.390983e-15 2.271648e+01
         vertex 3.350824e+01 -9.317409e-16 1.521648e+01
         vertex 3.350824e+01 -7.100000e+00 1.496648e+01
      endloop
   endfacet
   facet normal -1.000000e+00 0.000000e+00 -0.000000e+00
      outer loop
         vertex 3.350824e+01 -7.100000e+00 1.496648e+01
         vertex 3.350824e+01 -9.317409e-16 1.521648e+01
         vertex 3.350824e+01 9.100000e+00 6.032840e+00
      endloop
   endfacet
   facet normal -1.000000e+00 -0.000000e+00 -0.000000e+00
      outer loop
         vertex 3.350824e+01 -9.317409e-16 1.521648e+01
         vertex 3.350824e+01 2.000000e+00 1.521648e+01
         vertex 3.350824e+01 9.100000e+00 6.032840e+00
      endloop
   endfacet
   facet normal -1.000000e+00 0.000000e+00 0.000000e+00
      outer loop
         vertex 3.350824e+01 2.000000e+00 1.521648e+01
         vertex 3.350824e+01 2.000000e+00 2.271648e+01
         vertex 3.350824e+01 9.100000e+00 6.032840e+00
      endloop
   endfacet
   facet normal -1.000000e+00 0.000000e+00 0.000000e+00
      outer loop
         vertex 3.350824e+01 -1.390983e-15 2.271648e+01
         vertex 3.350824e+01 -7.100000e+00 3.526648e+01
         vertex 3.350824e+01 2.000000e+00 2.271648e+01
      endloop
   endfacet
   facet normal -1.000000e+00 -0.000000e+00 0.000000e+00
      outer loop
         vertex 3.350824e+01 -7.100000e+00 3.526648e+01
         vertex 3.350824e+01 4.050000e+01 3.526648e+01
         vertex 3.350824e+01 2.000000e+00 2.271648e+01
      endloop
   endfacet
   facet normal -1.000000e+00 0.000000e+00 0.000000e+00
      outer loop
         vertex 3.350824e+01 4.050000e+01 3.526648e+01
         vertex 3.350824e+01 4.050000e+01 5.732840e+00
         vertex 3.350824e+01 2.000000e+00 2.271648e+01
      endloop
   endfacet
   facet normal -1.000000e+00 0.000000e+00 0.000000e+00
      outer loop
         vertex 3.350824e+01 2.000000e+00 2.271648e+01
         vertex 3.350824e+01 4.050000e+01 5.732840e+00
         vertex 3.350824e+01 9.100000e+00 6.032840e+00
      endloop
   endfacet
   facet normal -1.000000e+00 0.000000e+00 0.000000e+00
      outer loop
         vertex 3.350824e+01 4.050000e+01 5.732840e+00
         vertex 3.350824e+01 9.100000e+00 5.732840e+00
         vertex 3.350824e+01 9.100000e+00 6.032840e+00
      endloop
   endfacet
   facet normal 1.000000e+00 0.000000e+00 0.000000e+00
      outer loop
         vertex -3.699176e+01 9.100000e+00 5.732840e+00
         vertex -3.699176e+01 4.050000e+01 5.732840e+00
         vertex -3.699176e+01 9.100000e+00 6.032840e+00
      endloop
   endfacet
   facet normal 1.000000e+00 0.000000e+00 0.000000e+00
      outer loop
         vertex -3.699176e+01 4.050000e+01 5.732840e+00
         vertex -3.699176e+01 4.050000e+01 3.526648e+01
         vertex -3.699176e+01 9.100000e+00 6.032840e+00
      endloop
   endfacet
   facet normal 1.000000e+00 0.000000e+00 0.000000e+00
      outer loop
         vertex -3.699176e+01 9.100000e+00 6.032840e+00
         vertex -3.699176e+01 2.000000e+00 1.521648e+01
         vertex -3.699176e+01 -7.100000e+00 1.496648e+01
      endloop
   endfacet
   facet normal 1.000000e+00 -0.000000e+00 0.000000e+00
      outer loop
         vertex -3.699176e+01 2.000000e+00 1.521648e+01
         vertex -3.699176e+01 -9.317409e-16 1.521648e+01
         vertex -3.699176e+01 -7.100000e+00 1.496648e+01
      endloop
   endfacet
   facet normal 1.000000e+00 0.000000e+00 0.000000e+00
      outer loop
         vertex -3.699176e+01 -7.100000e+00 1.496648e+01
         vertex -3.699176e+01 -9.317409e-16 1.521648e+01
         vertex -3.699176e+01 -7.100000e+00 3.526648e+01
      endloop
   endfacet
   facet normal 1.000000e+00 0.000000e+00 0.000000e+00
      outer loop
         vertex -3.699176e+01 -9.317409e-16 1.521648e+01
         vertex -3.699176e+01 -1.390983e-15 2.271648e+01
         vertex -3.699176e+01 -7.100000e+00 3.526648e+01
      endloop
   endfacet
   facet normal 1.000000e+00 0.000000e+00 -0.000000e+00
      outer loop
         vertex -3.699176e+01 -7.100000e+00 3.526648e+01
         vertex -3.699176e+01 -1.390983e-15 2.271648e+01
         vertex -3.699176e+01 4.050000e+01 3.526648e+01
      endloop
   endfacet
   facet normal 1.000000e+00 0.000000e+00 -0.000000e+00
      outer loop
         vertex -3.699176e+01 -1.390983e-15 2.271648e+01
         vertex -3.699176e+01 2.000000e+00 2.271648e+01
         vertex -3.699176e+01 4.050000e+01 3.526648e+01
      endloop
   endfacet
   facet normal 1.000000e+00 -0.000000e+00 0.000000e+00
      outer loop
         vertex -3.699176e+01 4.050000e+01 3.526648e+01
         vertex -3.699176e+01 2.000000e+00 2.271648e+01
         vertex -3.699176e+01 9.100000e+00 6.032840e+00
      endloop
   endfacet
   facet normal 1.000000e+00 -0.000000e+00 0.000000e+00
      outer loop
         vertex -3.699176e+01 2.000000e+00 2.271648e+01
         vertex -3.699176e+01 2.000000e+00 1.521648e+01
         vertex -3.699176e+01 9.100000e+00 6.032840e+00
      endloop
   endfacet
   facet normal 0.000000e+00 0.000000e+00 -1.000000e+00
      outer loop
         vertex -3.699176e+01 -7.100000e+00 3.526648e+01
         vertex -3.699176e+01 4.050000e+01 3.526648e+01
         vertex 3.350824e+01 4.050000e+01 3.526648e+01
      endloop
   endfacet
   facet normal 0.000000e+00 -0.000000e+00 -1.000000e+00
      outer loop
         vertex -3.699176e+01 -7.100000e+00 3.526648e+01
         vertex 3.350824e+01 4.050000e+01 3.526648e+01
         vertex 3.350824e+01 -7.100000e+00 3.526648e+01
      endloop
   endfacet
   facet normal 0.000000e+00 -1.000000e+00 -0.000000e+00
      outer loop
         vertex 3.350824e+01 4.050000e+01 5.732840e+00
         vertex 3.350824e+01 4.050000e+01 3.526648e+01
         vertex 2.190825e+01 4.050000e+01 5.732840e+00
      endloop
   endfacet
   facet normal 0.000000e+00 -1.000000e+00 0.000000e+00
      outer loop
         vertex 3.350824e+01 4.050000e+01 3.526648e+01
         vertex -3.699176e+01 4.050000e+01 3.526648e+01
         vertex 2.190825e+01 4.050000e+01 5.732840e+00
      endloop
   endfacet
   facet normal 0.000000e+00 -1.000000e+00 0.000000e+00
      outer loop
         vertex 2.190825e+01 4.050000e+01 5.732840e+00
         vertex -3.699176e+01 4.050000e+01 3.526648e+01
         vertex 2.190825e+01 4.050000e+01 -5.376716e+01
      endloop
   endfacet
   facet normal 0.000000e+00 -1.000000e+00 0.000000e+00
      outer loop
         vertex -3.699176e+01 4.050000e+01 3.526648e+01
         vertex -2.539175e+01 4.050000e+01 5.732840e+00
         vertex 2.190825e+01 4.050000e+01 -5.376716e+01
      endloop
   endfacet
   facet normal 0.000000e+00 -1.000000e+00 0.000000e+00
      outer loop
         vertex 2.190825e+01 4.050000e+01 -5.376716e+01
         vertex -2.539175e+01 4.050000e+01 5.732840e+00
         vertex -2.539175e+01 4.050000e+01 -5.376716e+01
      endloop
   endfacet
   facet normal 0.000000e+00 -1.000000e+00 0.000000e+00
      outer loop
         vertex -2.539175e+01 4.050000e+01 5.732840e+00
         vertex -3.699176e+01 4.050000e+01 3.526648e+01
         vertex -3.699176e+01 4.050000e+01 5.732840e+00
      endloop
   endfacet
   facet normal 0.000000e+00 -1.000000e+00 -0.000000e+00
      outer loop
         vertex 3.450824e+01 -7.100000e+00 1.496648e+01
         vertex 3.450824e+01 -7.100000e+00 3.626648e+01
         vertex 3.350824e+01 -7.100000e+00 1.496648e+01
      endloop
   endfacet
   facet normal 0.000000e+00 -1.000000e+00 0.000000e+00
      outer loop
         vertex 3.450824e+01 -7.100000e+00 3.626648e+01
         vertex 3.350824e+01 -7.100000e+00 3.526648e+01
         vertex 3.350824e+01 -7.100000e+00 1.496648e+01
      endloop
   endfacet
   facet normal 0.000000e+00 -1.000000e+00 0.000000e+00
      outer loop
         vertex 3.350824e+01 -7.100000e+00 3.526648e+01
         vertex 3.450824e+01 -7.100000e+00 3.626648e+01
         vertex -3.699176e+01 -7.100000e+00 3.526648e+01
      endloop
   endfacet
   facet normal 0.000000e+00 -1.000000e+00 0.000000e+00
      outer loop
         vertex 3.450824e+01 -7.100000e+00 3.626648e+01
         vertex -3.799176e+01 -7.100000e+00 3.626648e+01
         vertex -3.699176e+01 -7.100000e+00 3.526648e+01
      endloop
   endfacet
   facet normal 0.000000e+00 -1.000000e+00 0.000000e+00
      outer loop
         vertex -3.699176e+01 -7.100000e+00 3.526648e+01
         vertex -3.799176e+01 -7.100000e+00 3.626648e+01
         vertex -3.699176e+01 -7.100000e+00 1.496648e+01
      endloop
   endfacet
   facet normal 0.000000e+00 -1.000000e+00 0.000000e+00
      outer loop
         vertex -3.799176e+01 -7.100000e+00 3.626648e+01
         vertex -3.799176e+01 -7.100000e+00 1.496648e+01
         vertex -3.699176e+01 -7.100000e+00 1.496648e+01
      endloop
   endfacet
   facet normal 0.000000e+00 -4.828997e-01 -8.756757e-01
      outer loop
         vertex 3.350824e+01 -7.100000e+00 1.496648e+01
         vertex 3.350824e+01 9.100000e+00 6.032840e+00
         vertex 3.450824e+01 9.100000e+00 6.032840e+00
      endloop
   endfacet
   facet normal 0.000000e+00 -4.828997e-01 -8.756757e-01
      outer loop
         vertex 3.350824e+01 -7.100000e+00 1.496648e+01
         vertex 3.450824e+01 9.100000e+00 6.032840e+00
         vertex 3.450824e+01 -7.100000e+00 1.496648e+01
      endloop
   endfacet
   facet normal 0.000000e+00 -1.000000e+00 -0.000000e+00
      outer loop
         vertex 3.450824e+01 9.100000e+00 4.732840e+00
         vertex 3.350824e+01 9.100000e+00 5.732840e+00
         vertex 2.290825e+01 9.100000e+00 4.732840e+00
      endloop
   endfacet
   facet normal 0.000000e+00 -1.000000e+00 0.000000e+00
      outer loop
         vertex 3.350824e+01 9.100000e+00 5.732840e+00
         vertex 2.190825e+01 9.100000e+00 5.732840e+00
         vertex 2.290825e+01 9.100000e+00 4.732840e+00
      endloop
   endfacet
   facet normal 0.000000e+00 -1.000000e+00 0.000000e+00
      outer loop
         vertex 2.290825e+01 9.100000e+00 4.732840e+00
         vertex 2.190825e+01 9.100000e+00 5.732840e+00
         vertex 2.290825e+01 9.100000e+00 -5.276716e+01
      endloop
   endfacet
   facet normal 0.000000e+00 -1.000000e+00 0.000000e+00
      outer loop
         vertex 2.190825e+01 9.100000e+00 5.732840e+00
         vertex 2.190825e+01 9.100000e+00 -5.376716e+01
         vertex 2.290825e+01 9.100000e+00 -5.276716e+01
      endloop
   endfacet
   facet normal 0.000000e+00 -1.000000e+00 0.000000e+00
      outer loop
         vertex 2.290825e+01 9.100000e+00 -5.276716e+01
         vertex 2.190825e+01 9.100000e+00 -5.376716e+01
         vertex 3.490825e+01 9.100000e+00 -5.276716e+01
      endloop
   endfacet
   facet normal 0.000000e+00 -1.000000e+00 0.000000e+00
      outer loop
         vertex 2.190825e+01 9.100000e+00 -5.376716e+01
         vertex 3.490825e+01 9.100000e+00 -5.376716e+01
         vertex 3.490825e+01 9.100000e+00 -5.276716e+01
      endloop
   endfacet
   facet normal 0.000000e+00 -1.000000e+00 0.000000e+00
      outer loop
         vertex 3.350824e+01 9.100000e+00 5.732840e+00
         vertex 3.450824e+01 9.100000e+00 4.732840e+00
         vertex 3.350824e+01 9.100000e+00 6.032840e+00
      endloop
   endfacet
   facet normal -0.000000e+00 -1.000000e+00 -0.000000e+00
      outer loop
         vertex 3.450824e+01 9.100000e+00 4.732840e+00
         vertex 3.450824e+01 9.100000e+00 6.032840e+00
         vertex 3.350824e+01 9.100000e+00 6.032840e+00
      endloop
   endfacet
   facet normal -1.000000e+00 0.000000e+00 0.000000e+00
      outer loop
         vertex -3.839175e+01 4.210000e+01 -5.376716e+01
         vertex -3.839175e+01 9.100000e+00 -5.376716e+01
         vertex -3.839175e+01 9.100000e+00 -5.276716e+01
      endloop
   endfacet
   facet normal -1.000000e+00 0.000000e+00 0.000000e+00
      outer loop
         vertex -3.839175e+01 4.210000e+01 -5.376716e+01
         vertex -3.839175e+01 9.100000e+00 -5.276716e+01
         vertex -3.839175e+01 4.210000e+01 -5.276716e+01
      endloop
   endfacet
   facet normal 0.000000e+00 0.000000e+00 1.000000e+00
      outer loop
         vertex -3.839175e+01 4.210000e+01 -5.276716e+01
         vertex -3.839175e+01 9.100000e+00 -5.276716e+01
         vertex -2.639175e+01 9.100000e+00 -5.276716e+01
      endloop
   endfacet
   facet normal 0.000000e+00 -0.000000e+00 1.000000e+00
      outer loop
         vertex -3.839175e+01 4.210000e+01 -5.276716e+01
         vertex -2.639175e+01 9.100000e+00 -5.276716e+01
         vertex -2.639175e+01 4.210000e+01 -5.276716e+01
      endloop
   endfacet
   facet normal -1.000000e+00 0.000000e+00 0.000000e+00
      outer loop
         vertex -2.639175e+01 4.210000e+01 -5.276716e+01
         vertex -2.639175e+01 9.100000e+00 -5.276716e+01
         vertex -2.639175e+01 9.100000e+00 4.732840e+00
      endloop
   endfacet
   facet normal -1.000000e+00 0.000000e+00 0.000000e+00
      outer loop
         vertex -2.639175e+01 4.210000e+01 -5.276716e+01
         vertex -2.639175e+01 9.100000e+00 4.732840e+00
         vertex -2.639175e+01 4.210000e+01 4.732840e+00
      endloop
   endfacet
   facet normal 1.000000e+00 -0.000000e+00 0.000000e+00
      outer loop
         vertex 2.290825e+01 4.210000e+01 4.732840e+00
         vertex 2.290825e+01 9.100000e+00 4.732840e+00
         vertex 2.290825e+01 9.100000e+00 -5.276716e+01
      endloop
   endfacet
   facet normal 1.000000e+00 0.000000e+00 0.000000e+00
      outer loop
         vertex 2.290825e+01 4.210000e+01 4.732840e+00
         vertex 2.290825e+01 9.100000e+00 -5.276716e+01
         vertex 2.290825e+01 4.210000e+01 -5.276716e+01
      endloop
   endfacet
   facet normal 0.000000e+00 0.000000e+00 1.000000e+00
      outer loop
         vertex 2.290825e+01 4.210000e+01 -5.276716e+01
         vertex 2.290825e+01 9.100000e+00 -5.276716e+01
         vertex 3.490825e+01 9.100000e+00 -5.276716e+01
      endloop
   endfacet
   facet normal 0.000000e+00 -0.000000e+00 1.000000e+00
      outer loop
         vertex 2.290825e+01 4.210000e+01 -5.276716e+01
         vertex 3.490825e+01 9.100000e+00 -5.276716e+01
         vertex 3.490825e+01 4.210000e+01 -5.276716e+01
      endloop
   endfacet
   facet normal 1.000000e+00 -0.000000e+00 0.000000e+00
      outer loop
         vertex 3.490825e+01 4.210000e+01 -5.276716e+01
         vertex 3.490825e+01 9.100000e+00 -5.276716e+01
         vertex 3.490825e+01 9.100000e+00 -5.376716e+01
      endloop
   endfacet
   facet normal 1.000000e+00 0.000000e+00 0.000000e+00
      outer loop
         vertex 3.490825e+01 4.210000e+01 -5.276716e+01
         vertex 3.490825e+01 9.100000e+00 -5.376716e+01
         vertex 3.490825e+01 4.210000e+01 -5.376716e+01
      endloop
   endfacet
   facet normal 0.000000e+00 -1.000000e+00 0.000000e+00
      outer loop
         vertex -3.699176e+01 9.100000e+00 6.032840e+00
         vertex -3.799176e+01 9.100000e+00 6.032840e+00
         vertex -3.699176e+01 9.100000e+00 5.732840e+00
      endloop
   endfacet
   facet normal 0.000000e+00 -1.000000e+00 0.000000e+00
      outer loop
         vertex -3.799176e+01 9.100000e+00 6.032840e+00
         vertex -3.799176e+01 9.100000e+00 4.732840e+00
         vertex -3.699176e+01 9.100000e+00 5.732840e+00
      endloop
   endfacet
   facet normal 0.000000e+00 -1.000000e+00 0.000000e+00
      outer loop
         vertex -3.699176e+01 9.100000e+00 5.732840e+00
         vertex -3.799176e+01 9.100000e+00 4.732840e+00
         vertex -2.539175e+01 9.100000e+00 5.732840e+00
      endloop
   endfacet
   facet normal 0.000000e+00 -1.000000e+00 0.000000e+00
      outer loop
         vertex -3.799176e+01 9.100000e+00 4.732840e+00
         vertex -2.639175e+01 9.100000e+00 4.732840e+00
         vertex -2.539175e+01 9.100000e+00 5.732840e+00
      endloop
   endfacet
   facet normal 0.000000e+00 -1.000000e+00 0.000000e+00
      outer loop
         vertex -2.539175e+01 9.100000e+00 5.732840e+00
         vertex -2.639175e+01 9.100000e+00 4.732840e+00
         vertex -2.539175e+01 9.100000e+00 -5.376716e+01
      endloop
   endfacet
   facet normal 0.000000e+00 -1.000000e+00 0.000000e+00
      outer loop
         vertex -2.639175e+01 9.100000e+00 4.732840e+00
         vertex -2.639175e+01 9.100000e+00 -5.276716e+01
         vertex -2.539175e+01 9.100000e+00 -5.376716e+01
      endloop
   endfacet
   facet normal 0.000000e+00 -1.000000e+00 -0.000000e+00
      outer loop
         vertex -2.539175e+01 9.100000e+00 -5.376716e+01
         vertex -2.639175e+01 9.100000e+00 -5.276716e+01
         vertex -3.839175e+01 9.100000e+00 -5.376716e+01
      endloop
   endfacet
   facet normal 0.000000e+00 -1.000000e+00 0.000000e+00
      outer loop
         vertex -2.639175e+01 9.100000e+00 -5.276716e+01
         vertex -3.839175e+01 9.100000e+00 -5.276716e+01
         vertex -3.839175e+01 9.100000e+00 -5.376716e+01
      endloop
   endfacet
   facet normal 0.000000e+00 -4.828997e-01 -8.756757e-01
      outer loop
         vertex -3.799176e+01 -7.100000e+00 1.496648e+01
         vertex -3.799176e+01 9.100000e+00 6.032840e+00
         vertex -3.699176e+01 9.100000e+00 6.032840e+00
      endloop
   endfacet
   facet normal 0.000000e+00 -4.828997e-01 -8.756757e-01
      outer loop
         vertex -3.799176e+01 -7.100000e+00 1.496648e+01
         vertex -3.699176e+01 9.100000e+00 6.032840e+00
         vertex -3.699176e+01 -7.100000e+00 1.496648e+01
      endloop
   endfacet
   facet normal -0.000000e+00 -1.000000e+00 -6.123234e-17
      outer loop
         vertex 2.200825e+01 -9.317409e-16 1.521648e+01
         vertex 3.350824e+01 -9.317409e-16 1.521648e+01
         vertex 3.350824e+01 -1.390983e-15 2.271648e+01
      endloop
   endfacet
   facet normal 0.000000e+00 -1.000000e+00 -6.123234e-17
      outer loop
         vertex 2.200825e+01 -1.390983e-15 2.271648e+01
         vertex 2.200825e+01 -9.317409e-16 1.521648e+01
         vertex 3.350824e+01 -1.390983e-15 2.271648e+01
      endloop
   endfacet
   facet normal -0.000000e+00 -0.000000e+00 -1.000000e+00
      outer loop
         vertex 2.200825e+01 2.000000e+00 1.521648e+01
         vertex 3.350824e+01 2.000000e+00 1.521648e+01
         vertex 3.350824e+01 -9.317409e-16 1.521648e+01
      endloop
   endfacet
   facet normal 0.000000e+00 0.000000e+00 -1.000000e+00
      outer loop
         vertex 2.200825e+01 2.000000e+00 1.521648e+01
         vertex 3.350824e+01 -9.317409e-16 1.521648e+01
         vertex 2.200825e+01 -9.317409e-16 1.521648e+01
      endloop
   endfacet
   facet normal 0.000000e+00 1.000000e+00 0.000000e+00
      outer loop
         vertex 2.200825e+01 2.000000e+00 2.271648e+01
         vertex 3.350824e+01 2.000000e+00 2.271648e+01
         vertex 3.350824e+01 2.000000e+00 1.521648e+01
      endloop
   endfacet
   facet normal 0.000000e+00 1.000000e+00 0.000000e+00
      outer loop
         vertex 2.200825e+01 2.000000e+00 2.271648e+01
         vertex 3.350824e+01 2.000000e+00 1.521648e+01
         vertex 2.200825e+01 2.000000e+00 1.521648e+01
      endloop
   endfacet
   facet normal 0.000000e+00 -0.000000e+00 1.000000e+00
      outer loop
         vertex 2.200825e+01 -1.390983e-15 2.271648e+01
         vertex 3.350824e+01 -1.390983e-15 2.271648e+01
         vertex 3.350824e+01 2.000000e+00 2.271648e+01
      endloop
   endfacet
   facet normal 0.000000e+00 0.000000e+00 1.000000e+00
      outer loop
         vertex 2.200825e+01 -1.390983e-15 2.271648e+01
         vertex 3.350824e+01 2.000000e+00 2.271648e+01
         vertex 2.200825e+01 2.000000e+00 2.271648e+01
      endloop
   endfacet
   facet normal 0.000000e+00 -1.000000e+00 -6.123234e-17
      outer loop
         vertex -2.549175e+01 -1.390983e-15 2.271648e+01
         vertex -3.699176e+01 -1.390983e-15 2.271648e+01
         vertex -3.699176e+01 -9.317409e-16 1.521648e+01
      endloop
   endfacet
   facet normal 0.000000e+00 -1.000000e+00 -6.123234e-17
      outer loop
         vertex -2.549175e+01 -9.317409e-16 1.521648e+01
         vertex -2.549175e+01 -1.390983e-15 2.271648e+01
         vertex -3.699176e+01 -9.317409e-16 1.521648e+01
      endloop
   endfacet
   facet normal -0.000000e+00 0.000000e+00 1.000000e+00
      outer loop
         vertex -2.549175e+01 2.000000e+00 2.271648e+01
         vertex -3.699176e+01 2.000000e+00 2.271648e+01
         vertex -3.699176e+01 -1.390983e-15 2.271648e+01
      endloop
   endfacet
   facet normal 0.000000e+00 0.000000e+00 1.000000e+00
      outer loop
         vertex -2.549175e+01 2.000000e+00 2.271648e+01
         vertex -3.699176e+01 -1.390983e-15 2.271648e+01
         vertex -2.549175e+01 -1.390983e-15 2.271648e+01
      endloop
   endfacet
   facet normal 0.000000e+00 1.000000e+00 0.000000e+00
      outer loop
         vertex -2.549175e+01 2.000000e+00 1.521648e+01
         vertex -3.699176e+01 2.000000e+00 1.521648e+01
         vertex -3.699176e+01 2.000000e+00 2.271648e+01
      endloop
   endfacet
   facet normal -0.000000e+00 1.000000e+00 0.000000e+00
      outer loop
         vertex -2.549175e+01 2.000000e+00 1.521648e+01
         vertex -3.699176e+01 2.000000e+00 2.271648e+01
         vertex -2.549175e+01 2.000000e+00 2.271648e+01
      endloop
   endfacet
   facet normal 0.000000e+00 0.000000e+00 -1.000000e+00
      outer loop
         vertex -2.549175e+01 -9.317409e-16 1.521648e+01
         vertex -3.699176e+01 -9.317409e-16 1.521648e+01
         vertex -3.699176e+01 2.000000e+00 1.521648e+01
      endloop
   endfacet
   facet normal 0.000000e+00 0.000000e+00 -1.000000e+00
      outer loop
         vertex -2.549175e+01 -9.317409e-16 1.521648e+01
         vertex -3.699176e+01 2.000000e+00 1.521648e+01
         vertex -2.549175e+01 2.000000e+00 1.521648e+01
      endloop
   endfacet
   facet normal -1.000000e+00 0.000000e+00 0.000000e+00
      outer loop
         vertex 2.200825e+01 2.000000e+00 1.521648e+01
         vertex 2.200825e+01 -9.317409e-16 1.521648e+01
         vertex 2.200825e+01 -1.390983e-15 2.271648e+01
      endloop
   endfacet
   facet normal -1.000000e+00 0.000000e+00 0.000000e+00
      outer loop
         vertex 2.200825e+01 2.000000e+00 1.521648e+01
         vertex 2.200825e+01 -1.390983e-15 2.271648e+01
         vertex 2.200825e+01 2.000000e+00 2.271648e+01
      endloop
   endfacet
   facet normal 1.000000e+00 -0.000000e+00 0.000000e+00
      outer loop
         vertex -2.549175e+01 2.000000e+00 2.271648e+01
         vertex -2.549175e+01 -1.390983e-15 2.271648e+01
         vertex -2.549175e+01 -9.317409e-16 1.521648e+01
      endloop
   endfacet
   facet normal 1.000000e+00 0.000000e+00 0.000000e+00
      outer loop
         vertex -2.549175e+01 2.000000e+00 2.271648e+01
         vertex -2.549175e+01 -9.317409e-16 1.521648e+01
         vertex -2.549175e+01 2.000000e+00 1.521648e+01
      endloop
   endfacet
endsolid
