solid 
   facet normal -9.594933e-01 -2.817316e-01 0.000000e+00
      outer loop
         vertex -3.131250e+01 -5.081250e+00 5.500000e+00
         vertex -3.092357e+01 -6.405820e+00 5.500000e+00
         vertex -3.092357e+01 -6.405820e+00 1.050000e+01
      endloop
   endfacet
   facet normal -9.594933e-01 -2.817316e-01 0.000000e+00
      outer loop
         vertex -3.131250e+01 -5.081250e+00 5.500000e+00
         vertex -3.092357e+01 -6.405820e+00 1.050000e+01
         vertex -3.131250e+01 -5.081250e+00 1.050000e+01
      endloop
   endfacet
   facet normal -6.548607e-01 -7.557496e-01 0.000000e+00
      outer loop
         vertex -3.092357e+01 -6.405820e+00 5.500000e+00
         vertex -2.988027e+01 -7.309849e+00 5.500000e+00
         vertex -2.988027e+01 -7.309849e+00 1.050000e+01
      endloop
   endfacet
   facet normal -6.548607e-01 -7.557496e-01 0.000000e+00
      outer loop
         vertex -3.092357e+01 -6.405820e+00 5.500000e+00
         vertex -2.988027e+01 -7.309849e+00 1.050000e+01
         vertex -3.092357e+01 -6.405820e+00 1.050000e+01
      endloop
   endfacet
   facet normal -1.423148e-01 -9.898214e-01 0.000000e+00
      outer loop
         vertex -2.988027e+01 -7.309849e+00 5.500000e+00
         vertex -2.851383e+01 -7.506313e+00 5.500000e+00
         vertex -2.851383e+01 -7.506313e+00 1.050000e+01
      endloop
   endfacet
   facet normal -1.423148e-01 -9.898214e-01 0.000000e+00
      outer loop
         vertex -2.988027e+01 -7.309849e+00 5.500000e+00
         vertex -2.851383e+01 -7.506313e+00 1.050000e+01
         vertex -2.988027e+01 -7.309849e+00 1.050000e+01
      endloop
   endfacet
   facet normal 4.154152e-01 -9.096319e-01 0.000000e+00
      outer loop
         vertex -2.851383e+01 -7.506313e+00 5.500000e+00
         vertex -2.725809e+01 -6.932837e+00 5.500000e+00
         vertex -2.725809e+01 -6.932837e+00 1.050000e+01
      endloop
   endfacet
   facet normal 4.154152e-01 -9.096319e-01 0.000000e+00
      outer loop
         vertex -2.851383e+01 -7.506313e+00 5.500000e+00
         vertex -2.725809e+01 -6.932837e+00 1.050000e+01
         vertex -2.851383e+01 -7.506313e+00 1.050000e+01
      endloop
   endfacet
   facet normal 8.412534e-01 -5.406410e-01 0.000000e+00
      outer loop
         vertex -2.725809e+01 -6.932837e+00 5.500000e+00
         vertex -2.651174e+01 -5.771495e+00 5.500000e+00
         vertex -2.651174e+01 -5.771495e+00 1.050000e+01
      endloop
   endfacet
   facet normal 8.412534e-01 -5.406410e-01 0.000000e+00
      outer loop
         vertex -2.725809e+01 -6.932837e+00 5.500000e+00
         vertex -2.651174e+01 -5.771495e+00 1.050000e+01
         vertex -2.725809e+01 -6.932837e+00 1.050000e+01
      endloop
   endfacet
   facet normal 1.000000e+00 0.000000e+00 -0.000000e+00
      outer loop
         vertex -2.651174e+01 -5.771495e+00 5.500000e+00
         vertex -2.651174e+01 -4.391006e+00 5.500000e+00
         vertex -2.651174e+01 -4.391006e+00 1.050000e+01
      endloop
   endfacet
   facet normal 1.000000e+00 0.000000e+00 0.000000e+00
      outer loop
         vertex -2.651174e+01 -5.771495e+00 5.500000e+00
         vertex -2.651174e+01 -4.391006e+00 1.050000e+01
         vertex -2.651174e+01 -5.771495e+00 1.050000e+01
      endloop
   endfacet
   facet normal 8.412534e-01 5.406410e-01 -0.000000e+00
      outer loop
         vertex -2.651174e+01 -4.391006e+00 5.500000e+00
         vertex -2.725809e+01 -3.229664e+00 5.500000e+00
         vertex -2.725809e+01 -3.229664e+00 1.050000e+01
      endloop
   endfacet
   facet normal 8.412534e-01 5.406410e-01 0.000000e+00
      outer loop
         vertex -2.651174e+01 -4.391006e+00 5.500000e+00
         vertex -2.725809e+01 -3.229664e+00 1.050000e+01
         vertex -2.651174e+01 -4.391006e+00 1.050000e+01
      endloop
   endfacet
   facet normal 4.154151e-01 9.096320e-01 -0.000000e+00
      outer loop
         vertex -2.725809e+01 -3.229664e+00 5.500000e+00
         vertex -2.851383e+01 -2.656188e+00 5.500000e+00
         vertex -2.851383e+01 -2.656188e+00 1.050000e+01
      endloop
   endfacet
   facet normal 4.154151e-01 9.096320e-01 0.000000e+00
      outer loop
         vertex -2.725809e+01 -3.229664e+00 5.500000e+00
         vertex -2.851383e+01 -2.656188e+00 1.050000e+01
         vertex -2.725809e+01 -3.229664e+00 1.050000e+01
      endloop
   endfacet
   facet normal -1.423148e-01 9.898214e-01 0.000000e+00
      outer loop
         vertex -2.851383e+01 -2.656188e+00 5.500000e+00
         vertex -2.988027e+01 -2.852652e+00 5.500000e+00
         vertex -2.988027e+01 -2.852652e+00 1.050000e+01
      endloop
   endfacet
   facet normal -1.423148e-01 9.898214e-01 0.000000e+00
      outer loop
         vertex -2.851383e+01 -2.656188e+00 5.500000e+00
         vertex -2.988027e+01 -2.852652e+00 1.050000e+01
         vertex -2.851383e+01 -2.656188e+00 1.050000e+01
      endloop
   endfacet
   facet normal -6.548607e-01 7.557496e-01 0.000000e+00
      outer loop
         vertex -2.988027e+01 -2.852652e+00 5.500000e+00
         vertex -3.092357e+01 -3.756680e+00 5.500000e+00
         vertex -3.092357e+01 -3.756680e+00 1.050000e+01
      endloop
   endfacet
   facet normal -6.548607e-01 7.557496e-01 0.000000e+00
      outer loop
         vertex -2.988027e+01 -2.852652e+00 5.500000e+00
         vertex -3.092357e+01 -3.756680e+00 1.050000e+01
         vertex -2.988027e+01 -2.852652e+00 1.050000e+01
      endloop
   endfacet
   facet normal -9.594932e-01 2.817316e-01 0.000000e+00
      outer loop
         vertex -3.092357e+01 -3.756680e+00 5.500000e+00
         vertex -3.131250e+01 -5.081250e+00 5.500000e+00
         vertex -3.131250e+01 -5.081250e+00 1.050000e+01
      endloop
   endfacet
   facet normal -9.594932e-01 2.817316e-01 0.000000e+00
      outer loop
         vertex -3.092357e+01 -3.756680e+00 5.500000e+00
         vertex -3.131250e+01 -5.081250e+00 1.050000e+01
         vertex -3.092357e+01 -3.756680e+00 1.050000e+01
      endloop
   endfacet
   facet normal 0.000000e+00 0.000000e+00 1.000000e+00
      outer loop
         vertex -3.092357e+01 -3.756680e+00 1.050000e+01
         vertex -3.131250e+01 -5.081250e+00 1.050000e+01
         vertex -2.988027e+01 -2.852652e+00 1.050000e+01
      endloop
   endfacet
   facet normal 0.000000e+00 -0.000000e+00 1.000000e+00
      outer loop
         vertex -3.131250e+01 -5.081250e+00 1.050000e+01
         vertex -3.092357e+01 -6.405820e+00 1.050000e+01
         vertex -2.988027e+01 -2.852652e+00 1.050000e+01
      endloop
   endfacet
   facet normal 0.000000e+00 0.000000e+00 1.000000e+00
      outer loop
         vertex -2.988027e+01 -2.852652e+00 1.050000e+01
         vertex -3.092357e+01 -6.405820e+00 1.050000e+01
         vertex -2.851383e+01 -2.656188e+00 1.050000e+01
      endloop
   endfacet
   facet normal 0.000000e+00 -0.000000e+00 1.000000e+00
      outer loop
         vertex -3.092357e+01 -6.405820e+00 1.050000e+01
         vertex -2.988027e+01 -7.309849e+00 1.050000e+01
         vertex -2.851383e+01 -2.656188e+00 1.050000e+01
      endloop
   endfacet
   facet normal 0.000000e+00 0.000000e+00 1.000000e+00
      outer loop
         vertex -2.851383e+01 -2.656188e+00 1.050000e+01
         vertex -2.988027e+01 -7.309849e+00 1.050000e+01
         vertex -2.725809e+01 -3.229664e+00 1.050000e+01
      endloop
   endfacet
   facet normal 0.000000e+00 -0.000000e+00 1.000000e+00
      outer loop
         vertex -2.988027e+01 -7.309849e+00 1.050000e+01
         vertex -2.851383e+01 -7.506313e+00 1.050000e+01
         vertex -2.725809e+01 -3.229664e+00 1.050000e+01
      endloop
   endfacet
   facet normal 0.000000e+00 0.000000e+00 1.000000e+00
      outer loop
         vertex -2.725809e+01 -3.229664e+00 1.050000e+01
         vertex -2.851383e+01 -7.506313e+00 1.050000e+01
         vertex -2.651174e+01 -4.391006e+00 1.050000e+01
      endloop
   endfacet
   facet normal 0.000000e+00 -0.000000e+00 1.000000e+00
      outer loop
         vertex -2.851383e+01 -7.506313e+00 1.050000e+01
         vertex -2.725809e+01 -6.932837e+00 1.050000e+01
         vertex -2.651174e+01 -4.391006e+00 1.050000e+01
      endloop
   endfacet
   facet normal 0.000000e+00 0.000000e+00 1.000000e+00
      outer loop
         vertex -2.651174e+01 -4.391006e+00 1.050000e+01
         vertex -2.725809e+01 -6.932837e+00 1.050000e+01
         vertex -2.651174e+01 -5.771495e+00 1.050000e+01
      endloop
   endfacet
   facet normal 0.000000e+00 0.000000e+00 -1.000000e+00
      outer loop
         vertex -3.092357e+01 -6.405820e+00 5.500000e+00
         vertex -3.131250e+01 -5.081250e+00 5.500000e+00
         vertex -2.988027e+01 -7.309849e+00 5.500000e+00
      endloop
   endfacet
   facet normal 0.000000e+00 -0.000000e+00 -1.000000e+00
      outer loop
         vertex -3.131250e+01 -5.081250e+00 5.500000e+00
         vertex -3.092357e+01 -3.756680e+00 5.500000e+00
         vertex -2.988027e+01 -7.309849e+00 5.500000e+00
      endloop
   endfacet
   facet normal 0.000000e+00 0.000000e+00 -1.000000e+00
      outer loop
         vertex -2.988027e+01 -7.309849e+00 5.500000e+00
         vertex -3.092357e+01 -3.756680e+00 5.500000e+00
         vertex -2.851383e+01 -7.506313e+00 5.500000e+00
      endloop
   endfacet
   facet normal 0.000000e+00 -0.000000e+00 -1.000000e+00
      outer loop
         vertex -3.092357e+01 -3.756680e+00 5.500000e+00
         vertex -2.988027e+01 -2.852652e+00 5.500000e+00
         vertex -2.851383e+01 -7.506313e+00 5.500000e+00
      endloop
   endfacet
   facet normal 0.000000e+00 0.000000e+00 -1.000000e+00
      outer loop
         vertex -2.851383e+01 -7.506313e+00 5.500000e+00
         vertex -2.988027e+01 -2.852652e+00 5.500000e+00
         vertex -2.725809e+01 -6.932837e+00 5.500000e+00
      endloop
   endfacet
   facet normal 0.000000e+00 -0.000000e+00 -1.000000e+00
      outer loop
         vertex -2.988027e+01 -2.852652e+00 5.500000e+00
         vertex -2.851383e+01 -2.656188e+00 5.500000e+00
         vertex -2.725809e+01 -6.932837e+00 5.500000e+00
      endloop
   endfacet
   facet normal 0.000000e+00 0.000000e+00 -1.000000e+00
      outer loop
         vertex -2.725809e+01 -6.932837e+00 5.500000e+00
         vertex -2.851383e+01 -2.656188e+00 5.500000e+00
         vertex -2.651174e+01 -5.771495e+00 5.500000e+00
      endloop
   endfacet
   facet normal -0.000000e+00 -0.000000e+00 -1.000000e+00
      outer loop
         vertex -2.851383e+01 -2.656188e+00 5.500000e+00
         vertex -2.725809e+01 -3.229664e+00 5.500000e+00
         vertex -2.651174e+01 -5.771495e+00 5.500000e+00
      endloop
   endfacet
   facet normal 0.000000e+00 0.000000e+00 -1.000000e+00
      outer loop
         vertex -2.651174e+01 -5.771495e+00 5.500000e+00
         vertex -2.725809e+01 -3.229664e+00 5.500000e+00
         vertex -2.651174e+01 -4.391006e+00 5.500000e+00
      endloop
   endfacet
   facet normal 2.044177e-15 0.000000e+00 -1.000000e+00
      outer loop
         vertex -1.321250e+01 -3.081250e+00 0.000000e+00
         vertex -1.321250e+01 4.187497e-01 0.000000e+00
         vertex -1.311250e+01 -3.081250e+00 2.044165e-16
      endloop
   endfacet
   facet normal -4.934316e-16 1.268826e-16 -1.000000e+00
      outer loop
         vertex -3.441250e+01 -3.081250e+00 -4.440892e-16
         vertex -3.531250e+01 -3.081250e+00 0.000000e+00
         vertex -3.441250e+01 4.187497e-01 0.000000e+00
      endloop
   endfacet
   facet normal 0.000000e+00 0.000000e+00 -1.000000e+00
      outer loop
         vertex -3.531250e+01 -3.081250e+00 0.000000e+00
         vertex -3.531250e+01 1.168750e+00 0.000000e+00
         vertex -3.441250e+01 4.187497e-01 0.000000e+00
      endloop
   endfacet
   facet normal -0.000000e+00 0.000000e+00 -1.000000e+00
      outer loop
         vertex -3.531250e+01 1.168750e+00 0.000000e+00
         vertex -1.231250e+01 1.168750e+00 0.000000e+00
         vertex -3.441250e+01 4.187497e-01 0.000000e+00
      endloop
   endfacet
   facet normal 0.000000e+00 0.000000e+00 -1.000000e+00
      outer loop
         vertex -3.441250e+01 4.187497e-01 0.000000e+00
         vertex -1.231250e+01 1.168750e+00 0.000000e+00
         vertex -1.321250e+01 4.187497e-01 0.000000e+00
      endloop
   endfacet
   facet normal 0.000000e+00 0.000000e+00 -1.000000e+00
      outer loop
         vertex -1.231250e+01 1.168750e+00 0.000000e+00
         vertex -1.231250e+01 -1.133125e+01 0.000000e+00
         vertex -1.321250e+01 4.187497e-01 0.000000e+00
      endloop
   endfacet
   facet normal -1.216146e-15 -9.315154e-17 -1.000000e+00
      outer loop
         vertex -1.321250e+01 4.187497e-01 0.000000e+00
         vertex -1.231250e+01 -1.133125e+01 0.000000e+00
         vertex -1.311250e+01 -3.081250e+00 2.044165e-16
      endloop
   endfacet
   facet normal -7.899144e-16 -5.182002e-17 -1.000000e+00
      outer loop
         vertex -1.231250e+01 -1.133125e+01 0.000000e+00
         vertex -1.311250e+01 -7.081250e+00 4.116966e-16
         vertex -1.311250e+01 -3.081250e+00 2.044165e-16
      endloop
   endfacet
   facet normal 4.116990e-15 8.718327e-16 -1.000000e+00
      outer loop
         vertex -1.311250e+01 -7.081250e+00 4.116966e-16
         vertex -1.231250e+01 -1.133125e+01 0.000000e+00
         vertex -1.321250e+01 -7.081250e+00 0.000000e+00
      endloop
   endfacet
   facet normal 0.000000e+00 0.000000e+00 -1.000000e+00
      outer loop
         vertex -1.231250e+01 -1.133125e+01 0.000000e+00
         vertex -1.321250e+01 -1.058125e+01 0.000000e+00
         vertex -1.321250e+01 -7.081250e+00 0.000000e+00
      endloop
   endfacet
   facet normal 0.000000e+00 0.000000e+00 -1.000000e+00
      outer loop
         vertex -1.321250e+01 -1.058125e+01 0.000000e+00
         vertex -1.231250e+01 -1.133125e+01 0.000000e+00
         vertex -3.441250e+01 -1.058125e+01 0.000000e+00
      endloop
   endfacet
   facet normal 0.000000e+00 0.000000e+00 -1.000000e+00
      outer loop
         vertex -1.231250e+01 -1.133125e+01 0.000000e+00
         vertex -3.531250e+01 -1.133125e+01 0.000000e+00
         vertex -3.441250e+01 -1.058125e+01 0.000000e+00
      endloop
   endfacet
   facet normal 1.057353e-16 -1.268826e-16 -1.000000e+00
      outer loop
         vertex -3.441250e+01 -1.058125e+01 0.000000e+00
         vertex -3.531250e+01 -1.133125e+01 0.000000e+00
         vertex -3.441250e+01 -7.081250e+00 -4.440892e-16
      endloop
   endfacet
   facet normal -4.934316e-16 -0.000000e+00 -1.000000e+00
      outer loop
         vertex -3.531250e+01 -1.133125e+01 0.000000e+00
         vertex -3.531250e+01 -7.081250e+00 0.000000e+00
         vertex -3.441250e+01 -7.081250e+00 -4.440892e-16
      endloop
   endfacet
   facet normal 1.000000e+00 0.000000e+00 0.000000e+00
      outer loop
         vertex -1.231250e+01 -1.133125e+01 5.500000e+00
         vertex -1.231250e+01 -1.133125e+01 0.000000e+00
         vertex -1.231250e+01 1.168750e+00 0.000000e+00
      endloop
   endfacet
   facet normal 1.000000e+00 0.000000e+00 -0.000000e+00
      outer loop
         vertex -1.231250e+01 -1.133125e+01 5.500000e+00
         vertex -1.231250e+01 1.168750e+00 0.000000e+00
         vertex -1.231250e+01 1.168750e+00 5.500000e+00
      endloop
   endfacet
   facet normal 0.000000e+00 1.000000e+00 -0.000000e+00
      outer loop
         vertex -1.231250e+01 1.168750e+00 5.500000e+00
         vertex -1.231250e+01 1.168750e+00 0.000000e+00
         vertex -3.531250e+01 1.168750e+00 0.000000e+00
      endloop
   endfacet
   facet normal 0.000000e+00 1.000000e+00 0.000000e+00
      outer loop
         vertex -1.231250e+01 1.168750e+00 5.500000e+00
         vertex -3.531250e+01 1.168750e+00 0.000000e+00
         vertex -3.531250e+01 1.168750e+00 5.500000e+00
      endloop
   endfacet
   facet normal 0.000000e+00 -1.000000e+00 0.000000e+00
      outer loop
         vertex -3.531250e+01 -1.133125e+01 5.500000e+00
         vertex -3.531250e+01 -1.133125e+01 0.000000e+00
         vertex -1.231250e+01 -1.133125e+01 0.000000e+00
      endloop
   endfacet
   facet normal 0.000000e+00 -1.000000e+00 0.000000e+00
      outer loop
         vertex -3.531250e+01 -1.133125e+01 5.500000e+00
         vertex -1.231250e+01 -1.133125e+01 0.000000e+00
         vertex -1.231250e+01 -1.133125e+01 5.500000e+00
      endloop
   endfacet
   facet normal 0.000000e+00 -0.000000e+00 1.000000e+00
      outer loop
         vertex -3.531250e+01 1.168750e+00 5.500000e+00
         vertex -3.371250e+01 3.187498e-01 5.500000e+00
         vertex -1.231250e+01 1.168750e+00 5.500000e+00
      endloop
   endfacet
   facet normal 0.000000e+00 -0.000000e+00 1.000000e+00
      outer loop
         vertex -3.371250e+01 3.187498e-01 5.500000e+00
         vertex -3.328823e+01 1.430138e-01 5.500000e+00
         vertex -1.231250e+01 1.168750e+00 5.500000e+00
      endloop
   endfacet
   facet normal -0.000000e+00 0.000000e+00 1.000000e+00
      outer loop
         vertex -1.231250e+01 1.168750e+00 5.500000e+00
         vertex -1.331250e+01 -2.812502e-01 5.500000e+00
         vertex -1.231250e+01 -1.133125e+01 5.500000e+00
      endloop
   endfacet
   facet normal -0.000000e+00 0.000000e+00 1.000000e+00
      outer loop
         vertex -1.331250e+01 -2.812502e-01 5.500000e+00
         vertex -1.348823e+01 -7.055143e-01 5.500000e+00
         vertex -1.231250e+01 -1.133125e+01 5.500000e+00
      endloop
   endfacet
   facet normal 0.000000e+00 0.000000e+00 1.000000e+00
      outer loop
         vertex -1.231250e+01 -1.133125e+01 5.500000e+00
         vertex -1.386250e+01 -1.058125e+01 5.500000e+00
         vertex -3.531250e+01 -1.133125e+01 5.500000e+00
      endloop
   endfacet
   facet normal 0.000000e+00 0.000000e+00 1.000000e+00
      outer loop
         vertex -1.386250e+01 -1.058125e+01 5.500000e+00
         vertex -1.432212e+01 -1.039087e+01 5.500000e+00
         vertex -3.531250e+01 -1.133125e+01 5.500000e+00
      endloop
   endfacet
   facet normal 0.000000e+00 0.000000e+00 1.000000e+00
      outer loop
         vertex -3.531250e+01 -1.133125e+01 5.500000e+00
         vertex -3.431250e+01 -9.881250e+00 5.500000e+00
         vertex -3.531250e+01 1.168750e+00 5.500000e+00
      endloop
   endfacet
   facet normal 0.000000e+00 0.000000e+00 1.000000e+00
      outer loop
         vertex -3.431250e+01 -9.881250e+00 5.500000e+00
         vertex -3.413676e+01 -9.456986e+00 5.500000e+00
         vertex -3.531250e+01 1.168750e+00 5.500000e+00
      endloop
   endfacet
   facet normal 0.000000e+00 -0.000000e+00 1.000000e+00
      outer loop
         vertex -3.531250e+01 1.168750e+00 5.500000e+00
         vertex -3.431250e+01 -2.812502e-01 5.500000e+00
         vertex -3.413676e+01 1.430138e-01 5.500000e+00
      endloop
   endfacet
   facet normal 0.000000e+00 0.000000e+00 1.000000e+00
      outer loop
         vertex -3.431250e+01 -2.812502e-01 5.500000e+00
         vertex -3.531250e+01 1.168750e+00 5.500000e+00
         vertex -3.413676e+01 -7.055143e-01 5.500000e+00
      endloop
   endfacet
   facet normal 0.000000e+00 -0.000000e+00 1.000000e+00
      outer loop
         vertex -3.531250e+01 1.168750e+00 5.500000e+00
         vertex -3.413676e+01 -9.456986e+00 5.500000e+00
         vertex -3.413676e+01 -7.055143e-01 5.500000e+00
      endloop
   endfacet
   facet normal 0.000000e+00 0.000000e+00 1.000000e+00
      outer loop
         vertex -3.413676e+01 -7.055143e-01 5.500000e+00
         vertex -3.413676e+01 -9.456986e+00 5.500000e+00
         vertex -3.371250e+01 -8.812503e-01 5.500000e+00
      endloop
   endfacet
   facet normal 0.000000e+00 -0.000000e+00 1.000000e+00
      outer loop
         vertex -3.413676e+01 -9.456986e+00 5.500000e+00
         vertex -3.371250e+01 -9.281250e+00 5.500000e+00
         vertex -3.371250e+01 -8.812503e-01 5.500000e+00
      endloop
   endfacet
   facet normal 0.000000e+00 0.000000e+00 1.000000e+00
      outer loop
         vertex -3.371250e+01 -8.812503e-01 5.500000e+00
         vertex -3.371250e+01 -9.281250e+00 5.500000e+00
         vertex -3.328823e+01 -7.055143e-01 5.500000e+00
      endloop
   endfacet
   facet normal 0.000000e+00 -0.000000e+00 1.000000e+00
      outer loop
         vertex -3.371250e+01 -9.281250e+00 5.500000e+00
         vertex -3.328823e+01 -9.456986e+00 5.500000e+00
         vertex -3.328823e+01 -7.055143e-01 5.500000e+00
      endloop
   endfacet
   facet normal 0.000000e+00 0.000000e+00 1.000000e+00
      outer loop
         vertex -3.328823e+01 -7.055143e-01 5.500000e+00
         vertex -3.328823e+01 -9.456986e+00 5.500000e+00
         vertex -3.311250e+01 -2.812502e-01 5.500000e+00
      endloop
   endfacet
   facet normal 0.000000e+00 -0.000000e+00 1.000000e+00
      outer loop
         vertex -3.328823e+01 -9.456986e+00 5.500000e+00
         vertex -3.311250e+01 -9.881250e+00 5.500000e+00
         vertex -3.311250e+01 -2.812502e-01 5.500000e+00
      endloop
   endfacet
   facet normal 0.000000e+00 0.000000e+00 1.000000e+00
      outer loop
         vertex -3.413676e+01 -1.030551e+01 5.500000e+00
         vertex -3.531250e+01 -1.133125e+01 5.500000e+00
         vertex -3.371250e+01 -1.048125e+01 5.500000e+00
      endloop
   endfacet
   facet normal 0.000000e+00 0.000000e+00 1.000000e+00
      outer loop
         vertex -3.531250e+01 -1.133125e+01 5.500000e+00
         vertex -1.432212e+01 -1.039087e+01 5.500000e+00
         vertex -3.371250e+01 -1.048125e+01 5.500000e+00
      endloop
   endfacet
   facet normal 0.000000e+00 0.000000e+00 1.000000e+00
      outer loop
         vertex -3.371250e+01 -1.048125e+01 5.500000e+00
         vertex -1.432212e+01 -1.039087e+01 5.500000e+00
         vertex -3.328823e+01 -1.030551e+01 5.500000e+00
      endloop
   endfacet
   facet normal 0.000000e+00 0.000000e+00 1.000000e+00
      outer loop
         vertex -1.432212e+01 -1.039087e+01 5.500000e+00
         vertex -1.451250e+01 -9.931251e+00 5.500000e+00
         vertex -3.328823e+01 -1.030551e+01 5.500000e+00
      endloop
   endfacet
   facet normal 0.000000e+00 0.000000e+00 1.000000e+00
      outer loop
         vertex -3.328823e+01 -1.030551e+01 5.500000e+00
         vertex -1.451250e+01 -9.931251e+00 5.500000e+00
         vertex -3.311250e+01 -9.881250e+00 5.500000e+00
      endloop
   endfacet
   facet normal 0.000000e+00 0.000000e+00 1.000000e+00
      outer loop
         vertex -1.451250e+01 -9.931251e+00 5.500000e+00
         vertex -1.432212e+01 -9.471631e+00 5.500000e+00
         vertex -3.311250e+01 -9.881250e+00 5.500000e+00
      endloop
   endfacet
   facet normal 0.000000e+00 0.000000e+00 1.000000e+00
      outer loop
         vertex -3.311250e+01 -9.881250e+00 5.500000e+00
         vertex -1.432212e+01 -9.471631e+00 5.500000e+00
         vertex -3.311250e+01 -2.812502e-01 5.500000e+00
      endloop
   endfacet
   facet normal 0.000000e+00 0.000000e+00 1.000000e+00
      outer loop
         vertex -1.432212e+01 -9.471631e+00 5.500000e+00
         vertex -1.386250e+01 -9.281250e+00 5.500000e+00
         vertex -3.311250e+01 -2.812502e-01 5.500000e+00
      endloop
   endfacet
   facet normal 0.000000e+00 0.000000e+00 1.000000e+00
      outer loop
         vertex -3.311250e+01 -2.812502e-01 5.500000e+00
         vertex -1.386250e+01 -9.281250e+00 5.500000e+00
         vertex -3.328823e+01 1.430138e-01 5.500000e+00
      endloop
   endfacet
   facet normal 0.000000e+00 0.000000e+00 1.000000e+00
      outer loop
         vertex -1.386250e+01 -9.281250e+00 5.500000e+00
         vertex -1.340288e+01 -9.471631e+00 5.500000e+00
         vertex -3.328823e+01 1.430138e-01 5.500000e+00
      endloop
   endfacet
   facet normal 0.000000e+00 -0.000000e+00 1.000000e+00
      outer loop
         vertex -3.328823e+01 1.430138e-01 5.500000e+00
         vertex -1.433676e+01 1.430138e-01 5.500000e+00
         vertex -1.231250e+01 1.168750e+00 5.500000e+00
      endloop
   endfacet
   facet normal 0.000000e+00 -0.000000e+00 1.000000e+00
      outer loop
         vertex -1.433676e+01 1.430138e-01 5.500000e+00
         vertex -1.391250e+01 3.187498e-01 5.500000e+00
         vertex -1.231250e+01 1.168750e+00 5.500000e+00
      endloop
   endfacet
   facet normal -0.000000e+00 0.000000e+00 1.000000e+00
      outer loop
         vertex -1.231250e+01 1.168750e+00 5.500000e+00
         vertex -1.391250e+01 3.187498e-01 5.500000e+00
         vertex -1.348823e+01 1.430138e-01 5.500000e+00
      endloop
   endfacet
   facet normal -0.000000e+00 0.000000e+00 1.000000e+00
      outer loop
         vertex -1.433676e+01 1.430138e-01 5.500000e+00
         vertex -3.328823e+01 1.430138e-01 5.500000e+00
         vertex -1.451250e+01 -2.812502e-01 5.500000e+00
      endloop
   endfacet
   facet normal 0.000000e+00 0.000000e+00 1.000000e+00
      outer loop
         vertex -1.331250e+01 -2.812502e-01 5.500000e+00
         vertex -1.231250e+01 1.168750e+00 5.500000e+00
         vertex -1.348823e+01 1.430138e-01 5.500000e+00
      endloop
   endfacet
   facet normal 0.000000e+00 0.000000e+00 1.000000e+00
      outer loop
         vertex -3.431250e+01 -9.881250e+00 5.500000e+00
         vertex -3.531250e+01 -1.133125e+01 5.500000e+00
         vertex -3.413676e+01 -1.030551e+01 5.500000e+00
      endloop
   endfacet
   facet normal 0.000000e+00 0.000000e+00 1.000000e+00
      outer loop
         vertex -3.371250e+01 3.187498e-01 5.500000e+00
         vertex -3.531250e+01 1.168750e+00 5.500000e+00
         vertex -3.413676e+01 1.430138e-01 5.500000e+00
      endloop
   endfacet
   facet normal 0.000000e+00 0.000000e+00 1.000000e+00
      outer loop
         vertex -1.386250e+01 -1.058125e+01 5.500000e+00
         vertex -1.231250e+01 -1.133125e+01 5.500000e+00
         vertex -1.340288e+01 -1.039087e+01 5.500000e+00
      endloop
   endfacet
   facet normal 0.000000e+00 0.000000e+00 1.000000e+00
      outer loop
         vertex -1.451250e+01 -2.812502e-01 5.500000e+00
         vertex -3.328823e+01 1.430138e-01 5.500000e+00
         vertex -1.433676e+01 -7.055143e-01 5.500000e+00
      endloop
   endfacet
   facet normal 0.000000e+00 0.000000e+00 1.000000e+00
      outer loop
         vertex -3.328823e+01 1.430138e-01 5.500000e+00
         vertex -1.340288e+01 -9.471631e+00 5.500000e+00
         vertex -1.433676e+01 -7.055143e-01 5.500000e+00
      endloop
   endfacet
   facet normal 0.000000e+00 0.000000e+00 1.000000e+00
      outer loop
         vertex -1.433676e+01 -7.055143e-01 5.500000e+00
         vertex -1.340288e+01 -9.471631e+00 5.500000e+00
         vertex -1.391250e+01 -8.812503e-01 5.500000e+00
      endloop
   endfacet
   facet normal 0.000000e+00 0.000000e+00 1.000000e+00
      outer loop
         vertex -1.340288e+01 -9.471631e+00 5.500000e+00
         vertex -1.321250e+01 -9.931251e+00 5.500000e+00
         vertex -1.391250e+01 -8.812503e-01 5.500000e+00
      endloop
   endfacet
   facet normal 0.000000e+00 0.000000e+00 1.000000e+00
      outer loop
         vertex -1.391250e+01 -8.812503e-01 5.500000e+00
         vertex -1.321250e+01 -9.931251e+00 5.500000e+00
         vertex -1.348823e+01 -7.055143e-01 5.500000e+00
      endloop
   endfacet
   facet normal 0.000000e+00 0.000000e+00 1.000000e+00
      outer loop
         vertex -1.340288e+01 -1.039087e+01 5.500000e+00
         vertex -1.231250e+01 -1.133125e+01 5.500000e+00
         vertex -1.321250e+01 -9.931251e+00 5.500000e+00
      endloop
   endfacet
   facet normal 0.000000e+00 0.000000e+00 1.000000e+00
      outer loop
         vertex -1.321250e+01 -9.931251e+00 5.500000e+00
         vertex -1.231250e+01 -1.133125e+01 5.500000e+00
         vertex -1.348823e+01 -7.055143e-01 5.500000e+00
      endloop
   endfacet
   facet normal 0.000000e+00 -1.000000e+00 0.000000e+00
      outer loop
         vertex -1.321250e+01 -3.081250e+00 0.000000e+00
         vertex -1.311250e+01 -3.081250e+00 0.000000e+00
         vertex -1.311250e+01 -3.081250e+00 1.500000e+00
      endloop
   endfacet
   facet normal 0.000000e+00 -1.000000e+00 0.000000e+00
      outer loop
         vertex -1.321250e+01 -3.081250e+00 1.500000e+00
         vertex -1.321250e+01 -3.081250e+00 0.000000e+00
         vertex -1.311250e+01 -3.081250e+00 1.500000e+00
      endloop
   endfacet
   facet normal -0.000000e+00 -0.000000e+00 -1.000000e+00
      outer loop
         vertex -1.321250e+01 -3.081250e+00 1.500000e+00
         vertex -1.311250e+01 -3.081250e+00 1.500000e+00
         vertex -1.311250e+01 -7.081250e+00 1.500000e+00
      endloop
   endfacet
   facet normal 0.000000e+00 0.000000e+00 -1.000000e+00
      outer loop
         vertex -1.321250e+01 -7.081250e+00 1.500000e+00
         vertex -1.321250e+01 -3.081250e+00 1.500000e+00
         vertex -1.311250e+01 -7.081250e+00 1.500000e+00
      endloop
   endfacet
   facet normal 0.000000e+00 1.000000e+00 0.000000e+00
      outer loop
         vertex -1.321250e+01 -7.081250e+00 1.500000e+00
         vertex -1.311250e+01 -7.081250e+00 1.500000e+00
         vertex -1.311250e+01 -7.081250e+00 8.881784e-16
      endloop
   endfacet
   facet normal 0.000000e+00 1.000000e+00 0.000000e+00
      outer loop
         vertex -1.321250e+01 -7.081250e+00 2.550650e-30
         vertex -1.321250e+01 -7.081250e+00 1.500000e+00
         vertex -1.311250e+01 -7.081250e+00 8.881784e-16
      endloop
   endfacet
   facet normal -1.000000e+00 0.000000e+00 0.000000e+00
      outer loop
         vertex -1.311250e+01 -3.081250e+00 3.773443e-16
         vertex -1.311250e+01 -7.081250e+00 9.158674e-16
         vertex -1.311250e+01 -7.081250e+00 1.500000e+00
      endloop
   endfacet
   facet normal -1.000000e+00 0.000000e+00 0.000000e+00
      outer loop
         vertex -1.311250e+01 -3.081250e+00 1.500000e+00
         vertex -1.311250e+01 -3.081250e+00 3.773443e-16
         vertex -1.311250e+01 -7.081250e+00 1.500000e+00
      endloop
   endfacet
   facet normal -1.000000e+00 0.000000e+00 0.000000e+00
      outer loop
         vertex -1.321250e+01 4.187497e-01 0.000000e+00
         vertex -1.321250e+01 -3.081250e+00 0.000000e+00
         vertex -1.321250e+01 4.187497e-01 4.200000e+00
      endloop
   endfacet
   facet normal -1.000000e+00 0.000000e+00 0.000000e+00
      outer loop
         vertex -1.321250e+01 -3.081250e+00 0.000000e+00
         vertex -1.321250e+01 -3.081250e+00 1.500000e+00
         vertex -1.321250e+01 4.187497e-01 4.200000e+00
      endloop
   endfacet
   facet normal -1.000000e+00 0.000000e+00 0.000000e+00
      outer loop
         vertex -1.321250e+01 4.187497e-01 4.200000e+00
         vertex -1.321250e+01 -3.081250e+00 1.500000e+00
         vertex -1.321250e+01 -9.931251e+00 4.200000e+00
      endloop
   endfacet
   facet normal -1.000000e+00 0.000000e+00 0.000000e+00
      outer loop
         vertex -1.321250e+01 -3.081250e+00 1.500000e+00
         vertex -1.321250e+01 -7.081250e+00 1.500000e+00
         vertex -1.321250e+01 -9.931251e+00 4.200000e+00
      endloop
   endfacet
   facet normal -1.000000e+00 0.000000e+00 0.000000e+00
      outer loop
         vertex -1.321250e+01 -9.931251e+00 4.200000e+00
         vertex -1.321250e+01 -7.081250e+00 1.500000e+00
         vertex -1.321250e+01 -1.058125e+01 4.200000e+00
      endloop
   endfacet
   facet normal -1.000000e+00 0.000000e+00 0.000000e+00
      outer loop
         vertex -1.321250e+01 -7.081250e+00 1.500000e+00
         vertex -1.321250e+01 -7.081250e+00 0.000000e+00
         vertex -1.321250e+01 -1.058125e+01 4.200000e+00
      endloop
   endfacet
   facet normal -1.000000e+00 0.000000e+00 0.000000e+00
      outer loop
         vertex -1.321250e+01 -1.058125e+01 4.200000e+00
         vertex -1.321250e+01 -7.081250e+00 0.000000e+00
         vertex -1.321250e+01 -1.058125e+01 0.000000e+00
      endloop
   endfacet
   facet normal 0.000000e+00 -1.000000e+00 0.000000e+00
      outer loop
         vertex -3.441250e+01 4.187497e-01 4.200000e+00
         vertex -3.441250e+01 4.187497e-01 0.000000e+00
         vertex -1.321250e+01 4.187497e-01 0.000000e+00
      endloop
   endfacet
   facet normal 0.000000e+00 -1.000000e+00 0.000000e+00
      outer loop
         vertex -1.321250e+01 4.187497e-01 4.200000e+00
         vertex -3.441250e+01 4.187497e-01 4.200000e+00
         vertex -1.321250e+01 4.187497e-01 0.000000e+00
      endloop
   endfacet
   facet normal 1.000000e+00 0.000000e+00 0.000000e+00
      outer loop
         vertex -3.441250e+01 -3.081250e+00 -4.440892e-16
         vertex -3.441250e+01 4.187497e-01 0.000000e+00
         vertex -3.441250e+01 -3.081250e+00 1.500000e+00
      endloop
   endfacet
   facet normal 1.000000e+00 0.000000e+00 0.000000e+00
      outer loop
         vertex -3.441250e+01 4.187497e-01 0.000000e+00
         vertex -3.441250e+01 4.187497e-01 4.200000e+00
         vertex -3.441250e+01 -3.081250e+00 1.500000e+00
      endloop
   endfacet
   facet normal 1.000000e+00 0.000000e+00 0.000000e+00
      outer loop
         vertex -3.441250e+01 -3.081250e+00 1.500000e+00
         vertex -3.441250e+01 4.187497e-01 4.200000e+00
         vertex -3.441250e+01 -7.081250e+00 1.500000e+00
      endloop
   endfacet
   facet normal 1.000000e+00 -0.000000e+00 0.000000e+00
      outer loop
         vertex -3.441250e+01 4.187497e-01 4.200000e+00
         vertex -3.441250e+01 -1.058125e+01 4.200000e+00
         vertex -3.441250e+01 -7.081250e+00 1.500000e+00
      endloop
   endfacet
   facet normal 1.000000e+00 0.000000e+00 0.000000e+00
      outer loop
         vertex -3.441250e+01 -7.081250e+00 1.500000e+00
         vertex -3.441250e+01 -1.058125e+01 4.200000e+00
         vertex -3.441250e+01 -7.081250e+00 -4.440892e-16
      endloop
   endfacet
   facet normal 1.000000e+00 -0.000000e+00 0.000000e+00
      outer loop
         vertex -3.441250e+01 -1.058125e+01 4.200000e+00
         vertex -3.441250e+01 -1.058125e+01 0.000000e+00
         vertex -3.441250e+01 -7.081250e+00 -4.440892e-16
      endloop
   endfacet
   facet normal 0.000000e+00 -1.000000e+00 0.000000e+00
      outer loop
         vertex -3.441250e+01 -3.081250e+00 1.500000e+00
         vertex -3.531250e+01 -3.081250e+00 1.500000e+00
         vertex -3.531250e+01 -3.081250e+00 0.000000e+00
      endloop
   endfacet
   facet normal 0.000000e+00 -1.000000e+00 -0.000000e+00
      outer loop
         vertex -3.441250e+01 -3.081250e+00 0.000000e+00
         vertex -3.441250e+01 -3.081250e+00 1.500000e+00
         vertex -3.531250e+01 -3.081250e+00 0.000000e+00
      endloop
   endfacet
   facet normal -1.000000e+00 0.000000e+00 0.000000e+00
      outer loop
         vertex -3.531250e+01 1.168750e+00 0.000000e+00
         vertex -3.531250e+01 -3.081250e+00 0.000000e+00
         vertex -3.531250e+01 1.168750e+00 5.500000e+00
      endloop
   endfacet
   facet normal -1.000000e+00 0.000000e+00 0.000000e+00
      outer loop
         vertex -3.531250e+01 -3.081250e+00 0.000000e+00
         vertex -3.531250e+01 -3.081250e+00 1.500000e+00
         vertex -3.531250e+01 1.168750e+00 5.500000e+00
      endloop
   endfacet
   facet normal -1.000000e+00 0.000000e+00 0.000000e+00
      outer loop
         vertex -3.531250e+01 1.168750e+00 5.500000e+00
         vertex -3.531250e+01 -3.081250e+00 1.500000e+00
         vertex -3.531250e+01 -1.133125e+01 5.500000e+00
      endloop
   endfacet
   facet normal -1.000000e+00 0.000000e+00 0.000000e+00
      outer loop
         vertex -3.531250e+01 -3.081250e+00 1.500000e+00
         vertex -3.531250e+01 -7.081250e+00 1.500000e+00
         vertex -3.531250e+01 -1.133125e+01 5.500000e+00
      endloop
   endfacet
   facet normal -1.000000e+00 -0.000000e+00 0.000000e+00
      outer loop
         vertex -3.531250e+01 -1.133125e+01 5.500000e+00
         vertex -3.531250e+01 -7.081250e+00 1.500000e+00
         vertex -3.531250e+01 -1.133125e+01 0.000000e+00
      endloop
   endfacet
   facet normal -1.000000e+00 0.000000e+00 0.000000e+00
      outer loop
         vertex -3.531250e+01 -7.081250e+00 1.500000e+00
         vertex -3.531250e+01 -7.081250e+00 0.000000e+00
         vertex -3.531250e+01 -1.133125e+01 0.000000e+00
      endloop
   endfacet
   facet normal 0.000000e+00 1.000000e+00 0.000000e+00
      outer loop
         vertex -3.441250e+01 -7.081250e+00 6.924446e-31
         vertex -3.531250e+01 -7.081250e+00 6.135585e-31
         vertex -3.531250e+01 -7.081250e+00 1.500000e+00
      endloop
   endfacet
   facet normal 0.000000e+00 1.000000e+00 -0.000000e+00
      outer loop
         vertex -3.441250e+01 -7.081250e+00 1.500000e+00
         vertex -3.441250e+01 -7.081250e+00 6.924446e-31
         vertex -3.531250e+01 -7.081250e+00 1.500000e+00
      endloop
   endfacet
   facet normal 0.000000e+00 1.000000e+00 -0.000000e+00
      outer loop
         vertex -1.321250e+01 -1.058125e+01 4.200000e+00
         vertex -1.321250e+01 -1.058125e+01 0.000000e+00
         vertex -1.386250e+01 -1.058125e+01 4.200000e+00
      endloop
   endfacet
   facet normal 0.000000e+00 1.000000e+00 0.000000e+00
      outer loop
         vertex -1.321250e+01 -1.058125e+01 0.000000e+00
         vertex -3.441250e+01 -1.058125e+01 0.000000e+00
         vertex -1.386250e+01 -1.058125e+01 4.200000e+00
      endloop
   endfacet
   facet normal 0.000000e+00 1.000000e+00 0.000000e+00
      outer loop
         vertex -1.386250e+01 -1.058125e+01 4.200000e+00
         vertex -3.441250e+01 -1.058125e+01 0.000000e+00
         vertex -3.441250e+01 -1.058125e+01 4.200000e+00
      endloop
   endfacet
   facet normal -9.659255e-01 2.588201e-01 0.000000e+00
      outer loop
         vertex -1.329958e+01 -1.025625e+01 4.200000e+00
         vertex -1.321250e+01 -9.931251e+00 5.500000e+00
         vertex -1.321250e+01 -9.931251e+00 4.200000e+00
      endloop
   endfacet
   facet normal -9.233525e-01 3.824660e-01 -3.376330e-02
      outer loop
         vertex -1.329958e+01 -1.025625e+01 4.200000e+00
         vertex -1.340288e+01 -1.039087e+01 5.500000e+00
         vertex -1.321250e+01 -9.931251e+00 5.500000e+00
      endloop
   endfacet
   facet normal -3.824643e-01 9.233532e-01 -3.376285e-02
      outer loop
         vertex -1.353750e+01 -1.049417e+01 4.200000e+00
         vertex -1.386250e+01 -1.058125e+01 5.500000e+00
         vertex -1.340288e+01 -1.039087e+01 5.500000e+00
      endloop
   endfacet
   facet normal 3.826169e-01 9.237215e-01 -1.851524e-02
      outer loop
         vertex -1.426777e+01 -1.043944e+01 4.200000e+00
         vertex -1.432212e+01 -1.039087e+01 5.500000e+00
         vertex -1.386250e+01 -1.058125e+01 5.500000e+00
      endloop
   endfacet
   facet normal 9.234364e-01 3.824988e-01 -3.098092e-02
      outer loop
         vertex -1.449620e+01 -1.007589e+01 4.200000e+00
         vertex -1.451250e+01 -9.931251e+00 5.500000e+00
         vertex -1.432212e+01 -1.039087e+01 5.500000e+00
      endloop
   endfacet
   facet normal 9.232388e-01 -3.824169e-01 -3.724759e-02
      outer loop
         vertex -1.444813e+01 -9.649226e+00 4.200000e+00
         vertex -1.432212e+01 -9.471631e+00 5.500000e+00
         vertex -1.451250e+01 -9.931251e+00 5.500000e+00
      endloop
   endfacet
   facet normal 3.824186e-01 -9.232381e-01 -3.724798e-02
      outer loop
         vertex -1.414452e+01 -9.345620e+00 4.200000e+00
         vertex -1.386250e+01 -9.281250e+00 5.500000e+00
         vertex -1.432212e+01 -9.471631e+00 5.500000e+00
      endloop
   endfacet
   facet normal -3.825004e-01 -9.234358e-01 -3.098072e-02
      outer loop
         vertex -1.371786e+01 -9.297547e+00 4.200000e+00
         vertex -1.340288e+01 -9.471631e+00 5.500000e+00
         vertex -1.386250e+01 -9.281250e+00 5.500000e+00
      endloop
   endfacet
   facet normal -9.237209e-01 -3.826185e-01 -1.851611e-02
      outer loop
         vertex -1.335431e+01 -9.525982e+00 4.200000e+00
         vertex -1.321250e+01 -9.931251e+00 5.500000e+00
         vertex -1.340288e+01 -9.471631e+00 5.500000e+00
      endloop
   endfacet
   facet normal -9.438835e-01 -3.302787e-01 0.000000e+00
      outer loop
         vertex -1.335431e+01 -9.525982e+00 4.200000e+00
         vertex -1.321250e+01 -9.931251e+00 4.200000e+00
         vertex -1.321250e+01 -9.931251e+00 5.500000e+00
      endloop
   endfacet
   facet normal -5.319674e-01 -8.466226e-01 1.552012e-02
      outer loop
         vertex -1.340288e+01 -9.471631e+00 5.500000e+00
         vertex -1.371786e+01 -9.297547e+00 4.200000e+00
         vertex -1.335431e+01 -9.525982e+00 4.200000e+00
      endloop
   endfacet
   facet normal 1.119284e-01 -9.934041e-01 2.490696e-02
      outer loop
         vertex -1.386250e+01 -9.281250e+00 5.500000e+00
         vertex -1.414452e+01 -9.345620e+00 4.200000e+00
         vertex -1.371786e+01 -9.297547e+00 4.200000e+00
      endloop
   endfacet
   facet normal 7.068297e-01 -7.068275e-01 2.804735e-02
      outer loop
         vertex -1.432212e+01 -9.471631e+00 5.500000e+00
         vertex -1.444813e+01 -9.649226e+00 4.200000e+00
         vertex -1.414452e+01 -9.345620e+00 4.200000e+00
      endloop
   endfacet
   facet normal 9.934038e-01 -1.119308e-01 2.490642e-02
      outer loop
         vertex -1.451250e+01 -9.931251e+00 5.500000e+00
         vertex -1.449620e+01 -1.007589e+01 4.200000e+00
         vertex -1.444813e+01 -9.649226e+00 4.200000e+00
      endloop
   endfacet
   facet normal 8.466216e-01 5.319690e-01 1.552103e-02
      outer loop
         vertex -1.432212e+01 -1.039087e+01 5.500000e+00
         vertex -1.426777e+01 -1.043944e+01 4.200000e+00
         vertex -1.449620e+01 -1.007589e+01 4.200000e+00
      endloop
   endfacet
   facet normal 3.302794e-01 9.438832e-01 -0.000000e+00
      outer loop
         vertex -1.386250e+01 -1.058125e+01 5.500000e+00
         vertex -1.386250e+01 -1.058125e+01 4.200000e+00
         vertex -1.426777e+01 -1.043944e+01 4.200000e+00
      endloop
   endfacet
   facet normal -2.588201e-01 9.659255e-01 0.000000e+00
      outer loop
         vertex -1.386250e+01 -1.058125e+01 5.500000e+00
         vertex -1.353750e+01 -1.049417e+01 4.200000e+00
         vertex -1.386250e+01 -1.058125e+01 4.200000e+00
      endloop
   endfacet
   facet normal -7.070028e-01 7.070056e-01 1.703497e-02
      outer loop
         vertex -1.340288e+01 -1.039087e+01 5.500000e+00
         vertex -1.329958e+01 -1.025625e+01 4.200000e+00
         vertex -1.353750e+01 -1.049417e+01 4.200000e+00
      endloop
   endfacet
   facet normal 9.238799e-01 -3.826826e-01 0.000000e+00
      outer loop
         vertex -3.413676e+01 1.430138e-01 4.200000e+00
         vertex -3.413676e+01 1.430138e-01 5.500000e+00
         vertex -3.431250e+01 -2.812502e-01 5.500000e+00
      endloop
   endfacet
   facet normal 9.238799e-01 -3.826826e-01 0.000000e+00
      outer loop
         vertex -3.431250e+01 -2.812502e-01 4.200000e+00
         vertex -3.413676e+01 1.430138e-01 4.200000e+00
         vertex -3.431250e+01 -2.812502e-01 5.500000e+00
      endloop
   endfacet
   facet normal 3.826813e-01 -9.238804e-01 0.000000e+00
      outer loop
         vertex -3.371250e+01 3.187498e-01 4.200000e+00
         vertex -3.371250e+01 3.187498e-01 5.500000e+00
         vertex -3.413676e+01 1.430138e-01 5.500000e+00
      endloop
   endfacet
   facet normal 3.826813e-01 -9.238804e-01 0.000000e+00
      outer loop
         vertex -3.413676e+01 1.430138e-01 4.200000e+00
         vertex -3.371250e+01 3.187498e-01 4.200000e+00
         vertex -3.413676e+01 1.430138e-01 5.500000e+00
      endloop
   endfacet
   facet normal -3.826842e-01 -9.238792e-01 -0.000000e+00
      outer loop
         vertex -3.328823e+01 1.430138e-01 4.200000e+00
         vertex -3.328823e+01 1.430138e-01 5.500000e+00
         vertex -3.371250e+01 3.187498e-01 5.500000e+00
      endloop
   endfacet
   facet normal -3.826842e-01 -9.238792e-01 0.000000e+00
      outer loop
         vertex -3.371250e+01 3.187498e-01 4.200000e+00
         vertex -3.328823e+01 1.430138e-01 4.200000e+00
         vertex -3.371250e+01 3.187498e-01 5.500000e+00
      endloop
   endfacet
   facet normal -9.238799e-01 -3.826826e-01 -0.000000e+00
      outer loop
         vertex -3.311250e+01 -2.812502e-01 4.200000e+00
         vertex -3.311250e+01 -2.812502e-01 5.500000e+00
         vertex -3.328823e+01 1.430138e-01 5.500000e+00
      endloop
   endfacet
   facet normal -9.238799e-01 -3.826826e-01 0.000000e+00
      outer loop
         vertex -3.328823e+01 1.430138e-01 4.200000e+00
         vertex -3.311250e+01 -2.812502e-01 4.200000e+00
         vertex -3.328823e+01 1.430138e-01 5.500000e+00
      endloop
   endfacet
   facet normal -9.238799e-01 3.826826e-01 0.000000e+00
      outer loop
         vertex -3.328823e+01 -7.055143e-01 4.200000e+00
         vertex -3.328823e+01 -7.055143e-01 5.500000e+00
         vertex -3.311250e+01 -2.812502e-01 5.500000e+00
      endloop
   endfacet
   facet normal -9.238799e-01 3.826826e-01 0.000000e+00
      outer loop
         vertex -3.311250e+01 -2.812502e-01 4.200000e+00
         vertex -3.328823e+01 -7.055143e-01 4.200000e+00
         vertex -3.311250e+01 -2.812502e-01 5.500000e+00
      endloop
   endfacet
   facet normal -3.826843e-01 9.238792e-01 0.000000e+00
      outer loop
         vertex -3.371250e+01 -8.812503e-01 4.200000e+00
         vertex -3.371250e+01 -8.812503e-01 5.500000e+00
         vertex -3.328823e+01 -7.055143e-01 5.500000e+00
      endloop
   endfacet
   facet normal -3.826843e-01 9.238792e-01 0.000000e+00
      outer loop
         vertex -3.328823e+01 -7.055143e-01 4.200000e+00
         vertex -3.371250e+01 -8.812503e-01 4.200000e+00
         vertex -3.328823e+01 -7.055143e-01 5.500000e+00
      endloop
   endfacet
   facet normal 3.826814e-01 9.238804e-01 0.000000e+00
      outer loop
         vertex -3.413676e+01 -7.055143e-01 4.200000e+00
         vertex -3.413676e+01 -7.055143e-01 5.500000e+00
         vertex -3.371250e+01 -8.812503e-01 5.500000e+00
      endloop
   endfacet
   facet normal 3.826814e-01 9.238804e-01 0.000000e+00
      outer loop
         vertex -3.371250e+01 -8.812503e-01 4.200000e+00
         vertex -3.413676e+01 -7.055143e-01 4.200000e+00
         vertex -3.371250e+01 -8.812503e-01 5.500000e+00
      endloop
   endfacet
   facet normal 9.238799e-01 3.826826e-01 0.000000e+00
      outer loop
         vertex -3.431250e+01 -2.812502e-01 4.200000e+00
         vertex -3.431250e+01 -2.812502e-01 5.500000e+00
         vertex -3.413676e+01 -7.055143e-01 5.500000e+00
      endloop
   endfacet
   facet normal 9.238799e-01 3.826826e-01 0.000000e+00
      outer loop
         vertex -3.413676e+01 -7.055143e-01 4.200000e+00
         vertex -3.431250e+01 -2.812502e-01 4.200000e+00
         vertex -3.413676e+01 -7.055143e-01 5.500000e+00
      endloop
   endfacet
   facet normal 9.238798e-01 -3.826827e-01 0.000000e+00
      outer loop
         vertex -3.413676e+01 -9.456986e+00 4.200000e+00
         vertex -3.413676e+01 -9.456986e+00 5.500000e+00
         vertex -3.431250e+01 -9.881250e+00 5.500000e+00
      endloop
   endfacet
   facet normal 9.238798e-01 -3.826827e-01 0.000000e+00
      outer loop
         vertex -3.431250e+01 -9.881250e+00 4.200000e+00
         vertex -3.413676e+01 -9.456986e+00 4.200000e+00
         vertex -3.431250e+01 -9.881250e+00 5.500000e+00
      endloop
   endfacet
   facet normal 3.826822e-01 -9.238800e-01 0.000000e+00
      outer loop
         vertex -3.371250e+01 -9.281250e+00 4.200000e+00
         vertex -3.371250e+01 -9.281250e+00 5.500000e+00
         vertex -3.413676e+01 -9.456986e+00 5.500000e+00
      endloop
   endfacet
   facet normal 3.826822e-01 -9.238800e-01 0.000000e+00
      outer loop
         vertex -3.413676e+01 -9.456986e+00 4.200000e+00
         vertex -3.371250e+01 -9.281250e+00 4.200000e+00
         vertex -3.413676e+01 -9.456986e+00 5.500000e+00
      endloop
   endfacet
   facet normal -3.826852e-01 -9.238788e-01 -0.000000e+00
      outer loop
         vertex -3.328823e+01 -9.456986e+00 4.200000e+00
         vertex -3.328823e+01 -9.456986e+00 5.500000e+00
         vertex -3.371250e+01 -9.281250e+00 5.500000e+00
      endloop
   endfacet
   facet normal -3.826852e-01 -9.238788e-01 0.000000e+00
      outer loop
         vertex -3.371250e+01 -9.281250e+00 4.200000e+00
         vertex -3.328823e+01 -9.456986e+00 4.200000e+00
         vertex -3.371250e+01 -9.281250e+00 5.500000e+00
      endloop
   endfacet
   facet normal -9.238798e-01 -3.826827e-01 -0.000000e+00
      outer loop
         vertex -3.311250e+01 -9.881250e+00 4.200000e+00
         vertex -3.311250e+01 -9.881250e+00 5.500000e+00
         vertex -3.328823e+01 -9.456986e+00 5.500000e+00
      endloop
   endfacet
   facet normal -9.238798e-01 -3.826827e-01 0.000000e+00
      outer loop
         vertex -3.328823e+01 -9.456986e+00 4.200000e+00
         vertex -3.311250e+01 -9.881250e+00 4.200000e+00
         vertex -3.328823e+01 -9.456986e+00 5.500000e+00
      endloop
   endfacet
   facet normal -9.238798e-01 3.826827e-01 0.000000e+00
      outer loop
         vertex -3.328823e+01 -1.030551e+01 4.200000e+00
         vertex -3.328823e+01 -1.030551e+01 5.500000e+00
         vertex -3.311250e+01 -9.881250e+00 5.500000e+00
      endloop
   endfacet
   facet normal -9.238798e-01 3.826827e-01 0.000000e+00
      outer loop
         vertex -3.311250e+01 -9.881250e+00 4.200000e+00
         vertex -3.328823e+01 -1.030551e+01 4.200000e+00
         vertex -3.311250e+01 -9.881250e+00 5.500000e+00
      endloop
   endfacet
   facet normal -3.826834e-01 9.238795e-01 0.000000e+00
      outer loop
         vertex -3.371250e+01 -1.048125e+01 4.200000e+00
         vertex -3.371250e+01 -1.048125e+01 5.500000e+00
         vertex -3.328823e+01 -1.030551e+01 5.500000e+00
      endloop
   endfacet
   facet normal -3.826834e-01 9.238795e-01 0.000000e+00
      outer loop
         vertex -3.328823e+01 -1.030551e+01 4.200000e+00
         vertex -3.371250e+01 -1.048125e+01 4.200000e+00
         vertex -3.328823e+01 -1.030551e+01 5.500000e+00
      endloop
   endfacet
   facet normal 3.826805e-01 9.238808e-01 0.000000e+00
      outer loop
         vertex -3.413676e+01 -1.030551e+01 4.200000e+00
         vertex -3.413676e+01 -1.030551e+01 5.500000e+00
         vertex -3.371250e+01 -1.048125e+01 5.500000e+00
      endloop
   endfacet
   facet normal 3.826805e-01 9.238808e-01 0.000000e+00
      outer loop
         vertex -3.371250e+01 -1.048125e+01 4.200000e+00
         vertex -3.413676e+01 -1.030551e+01 4.200000e+00
         vertex -3.371250e+01 -1.048125e+01 5.500000e+00
      endloop
   endfacet
   facet normal 9.238798e-01 3.826827e-01 0.000000e+00
      outer loop
         vertex -3.431250e+01 -9.881250e+00 4.200000e+00
         vertex -3.431250e+01 -9.881250e+00 5.500000e+00
         vertex -3.413676e+01 -1.030551e+01 5.500000e+00
      endloop
   endfacet
   facet normal 9.238798e-01 3.826827e-01 0.000000e+00
      outer loop
         vertex -3.413676e+01 -1.030551e+01 4.200000e+00
         vertex -3.431250e+01 -9.881250e+00 4.200000e+00
         vertex -3.413676e+01 -1.030551e+01 5.500000e+00
      endloop
   endfacet
   facet normal -9.238799e-01 3.826826e-01 0.000000e+00
      outer loop
         vertex -1.348823e+01 -7.055143e-01 4.200000e+00
         vertex -1.348823e+01 -7.055143e-01 5.500000e+00
         vertex -1.331250e+01 -2.812502e-01 5.500000e+00
      endloop
   endfacet
   facet normal -9.238799e-01 3.826826e-01 0.000000e+00
      outer loop
         vertex -1.331250e+01 -2.812502e-01 4.200000e+00
         vertex -1.348823e+01 -7.055143e-01 4.200000e+00
         vertex -1.331250e+01 -2.812502e-01 5.500000e+00
      endloop
   endfacet
   facet normal -3.826828e-01 9.238798e-01 0.000000e+00
      outer loop
         vertex -1.391250e+01 -8.812503e-01 4.200000e+00
         vertex -1.391250e+01 -8.812503e-01 5.500000e+00
         vertex -1.348823e+01 -7.055143e-01 5.500000e+00
      endloop
   endfacet
   facet normal -3.826828e-01 9.238798e-01 0.000000e+00
      outer loop
         vertex -1.348823e+01 -7.055143e-01 4.200000e+00
         vertex -1.391250e+01 -8.812503e-01 4.200000e+00
         vertex -1.348823e+01 -7.055143e-01 5.500000e+00
      endloop
   endfacet
   facet normal 3.826836e-01 9.238795e-01 0.000000e+00
      outer loop
         vertex -1.433676e+01 -7.055143e-01 4.200000e+00
         vertex -1.433676e+01 -7.055143e-01 5.500000e+00
         vertex -1.391250e+01 -8.812503e-01 5.500000e+00
      endloop
   endfacet
   facet normal 3.826836e-01 9.238795e-01 0.000000e+00
      outer loop
         vertex -1.391250e+01 -8.812503e-01 4.200000e+00
         vertex -1.433676e+01 -7.055143e-01 4.200000e+00
         vertex -1.391250e+01 -8.812503e-01 5.500000e+00
      endloop
   endfacet
   facet normal 9.238799e-01 3.826826e-01 0.000000e+00
      outer loop
         vertex -1.451250e+01 -2.812502e-01 4.200000e+00
         vertex -1.451250e+01 -2.812502e-01 5.500000e+00
         vertex -1.433676e+01 -7.055143e-01 5.500000e+00
      endloop
   endfacet
   facet normal 9.238799e-01 3.826826e-01 0.000000e+00
      outer loop
         vertex -1.433676e+01 -7.055143e-01 4.200000e+00
         vertex -1.451250e+01 -2.812502e-01 4.200000e+00
         vertex -1.433676e+01 -7.055143e-01 5.500000e+00
      endloop
   endfacet
   facet normal 9.238799e-01 -3.826826e-01 0.000000e+00
      outer loop
         vertex -1.433676e+01 1.430138e-01 4.200000e+00
         vertex -1.433676e+01 1.430138e-01 5.500000e+00
         vertex -1.451250e+01 -2.812502e-01 5.500000e+00
      endloop
   endfacet
   facet normal 9.238799e-01 -3.826826e-01 0.000000e+00
      outer loop
         vertex -1.451250e+01 -2.812502e-01 4.200000e+00
         vertex -1.433676e+01 1.430138e-01 4.200000e+00
         vertex -1.451250e+01 -2.812502e-01 5.500000e+00
      endloop
   endfacet
   facet normal 3.826835e-01 -9.238795e-01 0.000000e+00
      outer loop
         vertex -1.391250e+01 3.187498e-01 4.200000e+00
         vertex -1.391250e+01 3.187498e-01 5.500000e+00
         vertex -1.433676e+01 1.430138e-01 5.500000e+00
      endloop
   endfacet
   facet normal 3.826835e-01 -9.238795e-01 0.000000e+00
      outer loop
         vertex -1.433676e+01 1.430138e-01 4.200000e+00
         vertex -1.391250e+01 3.187498e-01 4.200000e+00
         vertex -1.433676e+01 1.430138e-01 5.500000e+00
      endloop
   endfacet
   facet normal -3.826828e-01 -9.238798e-01 -0.000000e+00
      outer loop
         vertex -1.348823e+01 1.430138e-01 4.200000e+00
         vertex -1.348823e+01 1.430138e-01 5.500000e+00
         vertex -1.391250e+01 3.187498e-01 5.500000e+00
      endloop
   endfacet
   facet normal -3.826828e-01 -9.238798e-01 0.000000e+00
      outer loop
         vertex -1.391250e+01 3.187498e-01 4.200000e+00
         vertex -1.348823e+01 1.430138e-01 4.200000e+00
         vertex -1.391250e+01 3.187498e-01 5.500000e+00
      endloop
   endfacet
   facet normal -9.238799e-01 -3.826826e-01 -0.000000e+00
      outer loop
         vertex -1.331250e+01 -2.812502e-01 4.200000e+00
         vertex -1.331250e+01 -2.812502e-01 5.500000e+00
         vertex -1.348823e+01 1.430138e-01 5.500000e+00
      endloop
   endfacet
   facet normal -9.238799e-01 -3.826826e-01 0.000000e+00
      outer loop
         vertex -1.348823e+01 1.430138e-01 4.200000e+00
         vertex -1.331250e+01 -2.812502e-01 4.200000e+00
         vertex -1.348823e+01 1.430138e-01 5.500000e+00
      endloop
   endfacet
   facet normal 0.000000e+00 0.000000e+00 -1.000000e+00
      outer loop
         vertex -1.321250e+01 -1.058125e+01 4.200000e+00
         vertex -1.329958e+01 -1.025625e+01 4.200000e+00
         vertex -1.321250e+01 -9.931251e+00 4.200000e+00
      endloop
   endfacet
   facet normal 0.000000e+00 0.000000e+00 -1.000000e+00
      outer loop
         vertex -1.329958e+01 -1.025625e+01 4.200000e+00
         vertex -1.321250e+01 -1.058125e+01 4.200000e+00
         vertex -1.353750e+01 -1.049417e+01 4.200000e+00
      endloop
   endfacet
   facet normal 0.000000e+00 0.000000e+00 -1.000000e+00
      outer loop
         vertex -1.321250e+01 -1.058125e+01 4.200000e+00
         vertex -1.386250e+01 -1.058125e+01 4.200000e+00
         vertex -1.353750e+01 -1.049417e+01 4.200000e+00
      endloop
   endfacet
   facet normal 0.000000e+00 0.000000e+00 -1.000000e+00
      outer loop
         vertex -1.321250e+01 4.187497e-01 4.200000e+00
         vertex -1.391250e+01 3.187498e-01 4.200000e+00
         vertex -3.441250e+01 4.187497e-01 4.200000e+00
      endloop
   endfacet
   facet normal 0.000000e+00 0.000000e+00 -1.000000e+00
      outer loop
         vertex -1.391250e+01 3.187498e-01 4.200000e+00
         vertex -1.433676e+01 1.430138e-01 4.200000e+00
         vertex -3.441250e+01 4.187497e-01 4.200000e+00
      endloop
   endfacet
   facet normal -0.000000e+00 0.000000e+00 -1.000000e+00
      outer loop
         vertex -3.441250e+01 4.187497e-01 4.200000e+00
         vertex -3.431250e+01 -2.812502e-01 4.200000e+00
         vertex -3.441250e+01 -1.058125e+01 4.200000e+00
      endloop
   endfacet
   facet normal -0.000000e+00 0.000000e+00 -1.000000e+00
      outer loop
         vertex -3.431250e+01 -2.812502e-01 4.200000e+00
         vertex -3.413676e+01 -7.055143e-01 4.200000e+00
         vertex -3.441250e+01 -1.058125e+01 4.200000e+00
      endloop
   endfacet
   facet normal 0.000000e+00 -0.000000e+00 -1.000000e+00
      outer loop
         vertex -3.441250e+01 -1.058125e+01 4.200000e+00
         vertex -3.371250e+01 -1.048125e+01 4.200000e+00
         vertex -1.386250e+01 -1.058125e+01 4.200000e+00
      endloop
   endfacet
   facet normal 0.000000e+00 -0.000000e+00 -1.000000e+00
      outer loop
         vertex -3.371250e+01 -1.048125e+01 4.200000e+00
         vertex -3.328823e+01 -1.030551e+01 4.200000e+00
         vertex -1.386250e+01 -1.058125e+01 4.200000e+00
      endloop
   endfacet
   facet normal 0.000000e+00 0.000000e+00 -1.000000e+00
      outer loop
         vertex -1.386250e+01 -1.058125e+01 4.200000e+00
         vertex -3.328823e+01 -1.030551e+01 4.200000e+00
         vertex -1.426777e+01 -1.043944e+01 4.200000e+00
      endloop
   endfacet
   facet normal 0.000000e+00 -0.000000e+00 -1.000000e+00
      outer loop
         vertex -3.328823e+01 -1.030551e+01 4.200000e+00
         vertex -3.311250e+01 -9.881250e+00 4.200000e+00
         vertex -1.426777e+01 -1.043944e+01 4.200000e+00
      endloop
   endfacet
   facet normal 0.000000e+00 0.000000e+00 -1.000000e+00
      outer loop
         vertex -1.426777e+01 -1.043944e+01 4.200000e+00
         vertex -3.311250e+01 -9.881250e+00 4.200000e+00
         vertex -1.449620e+01 -1.007589e+01 4.200000e+00
      endloop
   endfacet
   facet normal 0.000000e+00 0.000000e+00 -1.000000e+00
      outer loop
         vertex -3.311250e+01 -9.881250e+00 4.200000e+00
         vertex -3.328823e+01 -9.456986e+00 4.200000e+00
         vertex -1.449620e+01 -1.007589e+01 4.200000e+00
      endloop
   endfacet
   facet normal 0.000000e+00 0.000000e+00 -1.000000e+00
      outer loop
         vertex -1.449620e+01 -1.007589e+01 4.200000e+00
         vertex -3.328823e+01 -9.456986e+00 4.200000e+00
         vertex -1.444813e+01 -9.649226e+00 4.200000e+00
      endloop
   endfacet
   facet normal 0.000000e+00 0.000000e+00 -1.000000e+00
      outer loop
         vertex -3.328823e+01 -9.456986e+00 4.200000e+00
         vertex -3.371250e+01 -9.281250e+00 4.200000e+00
         vertex -1.444813e+01 -9.649226e+00 4.200000e+00
      endloop
   endfacet
   facet normal 0.000000e+00 0.000000e+00 -1.000000e+00
      outer loop
         vertex -1.444813e+01 -9.649226e+00 4.200000e+00
         vertex -3.371250e+01 -9.281250e+00 4.200000e+00
         vertex -1.414452e+01 -9.345620e+00 4.200000e+00
      endloop
   endfacet
   facet normal 0.000000e+00 0.000000e+00 -1.000000e+00
      outer loop
         vertex -3.413676e+01 -1.030551e+01 4.200000e+00
         vertex -3.441250e+01 -1.058125e+01 4.200000e+00
         vertex -3.431250e+01 -9.881250e+00 4.200000e+00
      endloop
   endfacet
   facet normal 0.000000e+00 0.000000e+00 -1.000000e+00
      outer loop
         vertex -3.441250e+01 -1.058125e+01 4.200000e+00
         vertex -3.413676e+01 -7.055143e-01 4.200000e+00
         vertex -3.431250e+01 -9.881250e+00 4.200000e+00
      endloop
   endfacet
   facet normal -0.000000e+00 0.000000e+00 -1.000000e+00
      outer loop
         vertex -3.413676e+01 -7.055143e-01 4.200000e+00
         vertex -3.371250e+01 -8.812503e-01 4.200000e+00
         vertex -3.431250e+01 -9.881250e+00 4.200000e+00
      endloop
   endfacet
   facet normal 0.000000e+00 0.000000e+00 -1.000000e+00
      outer loop
         vertex -3.431250e+01 -9.881250e+00 4.200000e+00
         vertex -3.371250e+01 -8.812503e-01 4.200000e+00
         vertex -3.413676e+01 -9.456986e+00 4.200000e+00
      endloop
   endfacet
   facet normal 0.000000e+00 0.000000e+00 -1.000000e+00
      outer loop
         vertex -3.371250e+01 -8.812503e-01 4.200000e+00
         vertex -3.328823e+01 -7.055143e-01 4.200000e+00
         vertex -3.413676e+01 -9.456986e+00 4.200000e+00
      endloop
   endfacet
   facet normal 0.000000e+00 0.000000e+00 -1.000000e+00
      outer loop
         vertex -3.413676e+01 -9.456986e+00 4.200000e+00
         vertex -3.328823e+01 -7.055143e-01 4.200000e+00
         vertex -3.371250e+01 -9.281250e+00 4.200000e+00
      endloop
   endfacet
   facet normal 0.000000e+00 0.000000e+00 -1.000000e+00
      outer loop
         vertex -3.328823e+01 -7.055143e-01 4.200000e+00
         vertex -3.311250e+01 -2.812502e-01 4.200000e+00
         vertex -3.371250e+01 -9.281250e+00 4.200000e+00
      endloop
   endfacet
   facet normal 0.000000e+00 -0.000000e+00 -1.000000e+00
      outer loop
         vertex -3.371250e+01 -9.281250e+00 4.200000e+00
         vertex -3.311250e+01 -2.812502e-01 4.200000e+00
         vertex -1.414452e+01 -9.345620e+00 4.200000e+00
      endloop
   endfacet
   facet normal 0.000000e+00 0.000000e+00 -1.000000e+00
      outer loop
         vertex -3.311250e+01 -2.812502e-01 4.200000e+00
         vertex -3.328823e+01 1.430138e-01 4.200000e+00
         vertex -1.414452e+01 -9.345620e+00 4.200000e+00
      endloop
   endfacet
   facet normal 0.000000e+00 0.000000e+00 -1.000000e+00
      outer loop
         vertex -1.414452e+01 -9.345620e+00 4.200000e+00
         vertex -3.328823e+01 1.430138e-01 4.200000e+00
         vertex -1.371786e+01 -9.297547e+00 4.200000e+00
      endloop
   endfacet
   facet normal 0.000000e+00 0.000000e+00 -1.000000e+00
      outer loop
         vertex -3.413676e+01 1.430138e-01 4.200000e+00
         vertex -3.441250e+01 4.187497e-01 4.200000e+00
         vertex -3.371250e+01 3.187498e-01 4.200000e+00
      endloop
   endfacet
   facet normal 0.000000e+00 0.000000e+00 -1.000000e+00
      outer loop
         vertex -3.441250e+01 4.187497e-01 4.200000e+00
         vertex -1.433676e+01 1.430138e-01 4.200000e+00
         vertex -3.371250e+01 3.187498e-01 4.200000e+00
      endloop
   endfacet
   facet normal 0.000000e+00 0.000000e+00 -1.000000e+00
      outer loop
         vertex -1.433676e+01 1.430138e-01 4.200000e+00
         vertex -1.451250e+01 -2.812502e-01 4.200000e+00
         vertex -3.371250e+01 3.187498e-01 4.200000e+00
      endloop
   endfacet
   facet normal 0.000000e+00 0.000000e+00 -1.000000e+00
      outer loop
         vertex -3.371250e+01 3.187498e-01 4.200000e+00
         vertex -1.451250e+01 -2.812502e-01 4.200000e+00
         vertex -3.328823e+01 1.430138e-01 4.200000e+00
      endloop
   endfacet
   facet normal 0.000000e+00 0.000000e+00 -1.000000e+00
      outer loop
         vertex -1.451250e+01 -2.812502e-01 4.200000e+00
         vertex -1.433676e+01 -7.055143e-01 4.200000e+00
         vertex -3.328823e+01 1.430138e-01 4.200000e+00
      endloop
   endfacet
   facet normal -0.000000e+00 -0.000000e+00 -1.000000e+00
      outer loop
         vertex -3.328823e+01 1.430138e-01 4.200000e+00
         vertex -1.433676e+01 -7.055143e-01 4.200000e+00
         vertex -1.371786e+01 -9.297547e+00 4.200000e+00
      endloop
   endfacet
   facet normal -0.000000e+00 -0.000000e+00 -1.000000e+00
      outer loop
         vertex -1.433676e+01 -7.055143e-01 4.200000e+00
         vertex -1.391250e+01 -8.812503e-01 4.200000e+00
         vertex -1.371786e+01 -9.297547e+00 4.200000e+00
      endloop
   endfacet
   facet normal 0.000000e+00 0.000000e+00 -1.000000e+00
      outer loop
         vertex -1.371786e+01 -9.297547e+00 4.200000e+00
         vertex -1.391250e+01 -8.812503e-01 4.200000e+00
         vertex -1.335431e+01 -9.525982e+00 4.200000e+00
      endloop
   endfacet
   facet normal 0.000000e+00 -0.000000e+00 -1.000000e+00
      outer loop
         vertex -1.391250e+01 -8.812503e-01 4.200000e+00
         vertex -1.348823e+01 -7.055143e-01 4.200000e+00
         vertex -1.335431e+01 -9.525982e+00 4.200000e+00
      endloop
   endfacet
   facet normal 0.000000e+00 0.000000e+00 -1.000000e+00
      outer loop
         vertex -1.335431e+01 -9.525982e+00 4.200000e+00
         vertex -1.348823e+01 -7.055143e-01 4.200000e+00
         vertex -1.321250e+01 -9.931251e+00 4.200000e+00
      endloop
   endfacet
   facet normal 0.000000e+00 -0.000000e+00 -1.000000e+00
      outer loop
         vertex -1.348823e+01 -7.055143e-01 4.200000e+00
         vertex -1.331250e+01 -2.812502e-01 4.200000e+00
         vertex -1.321250e+01 -9.931251e+00 4.200000e+00
      endloop
   endfacet
   facet normal 0.000000e+00 0.000000e+00 -1.000000e+00
      outer loop
         vertex -1.321250e+01 -9.931251e+00 4.200000e+00
         vertex -1.331250e+01 -2.812502e-01 4.200000e+00
         vertex -1.321250e+01 4.187497e-01 4.200000e+00
      endloop
   endfacet
   facet normal 0.000000e+00 0.000000e+00 -1.000000e+00
      outer loop
         vertex -1.331250e+01 -2.812502e-01 4.200000e+00
         vertex -1.348823e+01 1.430138e-01 4.200000e+00
         vertex -1.321250e+01 4.187497e-01 4.200000e+00
      endloop
   endfacet
   facet normal 0.000000e+00 0.000000e+00 -1.000000e+00
      outer loop
         vertex -1.391250e+01 3.187498e-01 4.200000e+00
         vertex -1.321250e+01 4.187497e-01 4.200000e+00
         vertex -1.348823e+01 1.430138e-01 4.200000e+00
      endloop
   endfacet
   facet normal 0.000000e+00 0.000000e+00 -1.000000e+00
      outer loop
         vertex -3.371250e+01 -1.048125e+01 4.200000e+00
         vertex -3.441250e+01 -1.058125e+01 4.200000e+00
         vertex -3.413676e+01 -1.030551e+01 4.200000e+00
      endloop
   endfacet
   facet normal 0.000000e+00 0.000000e+00 -1.000000e+00
      outer loop
         vertex -3.431250e+01 -2.812502e-01 4.200000e+00
         vertex -3.441250e+01 4.187497e-01 4.200000e+00
         vertex -3.413676e+01 1.430138e-01 4.200000e+00
      endloop
   endfacet
   facet normal 0.000000e+00 0.000000e+00 -1.000000e+00
      outer loop
         vertex -3.441250e+01 -7.081250e+00 1.500000e+00
         vertex -3.531250e+01 -7.081250e+00 1.500000e+00
         vertex -3.531250e+01 -3.081250e+00 1.500000e+00
      endloop
   endfacet
   facet normal 0.000000e+00 0.000000e+00 -1.000000e+00
      outer loop
         vertex -3.441250e+01 -3.081250e+00 1.500000e+00
         vertex -3.441250e+01 -7.081250e+00 1.500000e+00
         vertex -3.531250e+01 -3.081250e+00 1.500000e+00
      endloop
   endfacet
endsolid
