solid 
   facet normal -1.000000e+00 0.000000e+00 0.000000e+00
      outer loop
         vertex 5.252084e+00 -3.623959e+01 3.200000e+01
         vertex 5.252084e+00 -3.794174e+01 3.200000e+01
         vertex 5.252084e+00 -3.623959e+01 3.400000e+01
      endloop
   endfacet
   facet normal -1.000000e+00 0.000000e+00 0.000000e+00
      outer loop
         vertex 5.252084e+00 -3.794174e+01 2.000000e+00
         vertex 5.252084e+00 -5.123959e+01 2.000000e+00
         vertex 5.252084e+00 -3.794174e+01 3.200000e+01
      endloop
   endfacet
   facet normal -1.000000e+00 0.000000e+00 0.000000e+00
      outer loop
         vertex 5.252084e+00 -5.123959e+01 2.000000e+00
         vertex 5.252084e+00 -5.123959e+01 3.400000e+01
         vertex 5.252084e+00 -3.794174e+01 3.200000e+01
      endloop
   endfacet
   facet normal -1.000000e+00 -0.000000e+00 0.000000e+00
      outer loop
         vertex 5.252084e+00 -5.123959e+01 3.400000e+01
         vertex 5.252084e+00 -3.623959e+01 3.400000e+01
         vertex 5.252084e+00 -3.794174e+01 3.200000e+01
      endloop
   endfacet
   facet normal 1.000000e+00 0.000000e+00 0.000000e+00
      outer loop
         vertex -3.074792e+01 -5.123959e+01 3.400000e+01
         vertex -3.074792e+01 -5.123959e+01 2.000000e+00
         vertex -3.074792e+01 -3.623959e+01 2.000000e+00
      endloop
   endfacet
   facet normal 1.000000e+00 0.000000e+00 -0.000000e+00
      outer loop
         vertex -3.074792e+01 -5.123959e+01 3.400000e+01
         vertex -3.074792e+01 -3.623959e+01 2.000000e+00
         vertex -3.074792e+01 -3.623959e+01 3.400000e+01
      endloop
   endfacet
   facet normal 0.000000e+00 -1.000000e+00 0.000000e+00
      outer loop
         vertex 1.525208e+01 -5.123959e+01 3.400000e+01
         vertex 5.252084e+00 -5.123959e+01 3.400000e+01
         vertex 1.525208e+01 -5.123959e+01 3.200000e+01
      endloop
   endfacet
   facet normal 0.000000e+00 -1.000000e+00 0.000000e+00
      outer loop
         vertex 5.252084e+00 -5.123959e+01 3.400000e+01
         vertex 7.252084e+00 -5.123959e+01 3.200000e+01
         vertex 1.525208e+01 -5.123959e+01 3.200000e+01
      endloop
   endfacet
   facet normal 0.000000e+00 -1.000000e+00 0.000000e+00
      outer loop
         vertex 7.252084e+00 -5.123959e+01 3.200000e+01
         vertex 5.252084e+00 -5.123959e+01 3.400000e+01
         vertex 7.252084e+00 -5.123959e+01 0.000000e+00
      endloop
   endfacet
   facet normal 0.000000e+00 -1.000000e+00 0.000000e+00
      outer loop
         vertex 5.252084e+00 -5.123959e+01 3.400000e+01
         vertex 5.252084e+00 -5.123959e+01 2.000000e+00
         vertex 7.252084e+00 -5.123959e+01 0.000000e+00
      endloop
   endfacet
   facet normal 0.000000e+00 -1.000000e+00 -0.000000e+00
      outer loop
         vertex 7.252084e+00 -5.123959e+01 0.000000e+00
         vertex 5.252084e+00 -5.123959e+01 2.000000e+00
         vertex -3.274792e+01 -5.123959e+01 0.000000e+00
      endloop
   endfacet
   facet normal 0.000000e+00 -1.000000e+00 -0.000000e+00
      outer loop
         vertex 5.252084e+00 -5.123959e+01 2.000000e+00
         vertex -3.074792e+01 -5.123959e+01 2.000000e+00
         vertex -3.274792e+01 -5.123959e+01 0.000000e+00
      endloop
   endfacet
   facet normal -0.000000e+00 -1.000000e+00 0.000000e+00
      outer loop
         vertex -3.274792e+01 -5.123959e+01 0.000000e+00
         vertex -3.074792e+01 -5.123959e+01 2.000000e+00
         vertex -3.274792e+01 -5.123959e+01 3.200000e+01
      endloop
   endfacet
   facet normal 0.000000e+00 -1.000000e+00 -0.000000e+00
      outer loop
         vertex -3.074792e+01 -5.123959e+01 2.000000e+00
         vertex -3.074792e+01 -5.123959e+01 3.400000e+01
         vertex -3.274792e+01 -5.123959e+01 3.200000e+01
      endloop
   endfacet
   facet normal 0.000000e+00 -1.000000e+00 0.000000e+00
      outer loop
         vertex -3.274792e+01 -5.123959e+01 3.200000e+01
         vertex -3.074792e+01 -5.123959e+01 3.400000e+01
         vertex -4.074792e+01 -5.123959e+01 3.200000e+01
      endloop
   endfacet
   facet normal 0.000000e+00 -1.000000e+00 0.000000e+00
      outer loop
         vertex -3.074792e+01 -5.123959e+01 3.400000e+01
         vertex -4.074792e+01 -5.123959e+01 3.400000e+01
         vertex -4.074792e+01 -5.123959e+01 3.200000e+01
      endloop
   endfacet
   facet normal 0.000000e+00 0.000000e+00 1.000000e+00
      outer loop
         vertex 5.252084e+00 -5.123959e+01 3.400000e+01
         vertex 9.593599e+00 -4.869454e+01 3.400000e+01
         vertex 5.252084e+00 -3.623959e+01 3.400000e+01
      endloop
   endfacet
   facet normal 0.000000e+00 0.000000e+00 1.000000e+00
      outer loop
         vertex 9.593599e+00 -4.869454e+01 3.400000e+01
         vertex 9.202085e+00 -4.748959e+01 3.400000e+01
         vertex 5.252084e+00 -3.623959e+01 3.400000e+01
      endloop
   endfacet
   facet normal 0.000000e+00 -0.000000e+00 1.000000e+00
      outer loop
         vertex 5.252084e+00 -3.623959e+01 3.400000e+01
         vertex 1.061860e+01 -3.803992e+01 3.400000e+01
         vertex 1.525208e+01 -3.623959e+01 3.400000e+01
      endloop
   endfacet
   facet normal 0.000000e+00 -0.000000e+00 1.000000e+00
      outer loop
         vertex 1.061860e+01 -3.803992e+01 3.400000e+01
         vertex 1.188557e+01 -3.803992e+01 3.400000e+01
         vertex 1.525208e+01 -3.623959e+01 3.400000e+01
      endloop
   endfacet
   facet normal -0.000000e+00 0.000000e+00 1.000000e+00
      outer loop
         vertex 1.525208e+01 -3.623959e+01 3.400000e+01
         vertex 1.330208e+01 -3.998959e+01 3.400000e+01
         vertex 1.525208e+01 -5.123959e+01 3.400000e+01
      endloop
   endfacet
   facet normal -0.000000e+00 0.000000e+00 1.000000e+00
      outer loop
         vertex 1.330208e+01 -3.998959e+01 3.400000e+01
         vertex 1.291057e+01 -4.119454e+01 3.400000e+01
         vertex 1.525208e+01 -5.123959e+01 3.400000e+01
      endloop
   endfacet
   facet normal 0.000000e+00 0.000000e+00 1.000000e+00
      outer loop
         vertex 1.525208e+01 -5.123959e+01 3.400000e+01
         vertex 1.188557e+01 -4.943925e+01 3.400000e+01
         vertex 5.252084e+00 -5.123959e+01 3.400000e+01
      endloop
   endfacet
   facet normal -0.000000e+00 0.000000e+00 1.000000e+00
      outer loop
         vertex 1.188557e+01 -4.943925e+01 3.400000e+01
         vertex 1.061860e+01 -4.943925e+01 3.400000e+01
         vertex 5.252084e+00 -5.123959e+01 3.400000e+01
      endloop
   endfacet
   facet normal 0.000000e+00 0.000000e+00 1.000000e+00
      outer loop
         vertex 5.252084e+00 -5.123959e+01 3.400000e+01
         vertex 1.061860e+01 -4.943925e+01 3.400000e+01
         vertex 9.593599e+00 -4.869454e+01 3.400000e+01
      endloop
   endfacet
   facet normal 0.000000e+00 0.000000e+00 1.000000e+00
      outer loop
         vertex 1.188557e+01 -4.943925e+01 3.400000e+01
         vertex 1.525208e+01 -5.123959e+01 3.400000e+01
         vertex 1.291057e+01 -4.869454e+01 3.400000e+01
      endloop
   endfacet
   facet normal 0.000000e+00 0.000000e+00 1.000000e+00
      outer loop
         vertex 1.291057e+01 -4.869454e+01 3.400000e+01
         vertex 1.525208e+01 -5.123959e+01 3.400000e+01
         vertex 1.330208e+01 -4.748959e+01 3.400000e+01
      endloop
   endfacet
   facet normal 0.000000e+00 0.000000e+00 1.000000e+00
      outer loop
         vertex 1.525208e+01 -5.123959e+01 3.400000e+01
         vertex 1.291057e+01 -4.119454e+01 3.400000e+01
         vertex 1.330208e+01 -4.748959e+01 3.400000e+01
      endloop
   endfacet
   facet normal 0.000000e+00 0.000000e+00 1.000000e+00
      outer loop
         vertex 1.330208e+01 -4.748959e+01 3.400000e+01
         vertex 1.291057e+01 -4.119454e+01 3.400000e+01
         vertex 1.291057e+01 -4.628463e+01 3.400000e+01
      endloop
   endfacet
   facet normal -0.000000e+00 0.000000e+00 1.000000e+00
      outer loop
         vertex 1.291057e+01 -4.119454e+01 3.400000e+01
         vertex 1.188557e+01 -4.193925e+01 3.400000e+01
         vertex 1.291057e+01 -4.628463e+01 3.400000e+01
      endloop
   endfacet
   facet normal 0.000000e+00 0.000000e+00 1.000000e+00
      outer loop
         vertex 1.291057e+01 -4.628463e+01 3.400000e+01
         vertex 1.188557e+01 -4.193925e+01 3.400000e+01
         vertex 1.188557e+01 -4.553992e+01 3.400000e+01
      endloop
   endfacet
   facet normal -0.000000e+00 0.000000e+00 1.000000e+00
      outer loop
         vertex 1.188557e+01 -4.193925e+01 3.400000e+01
         vertex 1.061860e+01 -4.193925e+01 3.400000e+01
         vertex 1.188557e+01 -4.553992e+01 3.400000e+01
      endloop
   endfacet
   facet normal 0.000000e+00 0.000000e+00 1.000000e+00
      outer loop
         vertex 1.188557e+01 -4.553992e+01 3.400000e+01
         vertex 1.061860e+01 -4.193925e+01 3.400000e+01
         vertex 1.061860e+01 -4.553992e+01 3.400000e+01
      endloop
   endfacet
   facet normal 0.000000e+00 0.000000e+00 1.000000e+00
      outer loop
         vertex 1.061860e+01 -4.193925e+01 3.400000e+01
         vertex 9.593599e+00 -4.119454e+01 3.400000e+01
         vertex 1.061860e+01 -4.553992e+01 3.400000e+01
      endloop
   endfacet
   facet normal 0.000000e+00 0.000000e+00 1.000000e+00
      outer loop
         vertex 1.061860e+01 -4.553992e+01 3.400000e+01
         vertex 9.593599e+00 -4.119454e+01 3.400000e+01
         vertex 9.593599e+00 -4.628463e+01 3.400000e+01
      endloop
   endfacet
   facet normal 0.000000e+00 0.000000e+00 1.000000e+00
      outer loop
         vertex 9.593599e+00 -4.119454e+01 3.400000e+01
         vertex 9.202085e+00 -3.998959e+01 3.400000e+01
         vertex 9.593599e+00 -4.628463e+01 3.400000e+01
      endloop
   endfacet
   facet normal 0.000000e+00 0.000000e+00 1.000000e+00
      outer loop
         vertex 9.593599e+00 -4.628463e+01 3.400000e+01
         vertex 9.202085e+00 -3.998959e+01 3.400000e+01
         vertex 9.202085e+00 -4.748959e+01 3.400000e+01
      endloop
   endfacet
   facet normal 0.000000e+00 0.000000e+00 1.000000e+00
      outer loop
         vertex 9.593599e+00 -3.878463e+01 3.400000e+01
         vertex 5.252084e+00 -3.623959e+01 3.400000e+01
         vertex 9.202085e+00 -3.998959e+01 3.400000e+01
      endloop
   endfacet
   facet normal 0.000000e+00 0.000000e+00 1.000000e+00
      outer loop
         vertex 9.202085e+00 -3.998959e+01 3.400000e+01
         vertex 5.252084e+00 -3.623959e+01 3.400000e+01
         vertex 9.202085e+00 -4.748959e+01 3.400000e+01
      endloop
   endfacet
   facet normal 0.000000e+00 0.000000e+00 1.000000e+00
      outer loop
         vertex 1.061860e+01 -3.803992e+01 3.400000e+01
         vertex 5.252084e+00 -3.623959e+01 3.400000e+01
         vertex 9.593599e+00 -3.878463e+01 3.400000e+01
      endloop
   endfacet
   facet normal 0.000000e+00 0.000000e+00 1.000000e+00
      outer loop
         vertex 1.330208e+01 -3.998959e+01 3.400000e+01
         vertex 1.525208e+01 -3.623959e+01 3.400000e+01
         vertex 1.291057e+01 -3.878463e+01 3.400000e+01
      endloop
   endfacet
   facet normal -0.000000e+00 0.000000e+00 1.000000e+00
      outer loop
         vertex 1.525208e+01 -3.623959e+01 3.400000e+01
         vertex 1.188557e+01 -3.803992e+01 3.400000e+01
         vertex 1.291057e+01 -3.878463e+01 3.400000e+01
      endloop
   endfacet
   facet normal 0.000000e+00 1.000000e+00 0.000000e+00
      outer loop
         vertex 5.252084e+00 -3.623959e+01 3.400000e+01
         vertex 1.525208e+01 -3.623959e+01 3.400000e+01
         vertex 5.252084e+00 -3.623959e+01 3.200000e+01
      endloop
   endfacet
   facet normal 0.000000e+00 1.000000e+00 -0.000000e+00
      outer loop
         vertex 1.525208e+01 -3.623959e+01 3.400000e+01
         vertex 7.252084e+00 -3.623959e+01 3.200000e+01
         vertex 5.252084e+00 -3.623959e+01 3.200000e+01
      endloop
   endfacet
   facet normal 0.000000e+00 1.000000e+00 0.000000e+00
      outer loop
         vertex 5.252084e+00 -3.623959e+01 3.200000e+01
         vertex 7.252084e+00 -3.623959e+01 3.200000e+01
         vertex 5.252084e+00 -3.623959e+01 2.000000e+00
      endloop
   endfacet
   facet normal 0.000000e+00 1.000000e+00 -0.000000e+00
      outer loop
         vertex 7.252084e+00 -3.623959e+01 3.200000e+01
         vertex 7.252084e+00 -3.623959e+01 0.000000e+00
         vertex 5.252084e+00 -3.623959e+01 2.000000e+00
      endloop
   endfacet
   facet normal 0.000000e+00 1.000000e+00 0.000000e+00
      outer loop
         vertex 5.252084e+00 -3.623959e+01 2.000000e+00
         vertex 7.252084e+00 -3.623959e+01 0.000000e+00
         vertex -3.044190e+01 -3.623959e+01 2.000000e+00
      endloop
   endfacet
   facet normal 0.000000e+00 1.000000e+00 0.000000e+00
      outer loop
         vertex 7.252084e+00 -3.623959e+01 0.000000e+00
         vertex -3.274792e+01 -3.623959e+01 0.000000e+00
         vertex -3.044190e+01 -3.623959e+01 2.000000e+00
      endloop
   endfacet
   facet normal 0.000000e+00 1.000000e+00 0.000000e+00
      outer loop
         vertex -3.044190e+01 -3.623959e+01 2.000000e+00
         vertex -3.274792e+01 -3.623959e+01 0.000000e+00
         vertex -3.074792e+01 -3.623959e+01 2.000000e+00
      endloop
   endfacet
   facet normal 0.000000e+00 1.000000e+00 0.000000e+00
      outer loop
         vertex -3.274792e+01 -3.623959e+01 0.000000e+00
         vertex -3.274792e+01 -3.623959e+01 3.200000e+01
         vertex -3.074792e+01 -3.623959e+01 2.000000e+00
      endloop
   endfacet
   facet normal -0.000000e+00 1.000000e+00 0.000000e+00
      outer loop
         vertex -3.074792e+01 -3.623959e+01 2.000000e+00
         vertex -3.274792e+01 -3.623959e+01 3.200000e+01
         vertex -3.074792e+01 -3.623959e+01 3.400000e+01
      endloop
   endfacet
   facet normal 0.000000e+00 1.000000e+00 0.000000e+00
      outer loop
         vertex -3.274792e+01 -3.623959e+01 3.200000e+01
         vertex -4.074792e+01 -3.623959e+01 3.200000e+01
         vertex -3.074792e+01 -3.623959e+01 3.400000e+01
      endloop
   endfacet
   facet normal 0.000000e+00 1.000000e+00 0.000000e+00
      outer loop
         vertex -3.074792e+01 -3.623959e+01 3.400000e+01
         vertex -4.074792e+01 -3.623959e+01 3.200000e+01
         vertex -4.074792e+01 -3.623959e+01 3.400000e+01
      endloop
   endfacet
   facet normal 0.000000e+00 1.000000e+00 0.000000e+00
      outer loop
         vertex 7.252084e+00 -3.623959e+01 3.200000e+01
         vertex 1.525208e+01 -3.623959e+01 3.400000e+01
         vertex 1.525208e+01 -3.623959e+01 3.200000e+01
      endloop
   endfacet
   facet normal 0.000000e+00 -0.000000e+00 1.000000e+00
      outer loop
         vertex -4.074792e+01 -3.623959e+01 3.400000e+01
         vertex -3.738140e+01 -3.803992e+01 3.400000e+01
         vertex -3.074792e+01 -3.623959e+01 3.400000e+01
      endloop
   endfacet
   facet normal 0.000000e+00 -0.000000e+00 1.000000e+00
      outer loop
         vertex -3.738140e+01 -3.803992e+01 3.400000e+01
         vertex -3.611443e+01 -3.803992e+01 3.400000e+01
         vertex -3.074792e+01 -3.623959e+01 3.400000e+01
      endloop
   endfacet
   facet normal -0.000000e+00 0.000000e+00 1.000000e+00
      outer loop
         vertex -3.074792e+01 -3.623959e+01 3.400000e+01
         vertex -3.508943e+01 -3.878463e+01 3.400000e+01
         vertex -3.074792e+01 -5.123959e+01 3.400000e+01
      endloop
   endfacet
   facet normal -0.000000e+00 -0.000000e+00 1.000000e+00
      outer loop
         vertex -3.508943e+01 -3.878463e+01 3.400000e+01
         vertex -3.469791e+01 -3.998959e+01 3.400000e+01
         vertex -3.074792e+01 -5.123959e+01 3.400000e+01
      endloop
   endfacet
   facet normal 0.000000e+00 0.000000e+00 1.000000e+00
      outer loop
         vertex -3.074792e+01 -5.123959e+01 3.400000e+01
         vertex -3.611443e+01 -4.943925e+01 3.400000e+01
         vertex -4.074792e+01 -5.123959e+01 3.400000e+01
      endloop
   endfacet
   facet normal -0.000000e+00 0.000000e+00 1.000000e+00
      outer loop
         vertex -3.611443e+01 -4.943925e+01 3.400000e+01
         vertex -3.738140e+01 -4.943925e+01 3.400000e+01
         vertex -4.074792e+01 -5.123959e+01 3.400000e+01
      endloop
   endfacet
   facet normal 0.000000e+00 0.000000e+00 1.000000e+00
      outer loop
         vertex -4.074792e+01 -5.123959e+01 3.400000e+01
         vertex -3.879792e+01 -4.748959e+01 3.400000e+01
         vertex -4.074792e+01 -3.623959e+01 3.400000e+01
      endloop
   endfacet
   facet normal 0.000000e+00 0.000000e+00 1.000000e+00
      outer loop
         vertex -3.879792e+01 -4.748959e+01 3.400000e+01
         vertex -3.840640e+01 -4.628463e+01 3.400000e+01
         vertex -4.074792e+01 -3.623959e+01 3.400000e+01
      endloop
   endfacet
   facet normal 0.000000e+00 -0.000000e+00 1.000000e+00
      outer loop
         vertex -4.074792e+01 -3.623959e+01 3.400000e+01
         vertex -3.879792e+01 -3.998959e+01 3.400000e+01
         vertex -3.840640e+01 -3.878463e+01 3.400000e+01
      endloop
   endfacet
   facet normal 0.000000e+00 0.000000e+00 1.000000e+00
      outer loop
         vertex -3.879792e+01 -3.998959e+01 3.400000e+01
         vertex -4.074792e+01 -3.623959e+01 3.400000e+01
         vertex -3.840640e+01 -4.119454e+01 3.400000e+01
      endloop
   endfacet
   facet normal 0.000000e+00 -0.000000e+00 1.000000e+00
      outer loop
         vertex -4.074792e+01 -3.623959e+01 3.400000e+01
         vertex -3.840640e+01 -4.628463e+01 3.400000e+01
         vertex -3.840640e+01 -4.119454e+01 3.400000e+01
      endloop
   endfacet
   facet normal 0.000000e+00 0.000000e+00 1.000000e+00
      outer loop
         vertex -3.840640e+01 -4.119454e+01 3.400000e+01
         vertex -3.840640e+01 -4.628463e+01 3.400000e+01
         vertex -3.738140e+01 -4.193925e+01 3.400000e+01
      endloop
   endfacet
   facet normal 0.000000e+00 -0.000000e+00 1.000000e+00
      outer loop
         vertex -3.840640e+01 -4.628463e+01 3.400000e+01
         vertex -3.738140e+01 -4.553992e+01 3.400000e+01
         vertex -3.738140e+01 -4.193925e+01 3.400000e+01
      endloop
   endfacet
   facet normal 0.000000e+00 0.000000e+00 1.000000e+00
      outer loop
         vertex -3.738140e+01 -4.193925e+01 3.400000e+01
         vertex -3.738140e+01 -4.553992e+01 3.400000e+01
         vertex -3.611443e+01 -4.193925e+01 3.400000e+01
      endloop
   endfacet
   facet normal 0.000000e+00 -0.000000e+00 1.000000e+00
      outer loop
         vertex -3.738140e+01 -4.553992e+01 3.400000e+01
         vertex -3.611443e+01 -4.553992e+01 3.400000e+01
         vertex -3.611443e+01 -4.193925e+01 3.400000e+01
      endloop
   endfacet
   facet normal 0.000000e+00 0.000000e+00 1.000000e+00
      outer loop
         vertex -3.611443e+01 -4.193925e+01 3.400000e+01
         vertex -3.611443e+01 -4.553992e+01 3.400000e+01
         vertex -3.508943e+01 -4.119454e+01 3.400000e+01
      endloop
   endfacet
   facet normal 0.000000e+00 -0.000000e+00 1.000000e+00
      outer loop
         vertex -3.611443e+01 -4.553992e+01 3.400000e+01
         vertex -3.508943e+01 -4.628463e+01 3.400000e+01
         vertex -3.508943e+01 -4.119454e+01 3.400000e+01
      endloop
   endfacet
   facet normal 0.000000e+00 0.000000e+00 1.000000e+00
      outer loop
         vertex -3.508943e+01 -4.119454e+01 3.400000e+01
         vertex -3.508943e+01 -4.628463e+01 3.400000e+01
         vertex -3.469791e+01 -3.998959e+01 3.400000e+01
      endloop
   endfacet
   facet normal 0.000000e+00 -0.000000e+00 1.000000e+00
      outer loop
         vertex -3.508943e+01 -4.628463e+01 3.400000e+01
         vertex -3.469791e+01 -4.748959e+01 3.400000e+01
         vertex -3.469791e+01 -3.998959e+01 3.400000e+01
      endloop
   endfacet
   facet normal -0.000000e+00 0.000000e+00 1.000000e+00
      outer loop
         vertex -3.469791e+01 -3.998959e+01 3.400000e+01
         vertex -3.469791e+01 -4.748959e+01 3.400000e+01
         vertex -3.074792e+01 -5.123959e+01 3.400000e+01
      endloop
   endfacet
   facet normal -0.000000e+00 0.000000e+00 1.000000e+00
      outer loop
         vertex -3.469791e+01 -4.748959e+01 3.400000e+01
         vertex -3.508943e+01 -4.869454e+01 3.400000e+01
         vertex -3.074792e+01 -5.123959e+01 3.400000e+01
      endloop
   endfacet
   facet normal 0.000000e+00 0.000000e+00 1.000000e+00
      outer loop
         vertex -3.879792e+01 -4.748959e+01 3.400000e+01
         vertex -4.074792e+01 -5.123959e+01 3.400000e+01
         vertex -3.840640e+01 -4.869454e+01 3.400000e+01
      endloop
   endfacet
   facet normal 0.000000e+00 0.000000e+00 1.000000e+00
      outer loop
         vertex -4.074792e+01 -5.123959e+01 3.400000e+01
         vertex -3.738140e+01 -4.943925e+01 3.400000e+01
         vertex -3.840640e+01 -4.869454e+01 3.400000e+01
      endloop
   endfacet
   facet normal 0.000000e+00 0.000000e+00 1.000000e+00
      outer loop
         vertex -3.508943e+01 -3.878463e+01 3.400000e+01
         vertex -3.074792e+01 -3.623959e+01 3.400000e+01
         vertex -3.611443e+01 -3.803992e+01 3.400000e+01
      endloop
   endfacet
   facet normal 0.000000e+00 0.000000e+00 1.000000e+00
      outer loop
         vertex -3.611443e+01 -4.943925e+01 3.400000e+01
         vertex -3.074792e+01 -5.123959e+01 3.400000e+01
         vertex -3.508943e+01 -4.869454e+01 3.400000e+01
      endloop
   endfacet
   facet normal 0.000000e+00 0.000000e+00 1.000000e+00
      outer loop
         vertex -3.738140e+01 -3.803992e+01 3.400000e+01
         vertex -4.074792e+01 -3.623959e+01 3.400000e+01
         vertex -3.840640e+01 -3.878463e+01 3.400000e+01
      endloop
   endfacet
   facet normal 1.000000e+00 0.000000e+00 0.000000e+00
      outer loop
         vertex 7.252084e+00 -3.623959e+01 0.000000e+00
         vertex 7.252084e+00 -3.623959e+01 3.200000e+01
         vertex 7.252084e+00 -5.123959e+01 3.200000e+01
      endloop
   endfacet
   facet normal 1.000000e+00 0.000000e+00 0.000000e+00
      outer loop
         vertex 7.252084e+00 -3.623959e+01 0.000000e+00
         vertex 7.252084e+00 -5.123959e+01 3.200000e+01
         vertex 7.252084e+00 -5.123959e+01 0.000000e+00
      endloop
   endfacet
   facet normal -1.000000e+00 0.000000e+00 0.000000e+00
      outer loop
         vertex -3.274792e+01 -5.123959e+01 0.000000e+00
         vertex -3.274792e+01 -5.123959e+01 3.200000e+01
         vertex -3.274792e+01 -3.623959e+01 3.200000e+01
      endloop
   endfacet
   facet normal -1.000000e+00 0.000000e+00 -0.000000e+00
      outer loop
         vertex -3.274792e+01 -5.123959e+01 0.000000e+00
         vertex -3.274792e+01 -3.623959e+01 3.200000e+01
         vertex -3.274792e+01 -3.623959e+01 0.000000e+00
      endloop
   endfacet
   facet normal 0.000000e+00 0.000000e+00 -1.000000e+00
      outer loop
         vertex 1.525208e+01 -5.123959e+01 3.200000e+01
         vertex 1.330208e+01 -4.748959e+01 3.200000e+01
         vertex 1.525208e+01 -3.623959e+01 3.200000e+01
      endloop
   endfacet
   facet normal 0.000000e+00 0.000000e+00 -1.000000e+00
      outer loop
         vertex 1.330208e+01 -4.748959e+01 3.200000e+01
         vertex 1.291057e+01 -4.628463e+01 3.200000e+01
         vertex 1.525208e+01 -3.623959e+01 3.200000e+01
      endloop
   endfacet
   facet normal 0.000000e+00 0.000000e+00 -1.000000e+00
      outer loop
         vertex 1.525208e+01 -3.623959e+01 3.200000e+01
         vertex 1.188557e+01 -3.803992e+01 3.200000e+01
         vertex 7.252084e+00 -3.623959e+01 3.200000e+01
      endloop
   endfacet
   facet normal 0.000000e+00 0.000000e+00 -1.000000e+00
      outer loop
         vertex 1.188557e+01 -3.803992e+01 3.200000e+01
         vertex 1.061860e+01 -3.803992e+01 3.200000e+01
         vertex 7.252084e+00 -3.623959e+01 3.200000e+01
      endloop
   endfacet
   facet normal -0.000000e+00 0.000000e+00 -1.000000e+00
      outer loop
         vertex 7.252084e+00 -3.623959e+01 3.200000e+01
         vertex 9.202085e+00 -3.998959e+01 3.200000e+01
         vertex 7.252084e+00 -5.123959e+01 3.200000e+01
      endloop
   endfacet
   facet normal -0.000000e+00 0.000000e+00 -1.000000e+00
      outer loop
         vertex 9.202085e+00 -3.998959e+01 3.200000e+01
         vertex 9.593599e+00 -4.119454e+01 3.200000e+01
         vertex 7.252084e+00 -5.123959e+01 3.200000e+01
      endloop
   endfacet
   facet normal 0.000000e+00 -0.000000e+00 -1.000000e+00
      outer loop
         vertex 7.252084e+00 -5.123959e+01 3.200000e+01
         vertex 1.061860e+01 -4.943925e+01 3.200000e+01
         vertex 1.525208e+01 -5.123959e+01 3.200000e+01
      endloop
   endfacet
   facet normal -0.000000e+00 -0.000000e+00 -1.000000e+00
      outer loop
         vertex 1.061860e+01 -4.943925e+01 3.200000e+01
         vertex 1.188557e+01 -4.943925e+01 3.200000e+01
         vertex 1.525208e+01 -5.123959e+01 3.200000e+01
      endloop
   endfacet
   facet normal 0.000000e+00 0.000000e+00 -1.000000e+00
      outer loop
         vertex 1.525208e+01 -5.123959e+01 3.200000e+01
         vertex 1.188557e+01 -4.943925e+01 3.200000e+01
         vertex 1.291057e+01 -4.869454e+01 3.200000e+01
      endloop
   endfacet
   facet normal 0.000000e+00 0.000000e+00 -1.000000e+00
      outer loop
         vertex 1.061860e+01 -4.943925e+01 3.200000e+01
         vertex 7.252084e+00 -5.123959e+01 3.200000e+01
         vertex 9.593599e+00 -4.869454e+01 3.200000e+01
      endloop
   endfacet
   facet normal 0.000000e+00 0.000000e+00 -1.000000e+00
      outer loop
         vertex 9.593599e+00 -4.869454e+01 3.200000e+01
         vertex 7.252084e+00 -5.123959e+01 3.200000e+01
         vertex 9.202085e+00 -4.748959e+01 3.200000e+01
      endloop
   endfacet
   facet normal 0.000000e+00 0.000000e+00 -1.000000e+00
      outer loop
         vertex 7.252084e+00 -5.123959e+01 3.200000e+01
         vertex 9.593599e+00 -4.119454e+01 3.200000e+01
         vertex 9.202085e+00 -4.748959e+01 3.200000e+01
      endloop
   endfacet
   facet normal 0.000000e+00 -0.000000e+00 -1.000000e+00
      outer loop
         vertex 9.202085e+00 -4.748959e+01 3.200000e+01
         vertex 9.593599e+00 -4.119454e+01 3.200000e+01
         vertex 9.593599e+00 -4.628463e+01 3.200000e+01
      endloop
   endfacet
   facet normal -0.000000e+00 0.000000e+00 -1.000000e+00
      outer loop
         vertex 9.593599e+00 -4.119454e+01 3.200000e+01
         vertex 1.061860e+01 -4.193925e+01 3.200000e+01
         vertex 9.593599e+00 -4.628463e+01 3.200000e+01
      endloop
   endfacet
   facet normal 0.000000e+00 -0.000000e+00 -1.000000e+00
      outer loop
         vertex 9.593599e+00 -4.628463e+01 3.200000e+01
         vertex 1.061860e+01 -4.193925e+01 3.200000e+01
         vertex 1.061860e+01 -4.553992e+01 3.200000e+01
      endloop
   endfacet
   facet normal -0.000000e+00 0.000000e+00 -1.000000e+00
      outer loop
         vertex 1.061860e+01 -4.193925e+01 3.200000e+01
         vertex 1.188557e+01 -4.193925e+01 3.200000e+01
         vertex 1.061860e+01 -4.553992e+01 3.200000e+01
      endloop
   endfacet
   facet normal 0.000000e+00 -0.000000e+00 -1.000000e+00
      outer loop
         vertex 1.061860e+01 -4.553992e+01 3.200000e+01
         vertex 1.188557e+01 -4.193925e+01 3.200000e+01
         vertex 1.188557e+01 -4.553992e+01 3.200000e+01
      endloop
   endfacet
   facet normal 0.000000e+00 0.000000e+00 -1.000000e+00
      outer loop
         vertex 1.188557e+01 -4.193925e+01 3.200000e+01
         vertex 1.291057e+01 -4.119454e+01 3.200000e+01
         vertex 1.188557e+01 -4.553992e+01 3.200000e+01
      endloop
   endfacet
   facet normal 0.000000e+00 -0.000000e+00 -1.000000e+00
      outer loop
         vertex 1.188557e+01 -4.553992e+01 3.200000e+01
         vertex 1.291057e+01 -4.119454e+01 3.200000e+01
         vertex 1.291057e+01 -4.628463e+01 3.200000e+01
      endloop
   endfacet
   facet normal 0.000000e+00 0.000000e+00 -1.000000e+00
      outer loop
         vertex 1.291057e+01 -4.119454e+01 3.200000e+01
         vertex 1.330208e+01 -3.998959e+01 3.200000e+01
         vertex 1.291057e+01 -4.628463e+01 3.200000e+01
      endloop
   endfacet
   facet normal 0.000000e+00 -0.000000e+00 -1.000000e+00
      outer loop
         vertex 1.291057e+01 -4.628463e+01 3.200000e+01
         vertex 1.330208e+01 -3.998959e+01 3.200000e+01
         vertex 1.525208e+01 -3.623959e+01 3.200000e+01
      endloop
   endfacet
   facet normal 0.000000e+00 0.000000e+00 -1.000000e+00
      outer loop
         vertex 1.330208e+01 -3.998959e+01 3.200000e+01
         vertex 1.291057e+01 -3.878463e+01 3.200000e+01
         vertex 1.525208e+01 -3.623959e+01 3.200000e+01
      endloop
   endfacet
   facet normal 0.000000e+00 0.000000e+00 -1.000000e+00
      outer loop
         vertex 9.202085e+00 -3.998959e+01 3.200000e+01
         vertex 7.252084e+00 -3.623959e+01 3.200000e+01
         vertex 9.593599e+00 -3.878463e+01 3.200000e+01
      endloop
   endfacet
   facet normal -0.000000e+00 0.000000e+00 -1.000000e+00
      outer loop
         vertex 7.252084e+00 -3.623959e+01 3.200000e+01
         vertex 1.061860e+01 -3.803992e+01 3.200000e+01
         vertex 9.593599e+00 -3.878463e+01 3.200000e+01
      endloop
   endfacet
   facet normal 0.000000e+00 0.000000e+00 -1.000000e+00
      outer loop
         vertex 1.330208e+01 -4.748959e+01 3.200000e+01
         vertex 1.525208e+01 -5.123959e+01 3.200000e+01
         vertex 1.291057e+01 -4.869454e+01 3.200000e+01
      endloop
   endfacet
   facet normal 0.000000e+00 0.000000e+00 -1.000000e+00
      outer loop
         vertex 1.188557e+01 -3.803992e+01 3.200000e+01
         vertex 1.525208e+01 -3.623959e+01 3.200000e+01
         vertex 1.291057e+01 -3.878463e+01 3.200000e+01
      endloop
   endfacet
   facet normal -0.000000e+00 0.000000e+00 -1.000000e+00
      outer loop
         vertex -4.074792e+01 -3.623959e+01 3.200000e+01
         vertex -3.879792e+01 -3.998959e+01 3.200000e+01
         vertex -4.074792e+01 -5.123959e+01 3.200000e+01
      endloop
   endfacet
   facet normal -0.000000e+00 0.000000e+00 -1.000000e+00
      outer loop
         vertex -3.879792e+01 -3.998959e+01 3.200000e+01
         vertex -3.840640e+01 -4.119454e+01 3.200000e+01
         vertex -4.074792e+01 -5.123959e+01 3.200000e+01
      endloop
   endfacet
   facet normal 0.000000e+00 -0.000000e+00 -1.000000e+00
      outer loop
         vertex -4.074792e+01 -5.123959e+01 3.200000e+01
         vertex -3.738140e+01 -4.943925e+01 3.200000e+01
         vertex -3.274792e+01 -5.123959e+01 3.200000e+01
      endloop
   endfacet
   facet normal -0.000000e+00 -0.000000e+00 -1.000000e+00
      outer loop
         vertex -3.738140e+01 -4.943925e+01 3.200000e+01
         vertex -3.611443e+01 -4.943925e+01 3.200000e+01
         vertex -3.274792e+01 -5.123959e+01 3.200000e+01
      endloop
   endfacet
   facet normal 0.000000e+00 0.000000e+00 -1.000000e+00
      outer loop
         vertex -3.274792e+01 -5.123959e+01 3.200000e+01
         vertex -3.469791e+01 -4.748959e+01 3.200000e+01
         vertex -3.274792e+01 -3.623959e+01 3.200000e+01
      endloop
   endfacet
   facet normal 0.000000e+00 0.000000e+00 -1.000000e+00
      outer loop
         vertex -3.469791e+01 -4.748959e+01 3.200000e+01
         vertex -3.508943e+01 -4.628463e+01 3.200000e+01
         vertex -3.274792e+01 -3.623959e+01 3.200000e+01
      endloop
   endfacet
   facet normal 0.000000e+00 0.000000e+00 -1.000000e+00
      outer loop
         vertex -3.274792e+01 -3.623959e+01 3.200000e+01
         vertex -3.611443e+01 -3.803992e+01 3.200000e+01
         vertex -4.074792e+01 -3.623959e+01 3.200000e+01
      endloop
   endfacet
   facet normal 0.000000e+00 0.000000e+00 -1.000000e+00
      outer loop
         vertex -3.611443e+01 -3.803992e+01 3.200000e+01
         vertex -3.738140e+01 -3.803992e+01 3.200000e+01
         vertex -4.074792e+01 -3.623959e+01 3.200000e+01
      endloop
   endfacet
   facet normal -0.000000e+00 0.000000e+00 -1.000000e+00
      outer loop
         vertex -4.074792e+01 -3.623959e+01 3.200000e+01
         vertex -3.738140e+01 -3.803992e+01 3.200000e+01
         vertex -3.840640e+01 -3.878463e+01 3.200000e+01
      endloop
   endfacet
   facet normal 0.000000e+00 0.000000e+00 -1.000000e+00
      outer loop
         vertex -3.611443e+01 -3.803992e+01 3.200000e+01
         vertex -3.274792e+01 -3.623959e+01 3.200000e+01
         vertex -3.508943e+01 -3.878463e+01 3.200000e+01
      endloop
   endfacet
   facet normal 0.000000e+00 0.000000e+00 -1.000000e+00
      outer loop
         vertex -3.508943e+01 -3.878463e+01 3.200000e+01
         vertex -3.274792e+01 -3.623959e+01 3.200000e+01
         vertex -3.469791e+01 -3.998959e+01 3.200000e+01
      endloop
   endfacet
   facet normal 0.000000e+00 0.000000e+00 -1.000000e+00
      outer loop
         vertex -3.274792e+01 -3.623959e+01 3.200000e+01
         vertex -3.508943e+01 -4.628463e+01 3.200000e+01
         vertex -3.469791e+01 -3.998959e+01 3.200000e+01
      endloop
   endfacet
   facet normal 0.000000e+00 0.000000e+00 -1.000000e+00
      outer loop
         vertex -3.469791e+01 -3.998959e+01 3.200000e+01
         vertex -3.508943e+01 -4.628463e+01 3.200000e+01
         vertex -3.508943e+01 -4.119454e+01 3.200000e+01
      endloop
   endfacet
   facet normal 0.000000e+00 0.000000e+00 -1.000000e+00
      outer loop
         vertex -3.508943e+01 -4.628463e+01 3.200000e+01
         vertex -3.611443e+01 -4.553992e+01 3.200000e+01
         vertex -3.508943e+01 -4.119454e+01 3.200000e+01
      endloop
   endfacet
   facet normal 0.000000e+00 0.000000e+00 -1.000000e+00
      outer loop
         vertex -3.508943e+01 -4.119454e+01 3.200000e+01
         vertex -3.611443e+01 -4.553992e+01 3.200000e+01
         vertex -3.611443e+01 -4.193925e+01 3.200000e+01
      endloop
   endfacet
   facet normal 0.000000e+00 0.000000e+00 -1.000000e+00
      outer loop
         vertex -3.611443e+01 -4.553992e+01 3.200000e+01
         vertex -3.738140e+01 -4.553992e+01 3.200000e+01
         vertex -3.611443e+01 -4.193925e+01 3.200000e+01
      endloop
   endfacet
   facet normal 0.000000e+00 0.000000e+00 -1.000000e+00
      outer loop
         vertex -3.611443e+01 -4.193925e+01 3.200000e+01
         vertex -3.738140e+01 -4.553992e+01 3.200000e+01
         vertex -3.738140e+01 -4.193925e+01 3.200000e+01
      endloop
   endfacet
   facet normal 0.000000e+00 0.000000e+00 -1.000000e+00
      outer loop
         vertex -3.738140e+01 -4.553992e+01 3.200000e+01
         vertex -3.840640e+01 -4.628463e+01 3.200000e+01
         vertex -3.738140e+01 -4.193925e+01 3.200000e+01
      endloop
   endfacet
   facet normal 0.000000e+00 0.000000e+00 -1.000000e+00
      outer loop
         vertex -3.738140e+01 -4.193925e+01 3.200000e+01
         vertex -3.840640e+01 -4.628463e+01 3.200000e+01
         vertex -3.840640e+01 -4.119454e+01 3.200000e+01
      endloop
   endfacet
   facet normal 0.000000e+00 0.000000e+00 -1.000000e+00
      outer loop
         vertex -3.840640e+01 -4.628463e+01 3.200000e+01
         vertex -3.879792e+01 -4.748959e+01 3.200000e+01
         vertex -3.840640e+01 -4.119454e+01 3.200000e+01
      endloop
   endfacet
   facet normal -0.000000e+00 0.000000e+00 -1.000000e+00
      outer loop
         vertex -3.840640e+01 -4.119454e+01 3.200000e+01
         vertex -3.879792e+01 -4.748959e+01 3.200000e+01
         vertex -4.074792e+01 -5.123959e+01 3.200000e+01
      endloop
   endfacet
   facet normal -0.000000e+00 0.000000e+00 -1.000000e+00
      outer loop
         vertex -3.879792e+01 -4.748959e+01 3.200000e+01
         vertex -3.840640e+01 -4.869454e+01 3.200000e+01
         vertex -4.074792e+01 -5.123959e+01 3.200000e+01
      endloop
   endfacet
   facet normal 0.000000e+00 0.000000e+00 -1.000000e+00
      outer loop
         vertex -3.469791e+01 -4.748959e+01 3.200000e+01
         vertex -3.274792e+01 -5.123959e+01 3.200000e+01
         vertex -3.508943e+01 -4.869454e+01 3.200000e+01
      endloop
   endfacet
   facet normal 0.000000e+00 0.000000e+00 -1.000000e+00
      outer loop
         vertex -3.274792e+01 -5.123959e+01 3.200000e+01
         vertex -3.611443e+01 -4.943925e+01 3.200000e+01
         vertex -3.508943e+01 -4.869454e+01 3.200000e+01
      endloop
   endfacet
   facet normal 0.000000e+00 0.000000e+00 -1.000000e+00
      outer loop
         vertex -3.879792e+01 -3.998959e+01 3.200000e+01
         vertex -4.074792e+01 -3.623959e+01 3.200000e+01
         vertex -3.840640e+01 -3.878463e+01 3.200000e+01
      endloop
   endfacet
   facet normal 0.000000e+00 0.000000e+00 -1.000000e+00
      outer loop
         vertex -3.738140e+01 -4.943925e+01 3.200000e+01
         vertex -4.074792e+01 -5.123959e+01 3.200000e+01
         vertex -3.840640e+01 -4.869454e+01 3.200000e+01
      endloop
   endfacet
   facet normal 9.980761e-01 6.200128e-02 -0.000000e+00
      outer loop
         vertex 5.140744e+00 -4.877303e+01 2.000000e+00
         vertex 4.804069e+00 -4.335335e+01 2.000000e+00
         vertex 4.804069e+00 -4.335335e+01 3.200000e+01
      endloop
   endfacet
   facet normal 9.980761e-01 6.200128e-02 0.000000e+00
      outer loop
         vertex 5.140744e+00 -4.877303e+01 2.000000e+00
         vertex 4.804069e+00 -4.335335e+01 3.200000e+01
         vertex 5.140744e+00 -4.877303e+01 3.200000e+01
      endloop
   endfacet
   facet normal 9.965906e-01 -8.250548e-02 0.000000e+00
      outer loop
         vertex 4.804069e+00 -4.335335e+01 2.000000e+00
         vertex 5.252084e+00 -3.794174e+01 2.000000e+00
         vertex 5.252084e+00 -3.794174e+01 3.200000e+01
      endloop
   endfacet
   facet normal 9.965906e-01 -8.250548e-02 0.000000e+00
      outer loop
         vertex 4.804069e+00 -4.335335e+01 2.000000e+00
         vertex 5.252084e+00 -3.794174e+01 3.200000e+01
         vertex 4.804069e+00 -4.335335e+01 3.200000e+01
      endloop
   endfacet
   facet normal 0.000000e+00 0.000000e+00 1.000000e+00
      outer loop
         vertex 5.252084e+00 -5.123959e+01 2.000000e+00
         vertex 5.140744e+00 -4.877303e+01 2.000000e+00
         vertex -3.074792e+01 -5.123959e+01 2.000000e+00
      endloop
   endfacet
   facet normal -0.000000e+00 0.000000e+00 1.000000e+00
      outer loop
         vertex 5.140744e+00 -4.877303e+01 2.000000e+00
         vertex 4.838037e+00 -4.877303e+01 2.000000e+00
         vertex -3.074792e+01 -5.123959e+01 2.000000e+00
      endloop
   endfacet
   facet normal 0.000000e+00 0.000000e+00 1.000000e+00
      outer loop
         vertex -3.074792e+01 -5.123959e+01 2.000000e+00
         vertex -3.033387e+01 -4.877303e+01 2.000000e+00
         vertex -3.074792e+01 -3.623959e+01 2.000000e+00
      endloop
   endfacet
   facet normal 0.000000e+00 0.000000e+00 1.000000e+00
      outer loop
         vertex -3.033387e+01 -4.877303e+01 2.000000e+00
         vertex -3.001857e+01 -4.248905e+01 2.000000e+00
         vertex -3.074792e+01 -3.623959e+01 2.000000e+00
      endloop
   endfacet
   facet normal 0.000000e+00 0.000000e+00 1.000000e+00
      outer loop
         vertex -3.033387e+01 -4.877303e+01 2.000000e+00
         vertex -3.074792e+01 -5.123959e+01 2.000000e+00
         vertex -3.003121e+01 -4.877303e+01 2.000000e+00
      endloop
   endfacet
   facet normal 0.000000e+00 0.000000e+00 1.000000e+00
      outer loop
         vertex -3.074792e+01 -5.123959e+01 2.000000e+00
         vertex 4.838037e+00 -4.877303e+01 2.000000e+00
         vertex -3.003121e+01 -4.877303e+01 2.000000e+00
      endloop
   endfacet
   facet normal 0.000000e+00 0.000000e+00 1.000000e+00
      outer loop
         vertex -3.003121e+01 -4.877303e+01 2.000000e+00
         vertex 4.838037e+00 -4.877303e+01 2.000000e+00
         vertex -2.971840e+01 -4.248933e+01 2.000000e+00
      endloop
   endfacet
   facet normal 0.000000e+00 0.000000e+00 1.000000e+00
      outer loop
         vertex 4.838037e+00 -4.877303e+01 2.000000e+00
         vertex 4.522735e+00 -4.248905e+01 2.000000e+00
         vertex -2.971840e+01 -4.248933e+01 2.000000e+00
      endloop
   endfacet
   facet normal 0.000000e+00 0.000000e+00 1.000000e+00
      outer loop
         vertex -2.971840e+01 -4.248933e+01 2.000000e+00
         vertex 4.522735e+00 -4.248905e+01 2.000000e+00
         vertex -3.044190e+01 -3.623959e+01 2.000000e+00
      endloop
   endfacet
   facet normal 0.000000e+00 0.000000e+00 1.000000e+00
      outer loop
         vertex 4.522735e+00 -4.248905e+01 2.000000e+00
         vertex 5.252084e+00 -3.623959e+01 2.000000e+00
         vertex -3.044190e+01 -3.623959e+01 2.000000e+00
      endloop
   endfacet
   facet normal 0.000000e+00 0.000000e+00 1.000000e+00
      outer loop
         vertex 5.252084e+00 -5.123959e+01 2.000000e+00
         vertex 5.252084e+00 -3.794174e+01 2.000000e+00
         vertex 5.140744e+00 -4.877303e+01 2.000000e+00
      endloop
   endfacet
   facet normal -0.000000e+00 0.000000e+00 1.000000e+00
      outer loop
         vertex 5.252084e+00 -3.794174e+01 2.000000e+00
         vertex 4.804069e+00 -4.335335e+01 2.000000e+00
         vertex 5.140744e+00 -4.877303e+01 2.000000e+00
      endloop
   endfacet
   facet normal 0.000000e+00 -0.000000e+00 1.000000e+00
      outer loop
         vertex 4.522735e+00 -4.248905e+01 3.200000e+01
         vertex 4.804069e+00 -4.335335e+01 3.200000e+01
         vertex 5.252084e+00 -3.623959e+01 3.200000e+01
      endloop
   endfacet
   facet normal 0.000000e+00 -0.000000e+00 1.000000e+00
      outer loop
         vertex 4.804069e+00 -4.335335e+01 3.200000e+01
         vertex 5.252084e+00 -3.794174e+01 3.200000e+01
         vertex 5.252084e+00 -3.623959e+01 3.200000e+01
      endloop
   endfacet
   facet normal 0.000000e+00 0.000000e+00 1.000000e+00
      outer loop
         vertex 4.804069e+00 -4.335335e+01 3.200000e+01
         vertex 4.522735e+00 -4.248905e+01 3.200000e+01
         vertex 5.140744e+00 -4.877303e+01 3.200000e+01
      endloop
   endfacet
   facet normal 0.000000e+00 -0.000000e+00 1.000000e+00
      outer loop
         vertex 4.522735e+00 -4.248905e+01 3.200000e+01
         vertex 4.838037e+00 -4.877303e+01 3.200000e+01
         vertex 5.140744e+00 -4.877303e+01 3.200000e+01
      endloop
   endfacet
   facet normal -1.000000e+00 0.000000e+00 0.000000e+00
      outer loop
         vertex -4.074792e+01 -3.623959e+01 3.400000e+01
         vertex -4.074792e+01 -3.623959e+01 3.200000e+01
         vertex -4.074792e+01 -5.123959e+01 3.200000e+01
      endloop
   endfacet
   facet normal -1.000000e+00 0.000000e+00 0.000000e+00
      outer loop
         vertex -4.074792e+01 -3.623959e+01 3.400000e+01
         vertex -4.074792e+01 -5.123959e+01 3.200000e+01
         vertex -4.074792e+01 -5.123959e+01 3.400000e+01
      endloop
   endfacet
   facet normal 0.000000e+00 0.000000e+00 -1.000000e+00
      outer loop
         vertex -3.274792e+01 -5.123959e+01 0.000000e+00
         vertex -3.274792e+01 -3.623959e+01 0.000000e+00
         vertex 7.252084e+00 -3.623959e+01 0.000000e+00
      endloop
   endfacet
   facet normal 0.000000e+00 0.000000e+00 -1.000000e+00
      outer loop
         vertex 7.252084e+00 -5.123959e+01 0.000000e+00
         vertex -3.274792e+01 -5.123959e+01 0.000000e+00
         vertex 7.252084e+00 -3.623959e+01 0.000000e+00
      endloop
   endfacet
   facet normal 1.000000e+00 0.000000e+00 0.000000e+00
      outer loop
         vertex 1.525208e+01 -5.123959e+01 3.400000e+01
         vertex 1.525208e+01 -5.123959e+01 3.200000e+01
         vertex 1.525208e+01 -3.623959e+01 3.200000e+01
      endloop
   endfacet
   facet normal 1.000000e+00 0.000000e+00 -0.000000e+00
      outer loop
         vertex 1.525208e+01 -5.123959e+01 3.400000e+01
         vertex 1.525208e+01 -3.623959e+01 3.200000e+01
         vertex 1.525208e+01 -3.623959e+01 3.400000e+01
      endloop
   endfacet
   facet normal 9.510563e-01 3.090176e-01 -0.000000e+00
      outer loop
         vertex 9.593599e+00 -4.869454e+01 3.400000e+01
         vertex 9.593599e+00 -4.869454e+01 3.200000e+01
         vertex 9.202085e+00 -4.748959e+01 3.200000e+01
      endloop
   endfacet
   facet normal 9.510563e-01 3.090176e-01 0.000000e+00
      outer loop
         vertex 9.202085e+00 -4.748959e+01 3.400000e+01
         vertex 9.593599e+00 -4.869454e+01 3.400000e+01
         vertex 9.202085e+00 -4.748959e+01 3.200000e+01
      endloop
   endfacet
   facet normal 5.877869e-01 8.090158e-01 -0.000000e+00
      outer loop
         vertex 1.061860e+01 -4.943925e+01 3.400000e+01
         vertex 1.061860e+01 -4.943925e+01 3.200000e+01
         vertex 9.593599e+00 -4.869454e+01 3.200000e+01
      endloop
   endfacet
   facet normal 5.877869e-01 8.090158e-01 0.000000e+00
      outer loop
         vertex 9.593599e+00 -4.869454e+01 3.400000e+01
         vertex 1.061860e+01 -4.943925e+01 3.400000e+01
         vertex 9.593599e+00 -4.869454e+01 3.200000e+01
      endloop
   endfacet
   facet normal 0.000000e+00 1.000000e+00 -0.000000e+00
      outer loop
         vertex 1.188557e+01 -4.943925e+01 3.400000e+01
         vertex 1.188557e+01 -4.943925e+01 3.200000e+01
         vertex 1.061860e+01 -4.943925e+01 3.200000e+01
      endloop
   endfacet
   facet normal 0.000000e+00 1.000000e+00 0.000000e+00
      outer loop
         vertex 1.061860e+01 -4.943925e+01 3.400000e+01
         vertex 1.188557e+01 -4.943925e+01 3.400000e+01
         vertex 1.061860e+01 -4.943925e+01 3.200000e+01
      endloop
   endfacet
   facet normal -5.877865e-01 8.090161e-01 0.000000e+00
      outer loop
         vertex 1.291057e+01 -4.869454e+01 3.400000e+01
         vertex 1.291057e+01 -4.869454e+01 3.200000e+01
         vertex 1.188557e+01 -4.943925e+01 3.200000e+01
      endloop
   endfacet
   facet normal -5.877865e-01 8.090161e-01 0.000000e+00
      outer loop
         vertex 1.188557e+01 -4.943925e+01 3.400000e+01
         vertex 1.291057e+01 -4.869454e+01 3.400000e+01
         vertex 1.188557e+01 -4.943925e+01 3.200000e+01
      endloop
   endfacet
   facet normal -9.510563e-01 3.090176e-01 0.000000e+00
      outer loop
         vertex 1.330208e+01 -4.748959e+01 3.400000e+01
         vertex 1.330208e+01 -4.748959e+01 3.200000e+01
         vertex 1.291057e+01 -4.869454e+01 3.200000e+01
      endloop
   endfacet
   facet normal -9.510563e-01 3.090176e-01 0.000000e+00
      outer loop
         vertex 1.291057e+01 -4.869454e+01 3.400000e+01
         vertex 1.330208e+01 -4.748959e+01 3.400000e+01
         vertex 1.291057e+01 -4.869454e+01 3.200000e+01
      endloop
   endfacet
   facet normal -9.510566e-01 -3.090167e-01 0.000000e+00
      outer loop
         vertex 1.291057e+01 -4.628463e+01 3.400000e+01
         vertex 1.291057e+01 -4.628463e+01 3.200000e+01
         vertex 1.330208e+01 -4.748959e+01 3.200000e+01
      endloop
   endfacet
   facet normal -9.510566e-01 -3.090167e-01 0.000000e+00
      outer loop
         vertex 1.330208e+01 -4.748959e+01 3.400000e+01
         vertex 1.291057e+01 -4.628463e+01 3.400000e+01
         vertex 1.330208e+01 -4.748959e+01 3.200000e+01
      endloop
   endfacet
   facet normal -5.877865e-01 -8.090161e-01 0.000000e+00
      outer loop
         vertex 1.188557e+01 -4.553992e+01 3.400000e+01
         vertex 1.188557e+01 -4.553992e+01 3.200000e+01
         vertex 1.291057e+01 -4.628463e+01 3.200000e+01
      endloop
   endfacet
   facet normal -5.877865e-01 -8.090161e-01 0.000000e+00
      outer loop
         vertex 1.291057e+01 -4.628463e+01 3.400000e+01
         vertex 1.188557e+01 -4.553992e+01 3.400000e+01
         vertex 1.291057e+01 -4.628463e+01 3.200000e+01
      endloop
   endfacet
   facet normal 0.000000e+00 -1.000000e+00 0.000000e+00
      outer loop
         vertex 1.061860e+01 -4.553992e+01 3.400000e+01
         vertex 1.061860e+01 -4.553992e+01 3.200000e+01
         vertex 1.188557e+01 -4.553992e+01 3.200000e+01
      endloop
   endfacet
   facet normal 0.000000e+00 -1.000000e+00 0.000000e+00
      outer loop
         vertex 1.188557e+01 -4.553992e+01 3.400000e+01
         vertex 1.061860e+01 -4.553992e+01 3.400000e+01
         vertex 1.188557e+01 -4.553992e+01 3.200000e+01
      endloop
   endfacet
   facet normal 5.877869e-01 -8.090158e-01 0.000000e+00
      outer loop
         vertex 9.593599e+00 -4.628463e+01 3.400000e+01
         vertex 9.593599e+00 -4.628463e+01 3.200000e+01
         vertex 1.061860e+01 -4.553992e+01 3.200000e+01
      endloop
   endfacet
   facet normal 5.877869e-01 -8.090158e-01 0.000000e+00
      outer loop
         vertex 1.061860e+01 -4.553992e+01 3.400000e+01
         vertex 9.593599e+00 -4.628463e+01 3.400000e+01
         vertex 1.061860e+01 -4.553992e+01 3.200000e+01
      endloop
   endfacet
   facet normal 9.510566e-01 -3.090167e-01 0.000000e+00
      outer loop
         vertex 9.202085e+00 -4.748959e+01 3.400000e+01
         vertex 9.202085e+00 -4.748959e+01 3.200000e+01
         vertex 9.593599e+00 -4.628463e+01 3.200000e+01
      endloop
   endfacet
   facet normal 9.510566e-01 -3.090167e-01 0.000000e+00
      outer loop
         vertex 9.593599e+00 -4.628463e+01 3.400000e+01
         vertex 9.202085e+00 -4.748959e+01 3.400000e+01
         vertex 9.593599e+00 -4.628463e+01 3.200000e+01
      endloop
   endfacet
   facet normal 9.510563e-01 3.090176e-01 -0.000000e+00
      outer loop
         vertex 9.593599e+00 -4.119454e+01 3.400000e+01
         vertex 9.593599e+00 -4.119454e+01 3.200000e+01
         vertex 9.202085e+00 -3.998959e+01 3.200000e+01
      endloop
   endfacet
   facet normal 9.510563e-01 3.090176e-01 0.000000e+00
      outer loop
         vertex 9.202085e+00 -3.998959e+01 3.400000e+01
         vertex 9.593599e+00 -4.119454e+01 3.400000e+01
         vertex 9.202085e+00 -3.998959e+01 3.200000e+01
      endloop
   endfacet
   facet normal 5.877869e-01 8.090158e-01 -0.000000e+00
      outer loop
         vertex 1.061860e+01 -4.193925e+01 3.400000e+01
         vertex 1.061860e+01 -4.193925e+01 3.200000e+01
         vertex 9.593599e+00 -4.119454e+01 3.200000e+01
      endloop
   endfacet
   facet normal 5.877869e-01 8.090158e-01 0.000000e+00
      outer loop
         vertex 9.593599e+00 -4.119454e+01 3.400000e+01
         vertex 1.061860e+01 -4.193925e+01 3.400000e+01
         vertex 9.593599e+00 -4.119454e+01 3.200000e+01
      endloop
   endfacet
   facet normal 0.000000e+00 1.000000e+00 -0.000000e+00
      outer loop
         vertex 1.188557e+01 -4.193925e+01 3.400000e+01
         vertex 1.188557e+01 -4.193925e+01 3.200000e+01
         vertex 1.061860e+01 -4.193925e+01 3.200000e+01
      endloop
   endfacet
   facet normal 0.000000e+00 1.000000e+00 0.000000e+00
      outer loop
         vertex 1.061860e+01 -4.193925e+01 3.400000e+01
         vertex 1.188557e+01 -4.193925e+01 3.400000e+01
         vertex 1.061860e+01 -4.193925e+01 3.200000e+01
      endloop
   endfacet
   facet normal -5.877865e-01 8.090161e-01 0.000000e+00
      outer loop
         vertex 1.291057e+01 -4.119454e+01 3.400000e+01
         vertex 1.291057e+01 -4.119454e+01 3.200000e+01
         vertex 1.188557e+01 -4.193925e+01 3.200000e+01
      endloop
   endfacet
   facet normal -5.877865e-01 8.090161e-01 0.000000e+00
      outer loop
         vertex 1.188557e+01 -4.193925e+01 3.400000e+01
         vertex 1.291057e+01 -4.119454e+01 3.400000e+01
         vertex 1.188557e+01 -4.193925e+01 3.200000e+01
      endloop
   endfacet
   facet normal -9.510563e-01 3.090176e-01 0.000000e+00
      outer loop
         vertex 1.330208e+01 -3.998959e+01 3.400000e+01
         vertex 1.330208e+01 -3.998959e+01 3.200000e+01
         vertex 1.291057e+01 -4.119454e+01 3.200000e+01
      endloop
   endfacet
   facet normal -9.510563e-01 3.090176e-01 0.000000e+00
      outer loop
         vertex 1.291057e+01 -4.119454e+01 3.400000e+01
         vertex 1.330208e+01 -3.998959e+01 3.400000e+01
         vertex 1.291057e+01 -4.119454e+01 3.200000e+01
      endloop
   endfacet
   facet normal -9.510566e-01 -3.090167e-01 0.000000e+00
      outer loop
         vertex 1.291057e+01 -3.878463e+01 3.400000e+01
         vertex 1.291057e+01 -3.878463e+01 3.200000e+01
         vertex 1.330208e+01 -3.998959e+01 3.200000e+01
      endloop
   endfacet
   facet normal -9.510566e-01 -3.090167e-01 0.000000e+00
      outer loop
         vertex 1.330208e+01 -3.998959e+01 3.400000e+01
         vertex 1.291057e+01 -3.878463e+01 3.400000e+01
         vertex 1.330208e+01 -3.998959e+01 3.200000e+01
      endloop
   endfacet
   facet normal -5.877865e-01 -8.090161e-01 0.000000e+00
      outer loop
         vertex 1.188557e+01 -3.803992e+01 3.400000e+01
         vertex 1.188557e+01 -3.803992e+01 3.200000e+01
         vertex 1.291057e+01 -3.878463e+01 3.200000e+01
      endloop
   endfacet
   facet normal -5.877865e-01 -8.090161e-01 0.000000e+00
      outer loop
         vertex 1.291057e+01 -3.878463e+01 3.400000e+01
         vertex 1.188557e+01 -3.803992e+01 3.400000e+01
         vertex 1.291057e+01 -3.878463e+01 3.200000e+01
      endloop
   endfacet
   facet normal 0.000000e+00 -1.000000e+00 0.000000e+00
      outer loop
         vertex 1.061860e+01 -3.803992e+01 3.400000e+01
         vertex 1.061860e+01 -3.803992e+01 3.200000e+01
         vertex 1.188557e+01 -3.803992e+01 3.200000e+01
      endloop
   endfacet
   facet normal 0.000000e+00 -1.000000e+00 0.000000e+00
      outer loop
         vertex 1.188557e+01 -3.803992e+01 3.400000e+01
         vertex 1.061860e+01 -3.803992e+01 3.400000e+01
         vertex 1.188557e+01 -3.803992e+01 3.200000e+01
      endloop
   endfacet
   facet normal 5.877869e-01 -8.090158e-01 0.000000e+00
      outer loop
         vertex 9.593599e+00 -3.878463e+01 3.400000e+01
         vertex 9.593599e+00 -3.878463e+01 3.200000e+01
         vertex 1.061860e+01 -3.803992e+01 3.200000e+01
      endloop
   endfacet
   facet normal 5.877869e-01 -8.090158e-01 0.000000e+00
      outer loop
         vertex 1.061860e+01 -3.803992e+01 3.400000e+01
         vertex 9.593599e+00 -3.878463e+01 3.400000e+01
         vertex 1.061860e+01 -3.803992e+01 3.200000e+01
      endloop
   endfacet
   facet normal 9.510566e-01 -3.090167e-01 0.000000e+00
      outer loop
         vertex 9.202085e+00 -3.998959e+01 3.400000e+01
         vertex 9.202085e+00 -3.998959e+01 3.200000e+01
         vertex 9.593599e+00 -3.878463e+01 3.200000e+01
      endloop
   endfacet
   facet normal 9.510566e-01 -3.090167e-01 0.000000e+00
      outer loop
         vertex 9.593599e+00 -3.878463e+01 3.400000e+01
         vertex 9.202085e+00 -3.998959e+01 3.400000e+01
         vertex 9.593599e+00 -3.878463e+01 3.200000e+01
      endloop
   endfacet
   facet normal -9.932587e-01 1.159192e-01 0.000000e+00
      outer loop
         vertex 5.252084e+00 -3.623959e+01 2.000000e+00
         vertex 4.522735e+00 -4.248905e+01 2.000000e+00
         vertex 4.522735e+00 -4.248905e+01 3.200000e+01
      endloop
   endfacet
   facet normal -9.932587e-01 1.159192e-01 0.000000e+00
      outer loop
         vertex 5.252084e+00 -3.623959e+01 2.000000e+00
         vertex 4.522735e+00 -4.248905e+01 3.200000e+01
         vertex 5.252084e+00 -3.623959e+01 3.200000e+01
      endloop
   endfacet
   facet normal -9.987436e-01 -5.011256e-02 0.000000e+00
      outer loop
         vertex 4.522735e+00 -4.248905e+01 2.000000e+00
         vertex 4.838037e+00 -4.877303e+01 2.000000e+00
         vertex 4.838037e+00 -4.877303e+01 3.200000e+01
      endloop
   endfacet
   facet normal -9.987436e-01 -5.011256e-02 0.000000e+00
      outer loop
         vertex 4.522735e+00 -4.248905e+01 2.000000e+00
         vertex 4.838037e+00 -4.877303e+01 3.200000e+01
         vertex 4.522735e+00 -4.248905e+01 3.200000e+01
      endloop
   endfacet
   facet normal 0.000000e+00 0.000000e+00 -1.000000e+00
      outer loop
         vertex -3.044787e+01 -3.620988e+01 2.000000e+00
         vertex -3.044190e+01 -3.623959e+01 2.000000e+00
         vertex -3.045386e+01 -3.618018e+01 2.000000e+00
      endloop
   endfacet
   facet normal 0.000000e+00 0.000000e+00 -1.000000e+00
      outer loop
         vertex -3.044190e+01 -3.623959e+01 2.000000e+00
         vertex -3.074792e+01 -3.623959e+01 2.000000e+00
         vertex -3.045386e+01 -3.618018e+01 2.000000e+00
      endloop
   endfacet
   facet normal 9.510565e-01 3.090169e-01 -0.000000e+00
      outer loop
         vertex -3.840640e+01 -4.119454e+01 3.400000e+01
         vertex -3.840640e+01 -4.119454e+01 3.200000e+01
         vertex -3.879792e+01 -3.998959e+01 3.200000e+01
      endloop
   endfacet
   facet normal 9.510565e-01 3.090169e-01 0.000000e+00
      outer loop
         vertex -3.879792e+01 -3.998959e+01 3.400000e+01
         vertex -3.840640e+01 -4.119454e+01 3.400000e+01
         vertex -3.879792e+01 -3.998959e+01 3.200000e+01
      endloop
   endfacet
   facet normal 5.877862e-01 8.090163e-01 -0.000000e+00
      outer loop
         vertex -3.738140e+01 -4.193925e+01 3.400000e+01
         vertex -3.738140e+01 -4.193925e+01 3.200000e+01
         vertex -3.840640e+01 -4.119454e+01 3.200000e+01
      endloop
   endfacet
   facet normal 5.877862e-01 8.090163e-01 0.000000e+00
      outer loop
         vertex -3.840640e+01 -4.119454e+01 3.400000e+01
         vertex -3.738140e+01 -4.193925e+01 3.400000e+01
         vertex -3.840640e+01 -4.119454e+01 3.200000e+01
      endloop
   endfacet
   facet normal 0.000000e+00 1.000000e+00 -0.000000e+00
      outer loop
         vertex -3.611443e+01 -4.193925e+01 3.400000e+01
         vertex -3.611443e+01 -4.193925e+01 3.200000e+01
         vertex -3.738140e+01 -4.193925e+01 3.200000e+01
      endloop
   endfacet
   facet normal 0.000000e+00 1.000000e+00 0.000000e+00
      outer loop
         vertex -3.738140e+01 -4.193925e+01 3.400000e+01
         vertex -3.611443e+01 -4.193925e+01 3.400000e+01
         vertex -3.738140e+01 -4.193925e+01 3.200000e+01
      endloop
   endfacet
   facet normal -5.877876e-01 8.090153e-01 0.000000e+00
      outer loop
         vertex -3.508943e+01 -4.119454e+01 3.400000e+01
         vertex -3.508943e+01 -4.119454e+01 3.200000e+01
         vertex -3.611443e+01 -4.193925e+01 3.200000e+01
      endloop
   endfacet
   facet normal -5.877876e-01 8.090153e-01 0.000000e+00
      outer loop
         vertex -3.611443e+01 -4.193925e+01 3.400000e+01
         vertex -3.508943e+01 -4.119454e+01 3.400000e+01
         vertex -3.611443e+01 -4.193925e+01 3.200000e+01
      endloop
   endfacet
   facet normal -9.510557e-01 3.090196e-01 0.000000e+00
      outer loop
         vertex -3.469791e+01 -3.998959e+01 3.400000e+01
         vertex -3.469791e+01 -3.998959e+01 3.200000e+01
         vertex -3.508943e+01 -4.119454e+01 3.200000e+01
      endloop
   endfacet
   facet normal -9.510557e-01 3.090196e-01 0.000000e+00
      outer loop
         vertex -3.508943e+01 -4.119454e+01 3.400000e+01
         vertex -3.469791e+01 -3.998959e+01 3.400000e+01
         vertex -3.508943e+01 -4.119454e+01 3.200000e+01
      endloop
   endfacet
   facet normal -9.510559e-01 -3.090187e-01 0.000000e+00
      outer loop
         vertex -3.508943e+01 -3.878463e+01 3.400000e+01
         vertex -3.508943e+01 -3.878463e+01 3.200000e+01
         vertex -3.469791e+01 -3.998959e+01 3.200000e+01
      endloop
   endfacet
   facet normal -9.510559e-01 -3.090187e-01 0.000000e+00
      outer loop
         vertex -3.469791e+01 -3.998959e+01 3.400000e+01
         vertex -3.508943e+01 -3.878463e+01 3.400000e+01
         vertex -3.469791e+01 -3.998959e+01 3.200000e+01
      endloop
   endfacet
   facet normal -5.877876e-01 -8.090153e-01 0.000000e+00
      outer loop
         vertex -3.611443e+01 -3.803992e+01 3.400000e+01
         vertex -3.611443e+01 -3.803992e+01 3.200000e+01
         vertex -3.508943e+01 -3.878463e+01 3.200000e+01
      endloop
   endfacet
   facet normal -5.877876e-01 -8.090153e-01 0.000000e+00
      outer loop
         vertex -3.508943e+01 -3.878463e+01 3.400000e+01
         vertex -3.611443e+01 -3.803992e+01 3.400000e+01
         vertex -3.508943e+01 -3.878463e+01 3.200000e+01
      endloop
   endfacet
   facet normal 0.000000e+00 -1.000000e+00 0.000000e+00
      outer loop
         vertex -3.738140e+01 -3.803992e+01 3.400000e+01
         vertex -3.738140e+01 -3.803992e+01 3.200000e+01
         vertex -3.611443e+01 -3.803992e+01 3.200000e+01
      endloop
   endfacet
   facet normal 0.000000e+00 -1.000000e+00 0.000000e+00
      outer loop
         vertex -3.611443e+01 -3.803992e+01 3.400000e+01
         vertex -3.738140e+01 -3.803992e+01 3.400000e+01
         vertex -3.611443e+01 -3.803992e+01 3.200000e+01
      endloop
   endfacet
   facet normal 5.877862e-01 -8.090163e-01 0.000000e+00
      outer loop
         vertex -3.840640e+01 -3.878463e+01 3.400000e+01
         vertex -3.840640e+01 -3.878463e+01 3.200000e+01
         vertex -3.738140e+01 -3.803992e+01 3.200000e+01
      endloop
   endfacet
   facet normal 5.877862e-01 -8.090163e-01 0.000000e+00
      outer loop
         vertex -3.738140e+01 -3.803992e+01 3.400000e+01
         vertex -3.840640e+01 -3.878463e+01 3.400000e+01
         vertex -3.738140e+01 -3.803992e+01 3.200000e+01
      endloop
   endfacet
   facet normal 9.510568e-01 -3.090160e-01 0.000000e+00
      outer loop
         vertex -3.879792e+01 -3.998959e+01 3.400000e+01
         vertex -3.879792e+01 -3.998959e+01 3.200000e+01
         vertex -3.840640e+01 -3.878463e+01 3.200000e+01
      endloop
   endfacet
   facet normal 9.510568e-01 -3.090160e-01 0.000000e+00
      outer loop
         vertex -3.840640e+01 -3.878463e+01 3.400000e+01
         vertex -3.879792e+01 -3.998959e+01 3.400000e+01
         vertex -3.840640e+01 -3.878463e+01 3.200000e+01
      endloop
   endfacet
   facet normal 9.510565e-01 3.090169e-01 -0.000000e+00
      outer loop
         vertex -3.840640e+01 -4.869454e+01 3.400000e+01
         vertex -3.840640e+01 -4.869454e+01 3.200000e+01
         vertex -3.879792e+01 -4.748959e+01 3.200000e+01
      endloop
   endfacet
   facet normal 9.510565e-01 3.090169e-01 0.000000e+00
      outer loop
         vertex -3.879792e+01 -4.748959e+01 3.400000e+01
         vertex -3.840640e+01 -4.869454e+01 3.400000e+01
         vertex -3.879792e+01 -4.748959e+01 3.200000e+01
      endloop
   endfacet
   facet normal 5.877862e-01 8.090163e-01 -0.000000e+00
      outer loop
         vertex -3.738140e+01 -4.943925e+01 3.400000e+01
         vertex -3.738140e+01 -4.943925e+01 3.200000e+01
         vertex -3.840640e+01 -4.869454e+01 3.200000e+01
      endloop
   endfacet
   facet normal 5.877862e-01 8.090163e-01 0.000000e+00
      outer loop
         vertex -3.840640e+01 -4.869454e+01 3.400000e+01
         vertex -3.738140e+01 -4.943925e+01 3.400000e+01
         vertex -3.840640e+01 -4.869454e+01 3.200000e+01
      endloop
   endfacet
   facet normal 0.000000e+00 1.000000e+00 -0.000000e+00
      outer loop
         vertex -3.611443e+01 -4.943925e+01 3.400000e+01
         vertex -3.611443e+01 -4.943925e+01 3.200000e+01
         vertex -3.738140e+01 -4.943925e+01 3.200000e+01
      endloop
   endfacet
   facet normal 0.000000e+00 1.000000e+00 0.000000e+00
      outer loop
         vertex -3.738140e+01 -4.943925e+01 3.400000e+01
         vertex -3.611443e+01 -4.943925e+01 3.400000e+01
         vertex -3.738140e+01 -4.943925e+01 3.200000e+01
      endloop
   endfacet
   facet normal -5.877876e-01 8.090153e-01 0.000000e+00
      outer loop
         vertex -3.508943e+01 -4.869454e+01 3.400000e+01
         vertex -3.508943e+01 -4.869454e+01 3.200000e+01
         vertex -3.611443e+01 -4.943925e+01 3.200000e+01
      endloop
   endfacet
   facet normal -5.877876e-01 8.090153e-01 0.000000e+00
      outer loop
         vertex -3.611443e+01 -4.943925e+01 3.400000e+01
         vertex -3.508943e+01 -4.869454e+01 3.400000e+01
         vertex -3.611443e+01 -4.943925e+01 3.200000e+01
      endloop
   endfacet
   facet normal -9.510557e-01 3.090196e-01 0.000000e+00
      outer loop
         vertex -3.469791e+01 -4.748959e+01 3.400000e+01
         vertex -3.469791e+01 -4.748959e+01 3.200000e+01
         vertex -3.508943e+01 -4.869454e+01 3.200000e+01
      endloop
   endfacet
   facet normal -9.510557e-01 3.090196e-01 0.000000e+00
      outer loop
         vertex -3.508943e+01 -4.869454e+01 3.400000e+01
         vertex -3.469791e+01 -4.748959e+01 3.400000e+01
         vertex -3.508943e+01 -4.869454e+01 3.200000e+01
      endloop
   endfacet
   facet normal -9.510559e-01 -3.090187e-01 0.000000e+00
      outer loop
         vertex -3.508943e+01 -4.628463e+01 3.400000e+01
         vertex -3.508943e+01 -4.628463e+01 3.200000e+01
         vertex -3.469791e+01 -4.748959e+01 3.200000e+01
      endloop
   endfacet
   facet normal -9.510559e-01 -3.090187e-01 0.000000e+00
      outer loop
         vertex -3.469791e+01 -4.748959e+01 3.400000e+01
         vertex -3.508943e+01 -4.628463e+01 3.400000e+01
         vertex -3.469791e+01 -4.748959e+01 3.200000e+01
      endloop
   endfacet
   facet normal -5.877876e-01 -8.090153e-01 0.000000e+00
      outer loop
         vertex -3.611443e+01 -4.553992e+01 3.400000e+01
         vertex -3.611443e+01 -4.553992e+01 3.200000e+01
         vertex -3.508943e+01 -4.628463e+01 3.200000e+01
      endloop
   endfacet
   facet normal -5.877876e-01 -8.090153e-01 0.000000e+00
      outer loop
         vertex -3.508943e+01 -4.628463e+01 3.400000e+01
         vertex -3.611443e+01 -4.553992e+01 3.400000e+01
         vertex -3.508943e+01 -4.628463e+01 3.200000e+01
      endloop
   endfacet
   facet normal 0.000000e+00 -1.000000e+00 0.000000e+00
      outer loop
         vertex -3.738140e+01 -4.553992e+01 3.400000e+01
         vertex -3.738140e+01 -4.553992e+01 3.200000e+01
         vertex -3.611443e+01 -4.553992e+01 3.200000e+01
      endloop
   endfacet
   facet normal 0.000000e+00 -1.000000e+00 0.000000e+00
      outer loop
         vertex -3.611443e+01 -4.553992e+01 3.400000e+01
         vertex -3.738140e+01 -4.553992e+01 3.400000e+01
         vertex -3.611443e+01 -4.553992e+01 3.200000e+01
      endloop
   endfacet
   facet normal 5.877862e-01 -8.090163e-01 0.000000e+00
      outer loop
         vertex -3.840640e+01 -4.628463e+01 3.400000e+01
         vertex -3.840640e+01 -4.628463e+01 3.200000e+01
         vertex -3.738140e+01 -4.553992e+01 3.200000e+01
      endloop
   endfacet
   facet normal 5.877862e-01 -8.090163e-01 0.000000e+00
      outer loop
         vertex -3.738140e+01 -4.553992e+01 3.400000e+01
         vertex -3.840640e+01 -4.628463e+01 3.400000e+01
         vertex -3.738140e+01 -4.553992e+01 3.200000e+01
      endloop
   endfacet
   facet normal 9.510568e-01 -3.090160e-01 0.000000e+00
      outer loop
         vertex -3.879792e+01 -4.748959e+01 3.400000e+01
         vertex -3.879792e+01 -4.748959e+01 3.200000e+01
         vertex -3.840640e+01 -4.628463e+01 3.200000e+01
      endloop
   endfacet
   facet normal 9.510568e-01 -3.090160e-01 0.000000e+00
      outer loop
         vertex -3.840640e+01 -4.628463e+01 3.400000e+01
         vertex -3.879792e+01 -4.748959e+01 3.400000e+01
         vertex -3.840640e+01 -4.628463e+01 3.200000e+01
      endloop
   endfacet
   facet normal -0.000000e+00 -1.000000e+00 -0.000000e+00
      outer loop
         vertex 5.140744e+00 -4.877303e+01 2.000000e+00
         vertex 5.140744e+00 -4.877303e+01 3.200000e+01
         vertex 4.838037e+00 -4.877303e+01 3.200000e+01
      endloop
   endfacet
   facet normal 0.000000e+00 -1.000000e+00 0.000000e+00
      outer loop
         vertex 4.838037e+00 -4.877303e+01 2.000000e+00
         vertex 5.140744e+00 -4.877303e+01 2.000000e+00
         vertex 4.838037e+00 -4.877303e+01 3.200000e+01
      endloop
   endfacet
   facet normal 9.987828e-01 -4.932355e-02 8.318713e-05
      outer loop
         vertex -2.971940e+01 -4.245905e+01 3.200000e+01
         vertex -3.003121e+01 -4.877303e+01 3.200000e+01
         vertex -2.971840e+01 -4.248933e+01 2.000000e+00
      endloop
   endfacet
   facet normal 9.987632e-01 -4.971973e-02 0.000000e+00
      outer loop
         vertex -3.003121e+01 -4.877303e+01 3.200000e+01
         vertex -3.003121e+01 -4.877303e+01 2.000000e+00
         vertex -2.971840e+01 -4.248933e+01 2.000000e+00
      endloop
   endfacet
   facet normal 9.933657e-01 1.149982e-01 -8.285528e-05
      outer loop
         vertex -2.971840e+01 -4.248933e+01 2.000000e+00
         vertex -3.044190e+01 -3.623959e+01 2.000000e+00
         vertex -2.971940e+01 -4.245905e+01 3.200000e+01
      endloop
   endfacet
   facet normal 9.804376e-01 1.968303e-01 8.230993e-07
      outer loop
         vertex -3.044190e+01 -3.623959e+01 2.000000e+00
         vertex -3.044787e+01 -3.620988e+01 2.000000e+00
         vertex -3.045386e+01 -3.618018e+01 3.200000e+01
      endloop
   endfacet
   facet normal 9.802768e-01 1.976293e-01 -0.000000e+00
      outer loop
         vertex -3.044787e+01 -3.620988e+01 2.000000e+00
         vertex -3.045386e+01 -3.618018e+01 2.000000e+00
         vertex -3.045386e+01 -3.618018e+01 3.200000e+01
      endloop
   endfacet
   facet normal 9.932281e-01 1.161807e-01 1.656215e-04
      outer loop
         vertex -3.045386e+01 -3.618018e+01 3.200000e+01
         vertex -2.971940e+01 -4.245905e+01 3.200000e+01
         vertex -3.044190e+01 -3.623959e+01 2.000000e+00
      endloop
   endfacet
   facet normal 0.000000e+00 -1.000000e+00 0.000000e+00
      outer loop
         vertex -3.003121e+01 -4.877303e+01 3.200000e+01
         vertex -3.033387e+01 -4.877303e+01 3.200000e+01
         vertex -3.033387e+01 -4.877303e+01 2.000000e+00
      endloop
   endfacet
   facet normal 0.000000e+00 -1.000000e+00 -0.000000e+00
      outer loop
         vertex -3.003121e+01 -4.877303e+01 2.000000e+00
         vertex -3.003121e+01 -4.877303e+01 3.200000e+01
         vertex -3.033387e+01 -4.877303e+01 2.000000e+00
      endloop
   endfacet
   facet normal -9.932587e-01 -1.159191e-01 0.000000e+00
      outer loop
         vertex -3.074792e+01 -3.623959e+01 2.000000e+00
         vertex -3.001857e+01 -4.248905e+01 2.000000e+00
         vertex -3.001857e+01 -4.248905e+01 3.200000e+01
      endloop
   endfacet
   facet normal -9.932587e-01 -1.159191e-01 0.000000e+00
      outer loop
         vertex -3.074792e+01 -3.623959e+01 2.000000e+00
         vertex -3.001857e+01 -4.248905e+01 3.200000e+01
         vertex -3.074792e+01 -3.623959e+01 3.200000e+01
      endloop
   endfacet
   facet normal -9.987436e-01 5.011249e-02 0.000000e+00
      outer loop
         vertex -3.001857e+01 -4.248905e+01 2.000000e+00
         vertex -3.033387e+01 -4.877303e+01 2.000000e+00
         vertex -3.033387e+01 -4.877303e+01 3.200000e+01
      endloop
   endfacet
   facet normal -9.987436e-01 5.011249e-02 0.000000e+00
      outer loop
         vertex -3.001857e+01 -4.248905e+01 2.000000e+00
         vertex -3.033387e+01 -4.877303e+01 3.200000e+01
         vertex -3.001857e+01 -4.248905e+01 3.200000e+01
      endloop
   endfacet
   facet normal -1.980207e-01 9.801978e-01 0.000000e+00
      outer loop
         vertex -3.045386e+01 -3.618018e+01 3.200000e+01
         vertex -3.045386e+01 -3.618018e+01 2.000000e+00
         vertex -3.074792e+01 -3.623959e+01 2.000000e+00
      endloop
   endfacet
   facet normal -1.980207e-01 9.801978e-01 0.000000e+00
      outer loop
         vertex -3.045386e+01 -3.618018e+01 3.200000e+01
         vertex -3.074792e+01 -3.623959e+01 2.000000e+00
         vertex -3.074792e+01 -3.623959e+01 3.200000e+01
      endloop
   endfacet
   facet normal 0.000000e+00 -0.000000e+00 1.000000e+00
      outer loop
         vertex -3.033387e+01 -4.877303e+01 3.200000e+01
         vertex -3.003121e+01 -4.877303e+01 3.200000e+01
         vertex -3.001857e+01 -4.248905e+01 3.200000e+01
      endloop
   endfacet
   facet normal 0.000000e+00 0.000000e+00 1.000000e+00
      outer loop
         vertex -3.003121e+01 -4.877303e+01 3.200000e+01
         vertex -2.971940e+01 -4.245905e+01 3.200000e+01
         vertex -3.001857e+01 -4.248905e+01 3.200000e+01
      endloop
   endfacet
   facet normal 0.000000e+00 0.000000e+00 1.000000e+00
      outer loop
         vertex -3.001857e+01 -4.248905e+01 3.200000e+01
         vertex -2.971940e+01 -4.245905e+01 3.200000e+01
         vertex -3.074792e+01 -3.623959e+01 3.200000e+01
      endloop
   endfacet
   facet normal 0.000000e+00 0.000000e+00 1.000000e+00
      outer loop
         vertex -2.971940e+01 -4.245905e+01 3.200000e+01
         vertex -3.045386e+01 -3.618018e+01 3.200000e+01
         vertex -3.074792e+01 -3.623959e+01 3.200000e+01
      endloop
   endfacet
   facet normal 0.000000e+00 0.000000e+00 1.000000e+00
      outer loop
         vertex -3.044787e+01 -5.126929e+01 3.200000e+01
         vertex -3.044190e+01 -5.123959e+01 3.200000e+01
         vertex -3.045386e+01 -5.129899e+01 3.200000e+01
      endloop
   endfacet
   facet normal -0.000000e+00 0.000000e+00 1.000000e+00
      outer loop
         vertex -3.044190e+01 -5.123959e+01 3.200000e+01
         vertex -3.074792e+01 -5.123959e+01 3.200000e+01
         vertex -3.045386e+01 -5.129899e+01 3.200000e+01
      endloop
   endfacet
   facet normal -1.980084e-01 -9.802003e-01 -0.000000e+00
      outer loop
         vertex -3.045386e+01 -5.129899e+01 3.200000e+01
         vertex -3.074792e+01 -5.123959e+01 3.200000e+01
         vertex -3.074792e+01 -5.123959e+01 2.000000e+00
      endloop
   endfacet
   facet normal -1.980084e-01 -9.802003e-01 0.000000e+00
      outer loop
         vertex -3.045386e+01 -5.129899e+01 3.200000e+01
         vertex -3.074792e+01 -5.123959e+01 2.000000e+00
         vertex -3.045386e+01 -5.129899e+01 2.000000e+00
      endloop
   endfacet
   facet normal 9.802768e-01 -1.976293e-01 0.000000e+00
      outer loop
         vertex -3.045386e+01 -5.129899e+01 2.000000e+00
         vertex -3.044787e+01 -5.126929e+01 2.000000e+00
         vertex -3.044787e+01 -5.126929e+01 3.200000e+01
      endloop
   endfacet
   facet normal 9.802768e-01 -1.976293e-01 0.000000e+00
      outer loop
         vertex -3.045386e+01 -5.129899e+01 2.000000e+00
         vertex -3.044787e+01 -5.126929e+01 3.200000e+01
         vertex -3.045386e+01 -5.129899e+01 3.200000e+01
      endloop
   endfacet
   facet normal 9.804327e-01 -1.968546e-01 0.000000e+00
      outer loop
         vertex -3.044787e+01 -5.126929e+01 2.000000e+00
         vertex -3.044190e+01 -5.123959e+01 2.000000e+00
         vertex -3.044190e+01 -5.123959e+01 3.200000e+01
      endloop
   endfacet
   facet normal 9.804327e-01 -1.968546e-01 0.000000e+00
      outer loop
         vertex -3.044787e+01 -5.126929e+01 2.000000e+00
         vertex -3.044190e+01 -5.123959e+01 3.200000e+01
         vertex -3.044787e+01 -5.126929e+01 3.200000e+01
      endloop
   endfacet
   facet normal 0.000000e+00 0.000000e+00 -1.000000e+00
      outer loop
         vertex -3.045386e+01 -5.129899e+01 2.000000e+00
         vertex -3.074792e+01 -5.123959e+01 2.000000e+00
         vertex -3.044787e+01 -5.126929e+01 2.000000e+00
      endloop
   endfacet
   facet normal -0.000000e+00 0.000000e+00 -1.000000e+00
      outer loop
         vertex -3.074792e+01 -5.123959e+01 2.000000e+00
         vertex -3.044190e+01 -5.123959e+01 2.000000e+00
         vertex -3.044787e+01 -5.126929e+01 2.000000e+00
      endloop
   endfacet
   facet normal 0.000000e+00 1.000000e+00 -0.000000e+00
      outer loop
         vertex -3.044190e+01 -5.123959e+01 3.200000e+01
         vertex -3.044190e+01 -5.123959e+01 2.000000e+00
         vertex -3.074792e+01 -5.123959e+01 2.000000e+00
      endloop
   endfacet
   facet normal 0.000000e+00 1.000000e+00 0.000000e+00
      outer loop
         vertex -3.074792e+01 -5.123959e+01 3.200000e+01
         vertex -3.044190e+01 -5.123959e+01 3.200000e+01
         vertex -3.074792e+01 -5.123959e+01 2.000000e+00
      endloop
   endfacet
endsolid
