solid 
   facet normal 0.000000e+00 0.000000e+00 -1.000000e+00
      outer loop
         vertex -3.099096e+00 -1.626531e+00 0.000000e+00
         vertex -3.500000e+00 4.286264e-16 0.000000e+00
         vertex -1.988227e+00 -2.880444e+00 0.000000e+00
      endloop
   endfacet
   facet normal 0.000000e+00 -0.000000e+00 -1.000000e+00
      outer loop
         vertex -3.500000e+00 4.286264e-16 0.000000e+00
         vertex -3.099096e+00 1.626531e+00 0.000000e+00
         vertex -1.988227e+00 -2.880444e+00 0.000000e+00
      endloop
   endfacet
   facet normal 0.000000e+00 0.000000e+00 -1.000000e+00
      outer loop
         vertex -1.988227e+00 -2.880444e+00 0.000000e+00
         vertex -3.099096e+00 1.626531e+00 0.000000e+00
         vertex -4.218784e-01 -3.474481e+00 0.000000e+00
      endloop
   endfacet
   facet normal 0.000000e+00 -0.000000e+00 -1.000000e+00
      outer loop
         vertex -3.099096e+00 1.626531e+00 0.000000e+00
         vertex -1.988227e+00 2.880444e+00 0.000000e+00
         vertex -4.218784e-01 -3.474481e+00 0.000000e+00
      endloop
   endfacet
   facet normal 0.000000e+00 -0.000000e+00 -1.000000e+00
      outer loop
         vertex -4.218784e-01 -3.474481e+00 0.000000e+00
         vertex -3.535534e-01 -3.535534e-01 0.000000e+00
         vertex 1.241117e+00 -3.272557e+00 0.000000e+00
      endloop
   endfacet
   facet normal -0.000000e+00 -0.000000e+00 -1.000000e+00
      outer loop
         vertex -3.535534e-01 -3.535534e-01 0.000000e+00
         vertex -9.184851e-17 -5.000000e-01 0.000000e+00
         vertex 1.241117e+00 -3.272557e+00 0.000000e+00
      endloop
   endfacet
   facet normal 0.000000e+00 0.000000e+00 -1.000000e+00
      outer loop
         vertex 1.241117e+00 -3.272557e+00 0.000000e+00
         vertex -9.184851e-17 -5.000000e-01 0.000000e+00
         vertex 2.619788e+00 -2.320929e+00 0.000000e+00
      endloop
   endfacet
   facet normal 0.000000e+00 -0.000000e+00 -1.000000e+00
      outer loop
         vertex -9.184851e-17 -5.000000e-01 0.000000e+00
         vertex 3.535534e-01 -3.535534e-01 0.000000e+00
         vertex 2.619788e+00 -2.320929e+00 0.000000e+00
      endloop
   endfacet
   facet normal 0.000000e+00 0.000000e+00 -1.000000e+00
      outer loop
         vertex 2.619788e+00 -2.320929e+00 0.000000e+00
         vertex 3.535534e-01 -3.535534e-01 0.000000e+00
         vertex 3.398296e+00 -8.376048e-01 0.000000e+00
      endloop
   endfacet
   facet normal 0.000000e+00 -0.000000e+00 -1.000000e+00
      outer loop
         vertex 3.535534e-01 -3.535534e-01 0.000000e+00
         vertex 5.000000e-01 -1.224647e-16 0.000000e+00
         vertex 3.398296e+00 -8.376048e-01 0.000000e+00
      endloop
   endfacet
   facet normal 0.000000e+00 0.000000e+00 -1.000000e+00
      outer loop
         vertex 3.398296e+00 -8.376048e-01 0.000000e+00
         vertex 5.000000e-01 -1.224647e-16 0.000000e+00
         vertex 3.398296e+00 8.376048e-01 0.000000e+00
      endloop
   endfacet
   facet normal 0.000000e+00 0.000000e+00 -1.000000e+00
      outer loop
         vertex 5.000000e-01 -1.224647e-16 0.000000e+00
         vertex 3.535534e-01 3.535534e-01 0.000000e+00
         vertex 3.398296e+00 8.376048e-01 0.000000e+00
      endloop
   endfacet
   facet normal 0.000000e+00 0.000000e+00 -1.000000e+00
      outer loop
         vertex 3.398296e+00 8.376048e-01 0.000000e+00
         vertex 3.535534e-01 3.535534e-01 0.000000e+00
         vertex 2.619788e+00 2.320929e+00 0.000000e+00
      endloop
   endfacet
   facet normal 0.000000e+00 0.000000e+00 -1.000000e+00
      outer loop
         vertex 3.535534e-01 3.535534e-01 0.000000e+00
         vertex 1.530808e-16 5.000000e-01 0.000000e+00
         vertex 2.619788e+00 2.320929e+00 0.000000e+00
      endloop
   endfacet
   facet normal 0.000000e+00 0.000000e+00 -1.000000e+00
      outer loop
         vertex 2.619788e+00 2.320929e+00 0.000000e+00
         vertex 1.530808e-16 5.000000e-01 0.000000e+00
         vertex 1.241117e+00 3.272557e+00 0.000000e+00
      endloop
   endfacet
   facet normal 0.000000e+00 0.000000e+00 -1.000000e+00
      outer loop
         vertex 1.530808e-16 5.000000e-01 0.000000e+00
         vertex -3.535534e-01 3.535534e-01 0.000000e+00
         vertex 1.241117e+00 3.272557e+00 0.000000e+00
      endloop
   endfacet
   facet normal 0.000000e+00 0.000000e+00 -1.000000e+00
      outer loop
         vertex 1.241117e+00 3.272557e+00 0.000000e+00
         vertex -3.535534e-01 3.535534e-01 0.000000e+00
         vertex -4.218784e-01 3.474481e+00 0.000000e+00
      endloop
   endfacet
   facet normal 0.000000e+00 0.000000e+00 -1.000000e+00
      outer loop
         vertex -3.535534e-01 3.535534e-01 0.000000e+00
         vertex -5.000000e-01 6.123234e-17 0.000000e+00
         vertex -4.218784e-01 3.474481e+00 0.000000e+00
      endloop
   endfacet
   facet normal 0.000000e+00 0.000000e+00 -1.000000e+00
      outer loop
         vertex -4.218784e-01 3.474481e+00 0.000000e+00
         vertex -5.000000e-01 6.123234e-17 0.000000e+00
         vertex -1.988227e+00 2.880444e+00 0.000000e+00
      endloop
   endfacet
   facet normal 0.000000e+00 0.000000e+00 -1.000000e+00
      outer loop
         vertex -5.000000e-01 6.123234e-17 0.000000e+00
         vertex -3.535534e-01 -3.535534e-01 0.000000e+00
         vertex -1.988227e+00 2.880444e+00 0.000000e+00
      endloop
   endfacet
   facet normal -0.000000e+00 0.000000e+00 -1.000000e+00
      outer loop
         vertex -1.988227e+00 2.880444e+00 0.000000e+00
         vertex -3.535534e-01 -3.535534e-01 0.000000e+00
         vertex -4.218784e-01 -3.474481e+00 0.000000e+00
      endloop
   endfacet
   facet normal 0.000000e+00 0.000000e+00 1.000000e+00
      outer loop
         vertex -3.099096e+00 1.626531e+00 2.200000e+01
         vertex -3.500000e+00 4.286264e-16 2.200000e+01
         vertex -1.988227e+00 2.880444e+00 2.200000e+01
      endloop
   endfacet
   facet normal 0.000000e+00 -0.000000e+00 1.000000e+00
      outer loop
         vertex -3.500000e+00 4.286264e-16 2.200000e+01
         vertex -3.099096e+00 -1.626531e+00 2.200000e+01
         vertex -1.988227e+00 2.880444e+00 2.200000e+01
      endloop
   endfacet
   facet normal 0.000000e+00 0.000000e+00 1.000000e+00
      outer loop
         vertex -1.988227e+00 2.880444e+00 2.200000e+01
         vertex -3.099096e+00 -1.626531e+00 2.200000e+01
         vertex -4.218784e-01 3.474481e+00 2.200000e+01
      endloop
   endfacet
   facet normal 0.000000e+00 -0.000000e+00 1.000000e+00
      outer loop
         vertex -3.099096e+00 -1.626531e+00 2.200000e+01
         vertex -1.988227e+00 -2.880444e+00 2.200000e+01
         vertex -4.218784e-01 3.474481e+00 2.200000e+01
      endloop
   endfacet
   facet normal 0.000000e+00 -0.000000e+00 1.000000e+00
      outer loop
         vertex -4.218784e-01 3.474481e+00 2.200000e+01
         vertex -3.535534e-01 3.535534e-01 2.200000e+01
         vertex 1.241117e+00 3.272557e+00 2.200000e+01
      endloop
   endfacet
   facet normal 0.000000e+00 -0.000000e+00 1.000000e+00
      outer loop
         vertex -3.535534e-01 3.535534e-01 2.200000e+01
         vertex 1.530808e-16 5.000000e-01 2.200000e+01
         vertex 1.241117e+00 3.272557e+00 2.200000e+01
      endloop
   endfacet
   facet normal 0.000000e+00 0.000000e+00 1.000000e+00
      outer loop
         vertex 1.241117e+00 3.272557e+00 2.200000e+01
         vertex 1.530808e-16 5.000000e-01 2.200000e+01
         vertex 2.619788e+00 2.320929e+00 2.200000e+01
      endloop
   endfacet
   facet normal 0.000000e+00 -0.000000e+00 1.000000e+00
      outer loop
         vertex 1.530808e-16 5.000000e-01 2.200000e+01
         vertex 3.535534e-01 3.535534e-01 2.200000e+01
         vertex 2.619788e+00 2.320929e+00 2.200000e+01
      endloop
   endfacet
   facet normal 0.000000e+00 0.000000e+00 1.000000e+00
      outer loop
         vertex 2.619788e+00 2.320929e+00 2.200000e+01
         vertex 3.535534e-01 3.535534e-01 2.200000e+01
         vertex 3.398296e+00 8.376048e-01 2.200000e+01
      endloop
   endfacet
   facet normal 0.000000e+00 -0.000000e+00 1.000000e+00
      outer loop
         vertex 3.535534e-01 3.535534e-01 2.200000e+01
         vertex 5.000000e-01 -1.224647e-16 2.200000e+01
         vertex 3.398296e+00 8.376048e-01 2.200000e+01
      endloop
   endfacet
   facet normal -0.000000e+00 0.000000e+00 1.000000e+00
      outer loop
         vertex 3.398296e+00 8.376048e-01 2.200000e+01
         vertex 5.000000e-01 -1.224647e-16 2.200000e+01
         vertex 3.398296e+00 -8.376048e-01 2.200000e+01
      endloop
   endfacet
   facet normal -0.000000e+00 0.000000e+00 1.000000e+00
      outer loop
         vertex 5.000000e-01 -1.224647e-16 2.200000e+01
         vertex 3.535534e-01 -3.535534e-01 2.200000e+01
         vertex 3.398296e+00 -8.376048e-01 2.200000e+01
      endloop
   endfacet
   facet normal 0.000000e+00 0.000000e+00 1.000000e+00
      outer loop
         vertex 3.398296e+00 -8.376048e-01 2.200000e+01
         vertex 3.535534e-01 -3.535534e-01 2.200000e+01
         vertex 2.619788e+00 -2.320929e+00 2.200000e+01
      endloop
   endfacet
   facet normal -0.000000e+00 0.000000e+00 1.000000e+00
      outer loop
         vertex 3.535534e-01 -3.535534e-01 2.200000e+01
         vertex -9.184851e-17 -5.000000e-01 2.200000e+01
         vertex 2.619788e+00 -2.320929e+00 2.200000e+01
      endloop
   endfacet
   facet normal 0.000000e+00 0.000000e+00 1.000000e+00
      outer loop
         vertex 2.619788e+00 -2.320929e+00 2.200000e+01
         vertex -9.184851e-17 -5.000000e-01 2.200000e+01
         vertex 1.241117e+00 -3.272557e+00 2.200000e+01
      endloop
   endfacet
   facet normal 0.000000e+00 0.000000e+00 1.000000e+00
      outer loop
         vertex -9.184851e-17 -5.000000e-01 2.200000e+01
         vertex -3.535534e-01 -3.535534e-01 2.200000e+01
         vertex 1.241117e+00 -3.272557e+00 2.200000e+01
      endloop
   endfacet
   facet normal 0.000000e+00 0.000000e+00 1.000000e+00
      outer loop
         vertex 1.241117e+00 -3.272557e+00 2.200000e+01
         vertex -3.535534e-01 -3.535534e-01 2.200000e+01
         vertex -4.218784e-01 -3.474481e+00 2.200000e+01
      endloop
   endfacet
   facet normal 0.000000e+00 0.000000e+00 1.000000e+00
      outer loop
         vertex -3.535534e-01 -3.535534e-01 2.200000e+01
         vertex -5.000000e-01 6.123234e-17 2.200000e+01
         vertex -4.218784e-01 -3.474481e+00 2.200000e+01
      endloop
   endfacet
   facet normal 0.000000e+00 0.000000e+00 1.000000e+00
      outer loop
         vertex -4.218784e-01 -3.474481e+00 2.200000e+01
         vertex -5.000000e-01 6.123234e-17 2.200000e+01
         vertex -1.988227e+00 -2.880444e+00 2.200000e+01
      endloop
   endfacet
   facet normal 0.000000e+00 0.000000e+00 1.000000e+00
      outer loop
         vertex -5.000000e-01 6.123234e-17 2.200000e+01
         vertex -3.535534e-01 3.535534e-01 2.200000e+01
         vertex -1.988227e+00 -2.880444e+00 2.200000e+01
      endloop
   endfacet
   facet normal 0.000000e+00 0.000000e+00 1.000000e+00
      outer loop
         vertex -1.988227e+00 -2.880444e+00 2.200000e+01
         vertex -3.535534e-01 3.535534e-01 2.200000e+01
         vertex -4.218784e-01 3.474481e+00 2.200000e+01
      endloop
   endfacet
   facet normal 9.238795e-01 3.826835e-01 -0.000000e+00
      outer loop
         vertex -3.535534e-01 -3.535534e-01 2.200000e+01
         vertex -3.535534e-01 -3.535534e-01 0.000000e+00
         vertex -5.000000e-01 6.123234e-17 0.000000e+00
      endloop
   endfacet
   facet normal 9.238795e-01 3.826835e-01 0.000000e+00
      outer loop
         vertex -5.000000e-01 6.123234e-17 2.200000e+01
         vertex -3.535534e-01 -3.535534e-01 2.200000e+01
         vertex -5.000000e-01 6.123234e-17 0.000000e+00
      endloop
   endfacet
   facet normal 3.826835e-01 9.238795e-01 -0.000000e+00
      outer loop
         vertex -9.184851e-17 -5.000000e-01 2.200000e+01
         vertex -9.184851e-17 -5.000000e-01 0.000000e+00
         vertex -3.535534e-01 -3.535534e-01 0.000000e+00
      endloop
   endfacet
   facet normal 3.826835e-01 9.238795e-01 0.000000e+00
      outer loop
         vertex -3.535534e-01 -3.535534e-01 2.200000e+01
         vertex -9.184851e-17 -5.000000e-01 2.200000e+01
         vertex -3.535534e-01 -3.535534e-01 0.000000e+00
      endloop
   endfacet
   facet normal -3.826835e-01 9.238795e-01 0.000000e+00
      outer loop
         vertex 3.535534e-01 -3.535534e-01 2.200000e+01
         vertex 3.535534e-01 -3.535534e-01 0.000000e+00
         vertex -9.184851e-17 -5.000000e-01 0.000000e+00
      endloop
   endfacet
   facet normal -3.826835e-01 9.238795e-01 0.000000e+00
      outer loop
         vertex -9.184851e-17 -5.000000e-01 2.200000e+01
         vertex 3.535534e-01 -3.535534e-01 2.200000e+01
         vertex -9.184851e-17 -5.000000e-01 0.000000e+00
      endloop
   endfacet
   facet normal -9.238795e-01 3.826835e-01 0.000000e+00
      outer loop
         vertex 5.000000e-01 -1.224647e-16 2.200000e+01
         vertex 5.000000e-01 -1.224647e-16 0.000000e+00
         vertex 3.535534e-01 -3.535534e-01 0.000000e+00
      endloop
   endfacet
   facet normal -9.238795e-01 3.826835e-01 0.000000e+00
      outer loop
         vertex 3.535534e-01 -3.535534e-01 2.200000e+01
         vertex 5.000000e-01 -1.224647e-16 2.200000e+01
         vertex 3.535534e-01 -3.535534e-01 0.000000e+00
      endloop
   endfacet
   facet normal -9.238795e-01 -3.826835e-01 0.000000e+00
      outer loop
         vertex 3.535534e-01 3.535534e-01 2.200000e+01
         vertex 3.535534e-01 3.535534e-01 0.000000e+00
         vertex 5.000000e-01 -1.224647e-16 0.000000e+00
      endloop
   endfacet
   facet normal -9.238795e-01 -3.826835e-01 0.000000e+00
      outer loop
         vertex 5.000000e-01 -1.224647e-16 2.200000e+01
         vertex 3.535534e-01 3.535534e-01 2.200000e+01
         vertex 5.000000e-01 -1.224647e-16 0.000000e+00
      endloop
   endfacet
   facet normal -3.826835e-01 -9.238795e-01 0.000000e+00
      outer loop
         vertex 1.530808e-16 5.000000e-01 2.200000e+01
         vertex 1.530808e-16 5.000000e-01 0.000000e+00
         vertex 3.535534e-01 3.535534e-01 0.000000e+00
      endloop
   endfacet
   facet normal -3.826835e-01 -9.238795e-01 0.000000e+00
      outer loop
         vertex 3.535534e-01 3.535534e-01 2.200000e+01
         vertex 1.530808e-16 5.000000e-01 2.200000e+01
         vertex 3.535534e-01 3.535534e-01 0.000000e+00
      endloop
   endfacet
   facet normal 3.826835e-01 -9.238795e-01 0.000000e+00
      outer loop
         vertex -3.535534e-01 3.535534e-01 2.200000e+01
         vertex -3.535534e-01 3.535534e-01 0.000000e+00
         vertex 1.530808e-16 5.000000e-01 0.000000e+00
      endloop
   endfacet
   facet normal 3.826835e-01 -9.238795e-01 0.000000e+00
      outer loop
         vertex 1.530808e-16 5.000000e-01 2.200000e+01
         vertex -3.535534e-01 3.535534e-01 2.200000e+01
         vertex 1.530808e-16 5.000000e-01 0.000000e+00
      endloop
   endfacet
   facet normal 9.238795e-01 -3.826835e-01 0.000000e+00
      outer loop
         vertex -5.000000e-01 1.836970e-16 2.200000e+01
         vertex -5.000000e-01 1.836970e-16 0.000000e+00
         vertex -3.535534e-01 3.535534e-01 0.000000e+00
      endloop
   endfacet
   facet normal 9.238795e-01 -3.826835e-01 0.000000e+00
      outer loop
         vertex -3.535534e-01 3.535534e-01 2.200000e+01
         vertex -5.000000e-01 1.836970e-16 2.200000e+01
         vertex -3.535534e-01 3.535534e-01 0.000000e+00
      endloop
   endfacet
   facet normal -9.709418e-01 -2.393157e-01 0.000000e+00
      outer loop
         vertex -3.500000e+00 4.286264e-16 0.000000e+00
         vertex -3.099096e+00 -1.626531e+00 0.000000e+00
         vertex -3.099096e+00 -1.626531e+00 2.200000e+01
      endloop
   endfacet
   facet normal -9.709418e-01 -2.393157e-01 0.000000e+00
      outer loop
         vertex -3.500000e+00 4.286264e-16 0.000000e+00
         vertex -3.099096e+00 -1.626531e+00 2.200000e+01
         vertex -3.500000e+00 4.286264e-16 2.200000e+01
      endloop
   endfacet
   facet normal -7.485108e-01 -6.631226e-01 0.000000e+00
      outer loop
         vertex -3.099096e+00 -1.626531e+00 0.000000e+00
         vertex -1.988227e+00 -2.880444e+00 0.000000e+00
         vertex -1.988227e+00 -2.880444e+00 2.200000e+01
      endloop
   endfacet
   facet normal -7.485108e-01 -6.631226e-01 0.000000e+00
      outer loop
         vertex -3.099096e+00 -1.626531e+00 0.000000e+00
         vertex -1.988227e+00 -2.880444e+00 2.200000e+01
         vertex -3.099096e+00 -1.626531e+00 2.200000e+01
      endloop
   endfacet
   facet normal -3.546049e-01 -9.350162e-01 0.000000e+00
      outer loop
         vertex -1.988227e+00 -2.880444e+00 0.000000e+00
         vertex -4.218784e-01 -3.474481e+00 0.000000e+00
         vertex -4.218784e-01 -3.474481e+00 2.200000e+01
      endloop
   endfacet
   facet normal -3.546049e-01 -9.350162e-01 0.000000e+00
      outer loop
         vertex -1.988227e+00 -2.880444e+00 0.000000e+00
         vertex -4.218784e-01 -3.474481e+00 2.200000e+01
         vertex -1.988227e+00 -2.880444e+00 2.200000e+01
      endloop
   endfacet
   facet normal 1.205367e-01 -9.927089e-01 0.000000e+00
      outer loop
         vertex -4.218784e-01 -3.474481e+00 0.000000e+00
         vertex 1.241117e+00 -3.272557e+00 0.000000e+00
         vertex 1.241117e+00 -3.272557e+00 2.200000e+01
      endloop
   endfacet
   facet normal 1.205367e-01 -9.927089e-01 0.000000e+00
      outer loop
         vertex -4.218784e-01 -3.474481e+00 0.000000e+00
         vertex 1.241117e+00 -3.272557e+00 2.200000e+01
         vertex -4.218784e-01 -3.474481e+00 2.200000e+01
      endloop
   endfacet
   facet normal 5.680647e-01 -8.229839e-01 0.000000e+00
      outer loop
         vertex 1.241117e+00 -3.272557e+00 0.000000e+00
         vertex 2.619788e+00 -2.320929e+00 0.000000e+00
         vertex 2.619788e+00 -2.320929e+00 2.200000e+01
      endloop
   endfacet
   facet normal 5.680647e-01 -8.229839e-01 0.000000e+00
      outer loop
         vertex 1.241117e+00 -3.272557e+00 0.000000e+00
         vertex 2.619788e+00 -2.320929e+00 2.200000e+01
         vertex 1.241117e+00 -3.272557e+00 2.200000e+01
      endloop
   endfacet
   facet normal 8.854560e-01 -4.647231e-01 0.000000e+00
      outer loop
         vertex 2.619788e+00 -2.320929e+00 0.000000e+00
         vertex 3.398296e+00 -8.376048e-01 0.000000e+00
         vertex 3.398296e+00 -8.376048e-01 2.200000e+01
      endloop
   endfacet
   facet normal 8.854560e-01 -4.647231e-01 0.000000e+00
      outer loop
         vertex 2.619788e+00 -2.320929e+00 0.000000e+00
         vertex 3.398296e+00 -8.376048e-01 2.200000e+01
         vertex 2.619788e+00 -2.320929e+00 2.200000e+01
      endloop
   endfacet
   facet normal 1.000000e+00 0.000000e+00 -0.000000e+00
      outer loop
         vertex 3.398296e+00 -8.376048e-01 0.000000e+00
         vertex 3.398296e+00 8.376048e-01 0.000000e+00
         vertex 3.398296e+00 8.376048e-01 2.200000e+01
      endloop
   endfacet
   facet normal 1.000000e+00 0.000000e+00 0.000000e+00
      outer loop
         vertex 3.398296e+00 -8.376048e-01 0.000000e+00
         vertex 3.398296e+00 8.376048e-01 2.200000e+01
         vertex 3.398296e+00 -8.376048e-01 2.200000e+01
      endloop
   endfacet
   facet normal 8.854560e-01 4.647231e-01 -0.000000e+00
      outer loop
         vertex 3.398296e+00 8.376048e-01 0.000000e+00
         vertex 2.619788e+00 2.320929e+00 0.000000e+00
         vertex 2.619788e+00 2.320929e+00 2.200000e+01
      endloop
   endfacet
   facet normal 8.854560e-01 4.647231e-01 0.000000e+00
      outer loop
         vertex 3.398296e+00 8.376048e-01 0.000000e+00
         vertex 2.619788e+00 2.320929e+00 2.200000e+01
         vertex 3.398296e+00 8.376048e-01 2.200000e+01
      endloop
   endfacet
   facet normal 5.680647e-01 8.229839e-01 -0.000000e+00
      outer loop
         vertex 2.619788e+00 2.320929e+00 0.000000e+00
         vertex 1.241117e+00 3.272557e+00 0.000000e+00
         vertex 1.241117e+00 3.272557e+00 2.200000e+01
      endloop
   endfacet
   facet normal 5.680647e-01 8.229839e-01 0.000000e+00
      outer loop
         vertex 2.619788e+00 2.320929e+00 0.000000e+00
         vertex 1.241117e+00 3.272557e+00 2.200000e+01
         vertex 2.619788e+00 2.320929e+00 2.200000e+01
      endloop
   endfacet
   facet normal 1.205367e-01 9.927089e-01 -0.000000e+00
      outer loop
         vertex 1.241117e+00 3.272557e+00 0.000000e+00
         vertex -4.218784e-01 3.474481e+00 0.000000e+00
         vertex -4.218784e-01 3.474481e+00 2.200000e+01
      endloop
   endfacet
   facet normal 1.205367e-01 9.927089e-01 0.000000e+00
      outer loop
         vertex 1.241117e+00 3.272557e+00 0.000000e+00
         vertex -4.218784e-01 3.474481e+00 2.200000e+01
         vertex 1.241117e+00 3.272557e+00 2.200000e+01
      endloop
   endfacet
   facet normal -3.546049e-01 9.350162e-01 0.000000e+00
      outer loop
         vertex -4.218784e-01 3.474481e+00 0.000000e+00
         vertex -1.988227e+00 2.880444e+00 0.000000e+00
         vertex -1.988227e+00 2.880444e+00 2.200000e+01
      endloop
   endfacet
   facet normal -3.546049e-01 9.350162e-01 0.000000e+00
      outer loop
         vertex -4.218784e-01 3.474481e+00 0.000000e+00
         vertex -1.988227e+00 2.880444e+00 2.200000e+01
         vertex -4.218784e-01 3.474481e+00 2.200000e+01
      endloop
   endfacet
   facet normal -7.485108e-01 6.631226e-01 0.000000e+00
      outer loop
         vertex -1.988227e+00 2.880444e+00 0.000000e+00
         vertex -3.099096e+00 1.626531e+00 0.000000e+00
         vertex -3.099096e+00 1.626531e+00 2.200000e+01
      endloop
   endfacet
   facet normal -7.485108e-01 6.631226e-01 0.000000e+00
      outer loop
         vertex -1.988227e+00 2.880444e+00 0.000000e+00
         vertex -3.099096e+00 1.626531e+00 2.200000e+01
         vertex -1.988227e+00 2.880444e+00 2.200000e+01
      endloop
   endfacet
   facet normal -9.709418e-01 2.393157e-01 0.000000e+00
      outer loop
         vertex -3.099096e+00 1.626531e+00 0.000000e+00
         vertex -3.500000e+00 1.285879e-15 0.000000e+00
         vertex -3.500000e+00 1.285879e-15 2.200000e+01
      endloop
   endfacet
   facet normal -9.709418e-01 2.393157e-01 0.000000e+00
      outer loop
         vertex -3.099096e+00 1.626531e+00 0.000000e+00
         vertex -3.500000e+00 1.285879e-15 2.200000e+01
         vertex -3.099096e+00 1.626531e+00 2.200000e+01
      endloop
   endfacet
endsolid
